<?xml version="1.0" encoding="utf-8"?>
<!-- Generator: Adobe Illustrator 16.0.0, SVG Export Plug-In . SVG Version: 6.00 Build 0)  -->
<!DOCTYPE svg PUBLIC "-//W3C//DTD SVG 1.1//EN" "http://www.w3.org/Graphics/SVG/1.1/DTD/svg11.dtd">
<svg version="1.1" xmlns="http://www.w3.org/2000/svg" xmlns:xlink="http://www.w3.org/1999/xlink" x="0px" y="0px" width="122px"
	 height="122px" viewBox="0 0 122 122" enable-background="new 0 0 122 122" xml:space="preserve">
<g id="background">
</g>
<g id="_x33__ONS_CONCEPT">
	<rect x="1182.78" y="-1431.947" fill="#F7941E" width="1277.516" height="602.353"/>
	<text transform="matrix(1 0 0 1 161.2373 324.4653)" font-family="'ProximaNova-Semibold'" font-size="12" letter-spacing="32">	</text>
	<g>
	</g>
	<text transform="matrix(1 0 0 1 1182.9019 -1600.4858)"><tspan x="0" y="0" font-family="'MyriadPro-Regular'" font-size="50">laptop m</tspan><tspan x="0" y="60" font-family="'MyriadPro-Regular'" font-size="50">± 1280 px</tspan></text>
	<path fill="none" d="M11899.064-717.983"/>
	<path fill="none" d="M-4483.936-717.983"/>
	<rect x="1180.448" y="-829.594" fill="#FFFFFF" width="1280" height="300"/>
	<rect x="1180.448" y="322.374" fill="#333333" width="1280" height="300"/>
	<rect x="1180.448" y="-529.594" fill="#F8F9F9" width="1279.848" height="851.905"/>
	<rect x="1180.448" y="562.374" width="1280" height="60"/>
	<g id="Diensten_28_">
		<g>
			<text transform="matrix(1 0 0 1 1267.3662 467.8105)"><tspan x="0" y="0" fill="#FFFFFF" font-family="'ProximaNova-Regular'" font-size="20">Vennewatersweg 2b</tspan><tspan x="0" y="24" fill="#FFFFFF" font-family="'ProximaNova-Regular'" font-size="20">1852 PT Heiloo Nederland</tspan></text>
		</g>
	</g>
	<g id="Diensten_27_">
		<g>
			<text transform="matrix(1 0 0 1 1552.0977 467.8105)"><tspan x="0" y="0" fill="#FFFFFF" font-family="'ProximaNova-Regular'" font-size="20">+31 88 4720180</tspan><tspan x="0" y="24" fill="#FFFFFF" font-family="'ProximaNova-Regular'" font-size="20">info@orangenano.com</tspan></text>
		</g>
	</g>
	<g id="Diensten_25_">
		<g>
			<text transform="matrix(1 0 0 1 2025.4019 418.6406)" fill="#FFFFFF" font-family="'ProximaNova-Semibold'" font-size="15">Volg ons:</text>
		</g>
	</g>
	<rect x="2025.402" y="452.863" fill="#FFFFFF" width="355" height="39.02"/>
	<g id="Diensten_19_">
		<text transform="matrix(1 0 0 1 2045.4146 478.376)" fill="#333333" font-family="'ProximaNova-Regular'" font-size="20">Nieuwsbrief</text>
	</g>
	<g>
		<circle fill="#FFFFFF" cx="2175.402" cy="414.612" r="15"/>
		<path fill="#333333" d="M2183.037,415.423c-0.163,0.869-0.662,2.19-2.114,3.643c-2.528,2.53-6.159,3.082-7.453,3.082
			c-1.291,0-5.476-0.191-8.364-4.147c0,0,3.787,3.385,7.59-0.189c-1.797,0.219-1.912-1.393-0.671-1.597
			c-1.824-0.076-2.13-0.684-2.357-1.216c-0.228-0.533,0.59-0.554,1.236-0.627c-1.246-0.434-2.266-1.203-2.149-2.003
			c0.076-0.313,1.14-0.034,1.066-0.262c-0.078-0.229-1.979-1.063-1.6-2.585c1.712,0.875,4.603,1.369,6.751,3.632
			c0.664-1.884,1.765-4.325,2.948-4.847c1.179-0.525,2.165-0.418,2.434,0.112c0.265,0.533-1.636,0.953-1.636,0.953
			c2.254-0.218,3.831,1.823,4.263,3.739c1.024,0.602,2.355,0.025,2.355,0.025s-0.288,1.026-2.018,1.176
			c-0.227,0.078,0.952,0.307,2.169,0.173C2184.854,415.327,2183.676,415.434,2183.037,415.423z"/>
	</g>
	<g>
		<circle fill="#FFFFFF" cx="2135.402" cy="414.612" r="15"/>
		<g id="facebook_3_">
			<path id="facebook_4_" fill="#333333" d="M2139.53,429.877v-11.208h3.364v-3.362h-3.364l0.007-1.873
				c0-1.011,0.338-1.487,1.788-1.487h1.57v-4.483h-3.364c-3.723,0-4.483,1.326-4.483,4.483v3.36h-2.241v3.362h2.241v11.208H2139.53z
				"/>
		</g>
	</g>
	<g>
		<path fill="#FFFFFF" d="M1283.212,391.949c8.401,0,15.889,6.135,15.889,16.106c0,9.926-7.488,16.062-15.889,16.062
			c-8.358,0-15.846-6.136-15.846-16.062C1267.366,398.084,1274.854,391.949,1283.212,391.949z M1283.212,418.284
			c4.788,0,9.666-3.308,9.666-10.273c0-6.963-4.878-10.274-9.666-10.274c-4.745,0-9.62,3.311-9.62,10.274
			C1273.593,414.977,1278.468,418.284,1283.212,418.284z"/>
		<path fill="#FFFFFF" d="M1315.427,407.792c-0.652-0.131-1.219-0.172-1.74-0.172c-2.962,0-5.53,1.437-5.53,6.051v9.795h-5.791
			v-21.419h5.618v3.178c1.307-2.83,4.265-3.351,6.094-3.351c0.479,0,0.916,0.043,1.349,0.086V407.792z"/>
		<path fill="#FFFFFF" d="M1322.864,411.146l5.267-0.783c1.219-0.176,1.61-0.785,1.61-1.524c0-1.522-1.173-2.786-3.611-2.786
			c-2.525,0-3.92,1.608-4.092,3.482l-5.139-1.087c0.348-3.354,3.44-7.052,9.186-7.052c6.791,0,9.316,3.83,9.316,8.139v10.535
			c0,1.132,0.13,2.656,0.261,3.396h-5.309c-0.133-0.566-0.218-1.743-0.218-2.568c-1.088,1.698-3.135,3.178-6.312,3.178
			c-4.572,0-7.357-3.092-7.357-6.443C1316.465,413.801,1319.293,411.667,1322.864,411.146z M1329.741,414.802v-0.958l-4.83,0.742
			c-1.482,0.216-2.655,1.043-2.655,2.699c0,1.262,0.912,2.479,2.786,2.479C1327.479,419.764,1329.741,418.592,1329.741,414.802z"/>
		<path fill="#FFFFFF" d="M1345.108,423.466h-5.788v-21.419h5.615v2.656c1.307-2.219,3.874-3.222,6.182-3.222
			c5.312,0,7.749,3.789,7.749,8.488v13.498h-5.79v-12.494c0-2.395-1.174-4.265-3.96-4.265c-2.525,0-4.008,1.958-4.008,4.438V423.466
			z"/>
		<path fill="#FFFFFF" d="M1366.654,423.248c0.391,2.349,2.265,4.046,5.008,4.046c3.656,0,5.703-1.827,5.703-5.963v-1.568
			c-0.873,1.395-2.874,2.745-5.966,2.745c-5.702,0-9.968-4.396-9.968-10.405c0-5.66,4.092-10.447,9.968-10.447
			c3.396,0,5.357,1.479,6.097,2.916v-2.525h5.572v19.111c0,5.875-3.18,11.232-11.232,11.232c-5.878,0-9.795-3.659-10.404-7.749
			L1366.654,423.248z M1377.45,412.104c0-3.308-2.262-5.396-5.048-5.396c-2.874,0-5.138,2.088-5.138,5.396
			c0,3.353,2.134,5.441,5.138,5.441C1375.361,417.544,1377.45,415.411,1377.45,412.104z"/>
		<path fill="#FFFFFF" d="M1406.553,417.327c-1.089,3.701-4.485,6.791-9.751,6.791c-5.878,0-11.059-4.222-11.059-11.447
			c0-6.837,5.051-11.275,10.535-11.275c6.618,0,10.581,4.223,10.581,11.099c0,0.827-0.088,1.698-0.088,1.786h-15.325
			c0.134,2.83,2.526,4.875,5.399,4.875c2.698,0,4.177-1.349,4.875-3.264L1406.553,417.327z M1401.156,410.317
			c-0.087-2.131-1.482-4.224-4.789-4.224c-3.004,0-4.657,2.266-4.787,4.224H1401.156z"/>
		<path fill="#FFFFFF" d="M1440.032,423.466l-14.019-21.898v21.898h-6.009v-30.866h7.488l12.842,20.418v-20.418h6.009v30.866
			H1440.032z"/>
		<path fill="#FFFFFF" d="M1456.382,411.146l5.27-0.783c1.219-0.176,1.609-0.785,1.609-1.524c0-1.522-1.176-2.786-3.614-2.786
			c-2.525,0-3.916,1.608-4.093,3.482l-5.136-1.087c0.349-3.354,3.439-7.052,9.187-7.052c6.791,0,9.316,3.83,9.316,8.139v10.535
			c0,1.132,0.13,2.656,0.261,3.396h-5.312c-0.13-0.566-0.218-1.743-0.218-2.568c-1.089,1.698-3.136,3.178-6.312,3.178
			c-4.572,0-7.358-3.092-7.358-6.443C1449.983,413.801,1452.814,411.667,1456.382,411.146z M1463.261,414.802v-0.958l-4.833,0.742
			c-1.479,0.216-2.655,1.043-2.655,2.699c0,1.262,0.915,2.479,2.787,2.479C1460.996,419.764,1463.261,418.592,1463.261,414.802z"/>
		<path fill="#FFFFFF" d="M1478.629,423.466h-5.791v-21.419h5.617v2.656c1.305-2.219,3.875-3.222,6.182-3.222
			c5.309,0,7.749,3.789,7.749,8.488v13.498h-5.791v-12.494c0-2.395-1.175-4.265-3.961-4.265c-2.526,0-4.005,1.958-4.005,4.438
			V423.466z"/>
		<path fill="#FFFFFF" d="M1517.454,412.755c0,6.576-4.834,11.362-11.234,11.362c-6.398,0-11.232-4.786-11.232-11.362
			c0-6.616,4.834-11.36,11.232-11.36C1512.62,401.396,1517.454,406.14,1517.454,412.755z M1511.663,412.755
			c0-4.048-2.61-6.094-5.443-6.094c-2.828,0-5.441,2.046-5.441,6.094c0,4.008,2.613,6.097,5.441,6.097
			C1509.052,418.852,1511.663,416.806,1511.663,412.755z"/>
		<path fill="#FFFFFF" d="M1523.084,398.312c2.588,0,4.694,2.117,4.694,4.708c0,2.572-2.106,4.693-4.694,4.693
			c-2.59,0-4.67-2.121-4.67-4.693C1518.415,400.429,1520.495,398.312,1523.084,398.312z M1523.084,406.708
			c2.016,0,3.592-1.623,3.592-3.688c0-2.082-1.576-3.706-3.592-3.706c-2.018,0-3.591,1.624-3.591,3.706
			C1519.494,405.085,1521.067,406.708,1523.084,406.708z M1522.969,403.753h-0.366v1.765h-1.208v-5.075h2.006
			c0.976,0,1.738,0.737,1.738,1.65c0,0.671-0.394,1.218-0.978,1.47l1.015,1.956h-1.332L1522.969,403.753z M1523.186,402.764
			c0.457,0,0.735-0.253,0.735-0.659c0-0.417-0.278-0.673-0.735-0.673h-0.583v1.333H1523.186z"/>
	</g>
	<g>
		<path fill="#FFFFFF" d="M567.998,391.949c8.401,0,15.889,6.135,15.889,16.106c0,9.926-7.488,16.062-15.889,16.062
			c-8.358,0-15.846-6.136-15.846-16.062C552.152,398.084,559.64,391.949,567.998,391.949z M567.998,418.284
			c4.788,0,9.666-3.308,9.666-10.273c0-6.963-4.878-10.274-9.666-10.274c-4.745,0-9.62,3.311-9.62,10.274
			C558.378,414.977,563.253,418.284,567.998,418.284z"/>
		<path fill="#FFFFFF" d="M600.213,407.792c-0.652-0.131-1.219-0.172-1.74-0.172c-2.962,0-5.53,1.437-5.53,6.051v9.795h-5.791
			v-21.419h5.618v3.178c1.307-2.83,4.265-3.351,6.094-3.351c0.479,0,0.916,0.043,1.349,0.086V407.792z"/>
		<path fill="#FFFFFF" d="M607.649,411.146l5.267-0.783c1.219-0.176,1.61-0.785,1.61-1.524c0-1.522-1.173-2.786-3.611-2.786
			c-2.525,0-3.92,1.608-4.092,3.482l-5.139-1.087c0.348-3.354,3.44-7.052,9.186-7.052c6.791,0,9.316,3.83,9.316,8.139v10.535
			c0,1.132,0.13,2.656,0.261,3.396h-5.309c-0.133-0.566-0.218-1.743-0.218-2.568c-1.088,1.698-3.135,3.178-6.312,3.178
			c-4.572,0-7.357-3.092-7.357-6.443C601.25,413.801,604.079,411.667,607.649,411.146z M614.526,414.802v-0.958l-4.83,0.742
			c-1.482,0.216-2.655,1.043-2.655,2.699c0,1.262,0.912,2.479,2.786,2.479C612.265,419.764,614.526,418.592,614.526,414.802z"/>
		<path fill="#FFFFFF" d="M629.894,423.466h-5.788v-21.419h5.615v2.656c1.307-2.219,3.874-3.222,6.182-3.222
			c5.312,0,7.749,3.789,7.749,8.488v13.498h-5.79v-12.494c0-2.395-1.174-4.265-3.96-4.265c-2.525,0-4.008,1.958-4.008,4.438V423.466
			z"/>
		<path fill="#FFFFFF" d="M651.44,423.248c0.391,2.349,2.265,4.046,5.008,4.046c3.656,0,5.703-1.827,5.703-5.963v-1.568
			c-0.873,1.395-2.874,2.745-5.966,2.745c-5.702,0-9.968-4.396-9.968-10.405c0-5.66,4.092-10.447,9.968-10.447
			c3.396,0,5.357,1.479,6.097,2.916v-2.525h5.572v19.111c0,5.875-3.18,11.232-11.232,11.232c-5.878,0-9.795-3.659-10.404-7.749
			L651.44,423.248z M662.236,412.104c0-3.308-2.262-5.396-5.048-5.396c-2.874,0-5.138,2.088-5.138,5.396
			c0,3.353,2.134,5.441,5.138,5.441C660.147,417.544,662.236,415.411,662.236,412.104z"/>
		<path fill="#FFFFFF" d="M691.339,417.327c-1.089,3.701-4.485,6.791-9.751,6.791c-5.878,0-11.059-4.222-11.059-11.447
			c0-6.837,5.051-11.275,10.535-11.275c6.618,0,10.581,4.223,10.581,11.099c0,0.827-0.088,1.698-0.088,1.786h-15.325
			c0.134,2.83,2.526,4.875,5.399,4.875c2.698,0,4.177-1.349,4.875-3.264L691.339,417.327z M685.941,410.317
			c-0.087-2.131-1.482-4.224-4.789-4.224c-3.004,0-4.657,2.266-4.787,4.224H685.941z"/>
		<path fill="#FFFFFF" d="M724.817,423.466l-14.019-21.898v21.898h-6.009v-30.866h7.488l12.842,20.418v-20.418h6.009v30.866H724.817
			z"/>
		<path fill="#FFFFFF" d="M741.168,411.146l5.27-0.783c1.219-0.176,1.609-0.785,1.609-1.524c0-1.522-1.176-2.786-3.614-2.786
			c-2.525,0-3.916,1.608-4.093,3.482l-5.136-1.087c0.349-3.354,3.439-7.052,9.187-7.052c6.791,0,9.316,3.83,9.316,8.139v10.535
			c0,1.132,0.13,2.656,0.261,3.396h-5.312c-0.13-0.566-0.218-1.743-0.218-2.568c-1.089,1.698-3.136,3.178-6.312,3.178
			c-4.572,0-7.358-3.092-7.358-6.443C734.769,413.801,737.6,411.667,741.168,411.146z M748.047,414.802v-0.958l-4.833,0.742
			c-1.479,0.216-2.655,1.043-2.655,2.699c0,1.262,0.915,2.479,2.787,2.479C745.782,419.764,748.047,418.592,748.047,414.802z"/>
		<path fill="#FFFFFF" d="M763.415,423.466h-5.791v-21.419h5.617v2.656c1.305-2.219,3.875-3.222,6.182-3.222
			c5.309,0,7.749,3.789,7.749,8.488v13.498h-5.791v-12.494c0-2.395-1.175-4.265-3.961-4.265c-2.526,0-4.005,1.958-4.005,4.438
			V423.466z"/>
		<path fill="#FFFFFF" d="M802.24,412.755c0,6.576-4.834,11.362-11.234,11.362c-6.398,0-11.232-4.786-11.232-11.362
			c0-6.616,4.834-11.36,11.232-11.36C797.405,401.396,802.24,406.14,802.24,412.755z M796.448,412.755
			c0-4.048-2.61-6.094-5.443-6.094c-2.828,0-5.441,2.046-5.441,6.094c0,4.008,2.613,6.097,5.441,6.097
			C793.838,418.852,796.448,416.806,796.448,412.755z"/>
		<path fill="#FFFFFF" d="M807.87,398.312c2.588,0,4.694,2.117,4.694,4.708c0,2.572-2.106,4.693-4.694,4.693
			c-2.59,0-4.67-2.121-4.67-4.693C803.2,400.429,805.28,398.312,807.87,398.312z M807.87,406.708c2.016,0,3.592-1.623,3.592-3.688
			c0-2.082-1.576-3.706-3.592-3.706c-2.018,0-3.591,1.624-3.591,3.706C804.279,405.085,805.853,406.708,807.87,406.708z
			 M807.755,403.753h-0.366v1.765h-1.208v-5.075h2.006c0.976,0,1.738,0.737,1.738,1.65c0,0.671-0.394,1.218-0.978,1.47l1.015,1.956
			h-1.332L807.755,403.753z M807.972,402.764c0.457,0,0.735-0.253,0.735-0.659c0-0.417-0.278-0.673-0.735-0.673h-0.583v1.333
			H807.972z"/>
	</g>
	<rect x="1550.232" y="-426.7" fill="none" width="731.708" height="551.103"/>
	<text transform="matrix(1 0 0 1 1550.2319 -402.689)"><tspan x="0" y="0" fill="#231F20" font-family="'ProximaNova-Semibold'" font-size="36">Producten</tspan><tspan x="0" y="74.4" fill="#3B3A3C" font-family="'ProximaNova-Light'" font-size="26">anotechnologie stelt ons in staat om stoffen op moleculair niveau </tspan><tspan x="0" y="105.6" fill="#3B3A3C" font-family="'ProximaNova-Light'" font-size="26">te bewerken. Dit maakt het mogelijk om materialen bij</tspan><tspan x="0" y="160.8" fill="#3B3A3C" font-family="'ProximaNova-Regular'" font-size="20">Coatingproducten vormen één van de toepassingsgebieden van de </tspan><tspan x="0" y="184.8" fill="#3B3A3C" font-family="'ProximaNova-Regular'" font-size="20">Nanotechnologie. Met Nanocoatings kunnen materialen worden voorzien </tspan><tspan x="0" y="208.8" fill="#3B3A3C" font-family="'ProximaNova-Regular'" font-size="20">van een zeer dunne en onzichtbare beschermlaag die de ondergrond beschermt </tspan><tspan x="0" y="232.8" fill="#3B3A3C" font-family="'ProximaNova-Regular'" font-size="20">tegen invloeden van buitenaf  zoals het weer en chemicaliën.</tspan><tspan x="0" y="280.8" fill="#3B3A3C" font-family="'ProximaNova-Regular'" font-size="20">Nanocoatings besparen kosten. Enerzijds omdat de levensduur van het gecoate </tspan><tspan x="0" y="304.8" fill="#3B3A3C" font-family="'ProximaNova-Regular'" font-size="20">object met jaren wordt verlengd anderzijds omdat het  onderhoud ervan minder </tspan><tspan x="0" y="328.8" fill="#3B3A3C" font-family="'ProximaNova-Regular'" font-size="20">vaak hoeft plaats te vinden en tegelijkertijd eenvoudiger wordt. </tspan></text>
	<rect x="1265.917" y="151.335" fill="none" width="259.485" height="116.374"/>
	<text transform="matrix(1 0 0 1 1295.7808 164.6753)"><tspan x="0" y="0" fill="#3B3A3C" font-family="'ProximaNova-Bold'" font-size="20">Verlengen levensduur</tspan><tspan x="41.599" y="24" fill="#3B3A3C" font-family="'ProximaNova-Bold'" font-size="20">van objecten</tspan></text>
	<rect x="1550.232" y="151.335" fill="none" width="264.442" height="116.374"/>
	<text transform="matrix(1 0 0 1 1650.8735 164.6753)"><tspan x="0" y="0" fill="#3B3A3C" font-family="'ProximaNova-Bold'" font-size="20">Kosten </tspan><tspan x="-10.76" y="24" fill="#3B3A3C" font-family="'ProximaNova-Bold'" font-size="20">besparen</tspan></text>
	<rect x="1832.194" y="151.335" fill="none" width="263.208" height="116.374"/>
	<text transform="matrix(1 0 0 1 1903.8286 164.6753)"><tspan x="0" y="0" fill="#3B3A3C" font-family="'ProximaNova-Bold'" font-size="20">Grondstoffen </tspan><tspan x="29.02" y="24" fill="#3B3A3C" font-family="'ProximaNova-Bold'" font-size="20">sparen</tspan></text>
	<rect x="2120.659" y="151.335" fill="none" width="262.062" height="116.374"/>
	<text transform="matrix(1 0 0 1 2188.0513 164.6753)"><tspan x="0" y="0" fill="#3B3A3C" font-family="'ProximaNova-Bold'" font-size="20">Minimaliseren </tspan><tspan x="-5.47" y="24" fill="#3B3A3C" font-family="'ProximaNova-Bold'" font-size="20">milieubelasting</tspan></text>
	<text transform="matrix(1 0 0 1 1263.9194 -402.3569)" font-family="'ProximaNova-Semibold'" font-size="15">Concept - 3 - Producten</text>
	<text transform="matrix(1 0 0 1 1263.9194 -721.731)" font-family="'ProximaNova-Semibold'" font-size="15">Home - 2 - Ons Concept</text>
	<rect x="1550.402" y="-744.896" fill="none" width="735" height="173.086"/>
	<text transform="matrix(1 0 0 1 1550.4019 -720.8843)"><tspan x="0" y="0" fill="#231F20" font-family="'ProximaNova-Semibold'" font-size="36">Orange Nanotech</tspan><tspan x="0" y="67.2" fill="#3B3A3C" font-family="'ProximaNova-Regular'" font-size="20">Geld en grondstoffen zijn schaars en het milieu staat onder druk. Wij bieden </tspan><tspan x="0" y="91.2" fill="#3B3A3C" font-family="'ProximaNova-Regular'" font-size="20">oplossingen die de levensduur van kapitaalgoederen verlengen en het gebruik van </tspan><tspan x="0" y="115.2" fill="#3B3A3C" font-family="'ProximaNova-Regular'" font-size="20">grondstoffen verlagen om zo het milieu en kosten te sparen.</tspan></text>
	<rect x="1268.277" y="-1143.72" fill="none" width="1114.444" height="52.709"/>
	<text transform="matrix(1 0 0 1 1609.3228 -1095.6968)" fill="#FFFFFF" font-family="'ProximaNova-Semibold'" font-size="72">Orange Nano</text>
	<path fill="none" stroke="#414042" stroke-miterlimit="10" d="M1180.448-1369.594"/>
	<path fill="none" stroke="#414042" stroke-miterlimit="10" d="M2463.251-1369.594"/>
	<polyline fill="none" stroke="#FFFFFF" stroke-width="2" stroke-miterlimit="10" points="1280.465,-1105.137 1268.277,-1117.324 
		1280.465,-1129.512 	"/>
	<polyline fill="none" stroke="#FFFFFF" stroke-width="2" stroke-miterlimit="10" points="2368.213,-1105.137 2380.402,-1117.324 
		2368.213,-1129.512 	"/>
	<rect x="1180.448" y="-1429.594" fill="#333333" width="1280" height="60"/>
	<g id="Over_Ons_18_">
		<g>
			<text transform="matrix(1 0 0 1 2342.3833 -1394.4233)" fill="#FFFFFF" font-family="'ProximaNova-Semibold'" font-size="15">Login</text>
		</g>
	</g>
	<g id="Diensten_15_">
		<g>
			<text transform="matrix(1 0 0 1 1615.4556 -1394.4233)" fill="#FFFFFF" font-family="'ProximaNova-Regular'" font-size="20">Concept</text>
		</g>
	</g>
	<g id="Over_Ons_17_">
		<g>
			<text transform="matrix(1 0 0 1 1876.5747 -1394.4233)" fill="#FFFFFF" font-family="'ProximaNova-Regular'" font-size="20">Over Ons</text>
		</g>
	</g>
	<g id="Over_Ons_15_">
		<g>
			<text transform="matrix(1 0 0 1 1984.8711 -1394.4233)" fill="#FFFFFF" font-family="'ProximaNova-Regular'" font-size="20">Contact</text>
		</g>
	</g>
	<g id="Over_Ons_8_">
		<g>
			<text transform="matrix(1 0 0 1 1709.3901 -1394.4233)" fill="#FFFFFF" font-family="'ProximaNova-Regular'" font-size="20">Nanotechnologie</text>
		</g>
	</g>
	<g id="Over_Ons_1_">
		<g>
			<text transform="matrix(1 0 0 1 1360.4019 -1394.4233)" fill="#FFFFFF" font-family="'ProximaNova-Regular'" font-size="20">Toepassingen</text>
		</g>
	</g>
	<g id="Contact_2_">
		<g>
			<text transform="matrix(1 0 0 1 1503.229 -1394.4233)" fill="#FFFFFF" font-family="'ProximaNova-Regular'" font-size="20">Producten</text>
		</g>
	</g>
	<g>
		<polygon fill="#FFFFFF" points="1289.043,-1399.044 1283.63,-1407.649 1280.475,-1407.649 1280.475,-1394.642 1283.008,-1394.642 
			1283.008,-1403.87 1288.914,-1394.642 1291.574,-1394.642 1291.574,-1407.649 1289.043,-1407.649 		"/>
		<path fill="#FFFFFF" d="M1286.025-1419.896c-10.339,0-18.75,8.411-18.75,18.75c0,10.339,8.411,18.75,18.75,18.75
			c10.34,0,18.75-8.411,18.75-18.75C1304.775-1411.485,1296.366-1419.896,1286.025-1419.896z M1286.025-1387.13
			c-7.727,0-14.014-6.289-14.014-14.016c0-7.729,6.287-14.012,14.014-14.012s14.014,6.283,14.014,14.012
			C1300.04-1393.419,1293.752-1387.13,1286.025-1387.13z"/>
	</g>
	<g>
		<polygon fill="#FFFFFF" points="793.479,-1399.044 788.066,-1407.649 784.911,-1407.649 784.911,-1394.642 787.444,-1394.642 
			787.444,-1403.87 793.35,-1394.642 796.01,-1394.642 796.01,-1407.649 793.479,-1407.649 		"/>
		<path fill="#FFFFFF" d="M790.461-1419.896c-10.339,0-18.75,8.411-18.75,18.75c0,10.339,8.411,18.75,18.75,18.75
			c10.34,0,18.75-8.411,18.75-18.75C809.211-1411.485,800.802-1419.896,790.461-1419.896z M790.461-1387.13
			c-7.727,0-14.014-6.289-14.014-14.016c0-7.729,6.287-14.012,14.014-14.012s14.014,6.283,14.014,14.012
			C804.476-1393.419,798.188-1387.13,790.461-1387.13z"/>
	</g>
	<linearGradient id="SVGID_1_" gradientUnits="userSpaceOnUse" x1="1351.4028" y1="-561.2212" x2="1351.4028" y2="-496.2212">
		<stop  offset="0" style="stop-color:#231F20"/>
		<stop  offset="0.5" style="stop-color:#414042"/>
	</linearGradient>
	<circle fill="url(#SVGID_1_)" stroke="#231F20" stroke-miterlimit="10" cx="1351.403" cy="-528.72" r="32.5"/>
	<polyline fill="none" stroke="#FFFFFF" stroke-width="2" stroke-miterlimit="10" points="1363.59,-531.154 1351.404,-518.965 
		1339.215,-531.154 	"/>
	<g id="Diensten_13_">
		<g>
			<text transform="matrix(1 0 0 1 1267.3662 599.2988)" fill="#FFFFFF" font-family="'ProximaNova-Semibold'" font-size="15">2014 Orange Nanotech B.V.</text>
		</g>
	</g>
	<g id="Diensten_18_">
		<g>
			<text transform="matrix(1 0 0 1 2232.3872 599.2988)" fill="#FFFFFF" font-family="'ProximaNova-Regular'" font-size="20">Back to top</text>
		</g>
	</g>
	<line fill="none" stroke="#F1F2F2" stroke-miterlimit="10" x1="1180.448" y1="226.19" x2="2460.296" y2="226.19"/>
	<rect x="2285.23" y="452.863" fill="#F89C1C" width="95.172" height="39.02"/>
	<g id="Diensten_1_">
		<g>
			<text transform="matrix(1 0 0 1 2304.397 477.3755)" fill="#FFFFFF" font-family="'ProximaNova-Semibold'" font-size="15">Sign up</text>
		</g>
	</g>
	<g>
		<circle fill="none" stroke="#FFFFFF" stroke-width="2" stroke-miterlimit="10" cx="2365.401" cy="592.498" r="15"/>
		<polyline fill="none" stroke="#FFFFFF" stroke-width="2" stroke-miterlimit="10" points="2371.026,594.622 2365.402,588.996 
			2359.776,594.622 		"/>
	</g>
	<polyline fill="none" stroke="#FFFFFF" stroke-width="2" stroke-miterlimit="10" points="2362.59,477.998 2368.216,472.374 
		2362.59,466.748 	"/>
	<linearGradient id="SVGID_2_" gradientUnits="userSpaceOnUse" x1="1820.5337" y1="342.3735" x2="1820.5337" y2="322.3735">
		<stop  offset="0.25" style="stop-color:#333333;stop-opacity:0.75"/>
		<stop  offset="1" style="stop-color:#231F20"/>
	</linearGradient>
	<rect x="1180.61" y="322.374" fill="url(#SVGID_2_)" width="1279.848" height="20"/>
	<g>
		<circle fill="#FFFFFF" cx="1794.675" cy="-863.53" r="4.999"/>
		<g>
			<path fill="#FFFFFF" d="M1819.674-859.03c-1.202,0-2.332-0.468-3.182-1.318c-0.85-0.85-1.318-1.98-1.318-3.182
				s0.468-2.332,1.318-3.182c0.85-0.851,1.979-1.318,3.182-1.318s2.332,0.467,3.182,1.318c0.85,0.85,1.318,1.98,1.318,3.182
				c0,1.202-0.468,2.332-1.318,3.182C1822.007-859.499,1820.876-859.03,1819.674-859.03z"/>
			<path fill="#FFFFFF" d="M1819.675-867.53c1.068,0,2.073,0.416,2.829,1.171c0.755,0.755,1.171,1.76,1.171,2.829
				c0,1.068-0.416,2.072-1.172,2.828c-0.755,0.756-1.76,1.172-2.829,1.172c-1.068,0-2.073-0.416-2.828-1.171
				c-0.755-0.755-1.171-1.76-1.171-2.829c0-1.068,0.416-2.073,1.172-2.829C1817.602-867.114,1818.606-867.53,1819.675-867.53
				 M1819.675-868.53c-1.28,0-2.559,0.489-3.535,1.465c-1.953,1.952-1.953,5.118,0,7.071c0.977,0.976,2.256,1.464,3.535,1.464
				c1.28,0,2.56-0.488,3.536-1.465c1.953-1.953,1.953-5.119,0-7.07C1822.234-868.041,1820.955-868.53,1819.675-868.53
				L1819.675-868.53z"/>
		</g>
		<g>
			<path fill="#FFFFFF" d="M1843.836-859.03c-1.202,0-2.332-0.468-3.182-1.318c-0.85-0.85-1.318-1.98-1.318-3.182
				s0.468-2.332,1.318-3.182c0.85-0.851,1.979-1.318,3.182-1.318s2.332,0.467,3.182,1.318c0.85,0.85,1.318,1.98,1.318,3.182
				c0,1.202-0.468,2.332-1.318,3.182C1846.169-859.499,1845.039-859.03,1843.836-859.03z"/>
			<path fill="#FFFFFF" d="M1843.837-867.53c1.068,0,2.073,0.416,2.829,1.171c0.755,0.755,1.171,1.76,1.171,2.829
				c0,1.068-0.416,2.072-1.172,2.828c-0.755,0.756-1.76,1.172-2.829,1.172c-1.068,0-2.073-0.416-2.828-1.171
				c-0.755-0.755-1.171-1.76-1.171-2.829c0-1.068,0.416-2.073,1.172-2.829C1841.764-867.114,1842.769-867.53,1843.837-867.53
				 M1843.837-868.53c-1.28,0-2.559,0.489-3.535,1.465c-1.953,1.952-1.953,5.118,0,7.071c0.977,0.976,2.256,1.464,3.535,1.464
				c1.28,0,2.56-0.488,3.536-1.465c1.953-1.953,1.953-5.119,0-7.07C1846.396-868.041,1845.117-868.53,1843.837-868.53
				L1843.837-868.53z"/>
		</g>
	</g>
	<g>
		<g>
			<path fill="#414042" d="M1794.674-859.03c-1.202,0-2.332-0.468-3.182-1.318c-0.85-0.85-1.318-1.98-1.318-3.182
				s0.468-2.332,1.318-3.182c0.85-0.851,1.979-1.318,3.182-1.318s2.332,0.467,3.182,1.318c0.85,0.85,1.318,1.98,1.318,3.182
				c0,1.202-0.468,2.332-1.318,3.182C1797.007-859.499,1795.876-859.03,1794.674-859.03z"/>
			<path fill="#FFFFFF" d="M1794.675-867.53c1.068,0,2.073,0.416,2.829,1.171c0.755,0.755,1.171,1.76,1.171,2.829
				c0,1.068-0.416,2.072-1.172,2.828c-0.755,0.756-1.76,1.172-2.829,1.172c-1.068,0-2.073-0.416-2.828-1.171
				c-0.755-0.755-1.171-1.76-1.171-2.829c0-1.068,0.416-2.073,1.172-2.829C1792.602-867.114,1793.606-867.53,1794.675-867.53
				 M1794.675-868.53c-1.28,0-2.559,0.489-3.535,1.465c-1.953,1.952-1.953,5.118,0,7.071c0.977,0.976,2.256,1.464,3.535,1.464
				c1.28,0,2.56-0.488,3.536-1.465c1.953-1.953,1.953-5.119,0-7.07C1797.234-868.041,1795.955-868.53,1794.675-868.53
				L1794.675-868.53z"/>
		</g>
	</g>
	<g>
		<g>
			<g>
				<g>
					<path fill="#231F20" d="M1680.737,2.999c31.981,0,58,26.019,58,58s-26.019,58-58,58c-31.981,0-58-26.019-58-58
						S1648.756,2.999,1680.737,2.999 M1680.737,0.999c-33.087,0-60,26.919-60,60c0,33.086,26.913,60,60,60c33.088,0,60-26.913,60-60
						C1740.737,27.917,1713.825,0.999,1680.737,0.999L1680.737,0.999z"/>
				</g>
			</g>
		</g>
		<g>
			<path fill="none" stroke="#231F20" stroke-width="2" stroke-miterlimit="10" d="M1699.665,43.829
				c-4.729-5.278-11.569-8.624-19.187-8.624c-14.232,0-25.802,11.569-25.802,25.793c0,14.228,11.57,25.796,25.802,25.796
				c7.199,0,13.705-2.969,18.396-7.744"/>
		</g>
		<g>
			
				<line fill="none" stroke="#231F20" stroke-width="2" stroke-miterlimit="10" x1="1650.73" y1="55.137" x2="1686.152" y2="55.137"/>
			
				<line fill="none" stroke="#231F20" stroke-width="2" stroke-miterlimit="10" x1="1650.73" y1="66.863" x2="1686.152" y2="66.863"/>
		</g>
	</g>
	<g>
		<g>
			<g>
				<g>
					<path fill="#231F20" d="M228.65,2.999c31.981,0,58,26.019,58,58s-26.019,58-58,58c-31.981,0-58-26.019-58-58
						S196.669,2.999,228.65,2.999 M228.65,0.999c-33.087,0-60,26.919-60,60c0,33.086,26.913,60,60,60c33.088,0,60-26.913,60-60
						C288.65,27.917,261.738,0.999,228.65,0.999L228.65,0.999z"/>
				</g>
			</g>
		</g>
		<g>
			<path fill="none" stroke="#231F20" stroke-width="2" stroke-miterlimit="10" d="M247.578,43.829
				c-4.729-5.278-11.569-8.624-19.187-8.624c-14.232,0-25.802,11.569-25.802,25.793c0,14.228,11.57,25.796,25.802,25.796
				c7.199,0,13.705-2.969,18.396-7.744"/>
		</g>
		<g>
			
				<line fill="none" stroke="#231F20" stroke-width="2" stroke-miterlimit="10" x1="198.644" y1="55.137" x2="234.065" y2="55.137"/>
			
				<line fill="none" stroke="#231F20" stroke-width="2" stroke-miterlimit="10" x1="198.644" y1="66.863" x2="234.065" y2="66.863"/>
		</g>
	</g>
	<g>
		<g>
			<g>
				<g>
					<path fill="#231F20" d="M1395.401,3c31.981,0,58,26.019,58,58s-26.019,58-58,58c-31.981,0-58-26.019-58-58
						S1363.42,3,1395.401,3 M1395.401,1c-33.087,0-60,26.919-60,60c0,33.08,26.913,60,60,60c33.088,0,60-26.919,60-60
						C1455.402,27.919,1428.489,1,1395.401,1L1395.401,1z"/>
				</g>
			</g>
		</g>
		<path fill="none" stroke="#231F20" stroke-width="2" stroke-miterlimit="10" d="M1359.181,69.303
			c3.786,16.514,18.57,28.875,36.221,28.875c17.651,0,32.435-12.362,36.222-28.875"/>
		<path fill="none" stroke="#231F20" stroke-width="2" stroke-miterlimit="10" d="M1431.629,52.703
			c-3.779-16.528-18.569-28.902-36.228-28.902c-17.657,0-32.448,12.375-36.227,28.902"/>
		<g>
			<polygon fill="#F8F9F9" points="1357.472,42.703 1367.984,48.052 1358.094,54.486 			"/>
			<path fill="#231F20" d="M1358.562,44.38l7.425,3.778l-6.986,4.544L1358.562,44.38 M1356.382,41.027l0.183,3.458l0.439,8.324
				l0.183,3.46l2.905-1.89l6.986-4.545l2.903-1.888l-3.087-1.571l-7.425-3.778L1356.382,41.027L1356.382,41.027z"/>
		</g>
		<g>
			<polygon fill="#F8F9F9" points="1422.618,73.973 1432.498,67.519 1433.156,79.292 			"/>
			<path fill="#231F20" d="M1431.596,69.303l0.465,8.317l-7.444-3.758L1431.596,69.303 M1433.4,65.736l-2.897,1.893l-6.979,4.559
				l-2.904,1.896l3.096,1.563l7.444,3.758l3.092,1.562l-0.193-3.458l-0.465-8.317L1433.4,65.736L1433.4,65.736z"/>
		</g>
	</g>
	<g>
		<g>
			<g>
				<g>
					<path fill="#231F20" d="M61,3c31.981,0,58,26.019,58,58s-26.019,58-58,58C29.019,119,3,92.981,3,61S29.019,3,61,3 M61,1
						C27.913,1,1,27.919,1,61c0,33.08,26.913,60,60,60c33.088,0,60-26.919,60-60C121,27.919,94.087,1,61,1L61,1z"/>
				</g>
			</g>
		</g>
		<path fill="none" stroke="#231F20" stroke-width="2" stroke-miterlimit="10" d="M24.779,69.303
			C28.565,85.816,43.349,98.178,61,98.178c17.651,0,32.435-12.362,36.222-28.875"/>
		<path fill="none" stroke="#231F20" stroke-width="2" stroke-miterlimit="10" d="M97.227,52.703
			C93.448,36.175,78.658,23.801,61,23.801c-17.657,0-32.448,12.375-36.227,28.902"/>
		<g>
			<polygon fill="#F8F9F9" points="23.07,42.703 33.582,48.052 23.692,54.486 			"/>
			<path fill="#231F20" d="M24.16,44.38l7.425,3.778L24.6,52.703L24.16,44.38 M21.98,41.027l0.183,3.458l0.439,8.324l0.183,3.46
				l2.905-1.89l6.986-4.545l2.903-1.888l-3.087-1.571l-7.425-3.778L21.98,41.027L21.98,41.027z"/>
		</g>
		<g>
			<polygon fill="#F8F9F9" points="88.216,73.973 98.096,67.519 98.754,79.292 			"/>
			<path fill="#231F20" d="M97.194,69.303l0.465,8.317l-7.444-3.758L97.194,69.303 M98.998,65.736l-2.897,1.893l-6.979,4.559
				l-2.904,1.896l3.096,1.563l7.444,3.758l3.092,1.562l-0.193-3.458l-0.465-8.317L98.998,65.736L98.998,65.736z"/>
		</g>
	</g>
	<g>
		<g>
			<g>
				<g>
					<path fill="#231F20" d="M1965.537,3c31.981,0,58,26.019,58,58c0,31.98-26.019,57.999-58,57.999c-31.981,0-58-26.018-58-57.999
						C1907.538,29.018,1933.556,3,1965.537,3 M1965.537,1c-33.087,0-60,26.919-60,60c0,33.08,26.913,59.999,60,59.999
						c33.088,0,60-26.918,60-59.999C2025.538,27.918,1998.625,1,1965.537,1L1965.537,1z"/>
				</g>
			</g>
		</g>
		<polygon fill="none" stroke="#231F20" stroke-width="2" stroke-linejoin="round" stroke-miterlimit="10" points="2005.437,48.144 
			1965.537,98.19 1926.03,48.144 		"/>
		<polygon fill="none" stroke="#231F20" stroke-width="2" stroke-linejoin="round" stroke-miterlimit="10" points="2005.437,48.144 
			1926.03,48.144 1944.333,23.807 1987.181,23.807 		"/>
		<polyline fill="none" stroke="#231F20" stroke-width="2" stroke-linejoin="round" stroke-miterlimit="10" points="1965.537,98.19 
			1948.838,48.144 1957.188,23.807 		"/>
		<polyline fill="none" stroke="#231F20" stroke-width="2" stroke-linejoin="round" stroke-miterlimit="10" points="1965.737,98.19 
			1982.437,48.144 1974.086,23.807 		"/>
	</g>
	<g>
		<g>
			<g>
				<g>
					<path fill="#231F20" d="M414.21,3c31.981,0,58,26.019,58,58c0,31.98-26.019,57.999-58,57.999c-31.981,0-58-26.018-58-57.999
						C356.21,29.018,382.229,3,414.21,3 M414.21,1c-33.087,0-60,26.919-60,60c0,33.08,26.913,59.999,60,59.999
						c33.088,0,60-26.918,60-59.999C474.21,27.918,447.298,1,414.21,1L414.21,1z"/>
				</g>
			</g>
		</g>
		<polygon fill="none" stroke="#231F20" stroke-width="2" stroke-linejoin="round" stroke-miterlimit="10" points="454.11,48.144 
			414.21,98.19 374.703,48.144 		"/>
		<polygon fill="none" stroke="#231F20" stroke-width="2" stroke-linejoin="round" stroke-miterlimit="10" points="454.11,48.144 
			374.703,48.144 393.006,23.807 435.854,23.807 		"/>
		<polyline fill="none" stroke="#231F20" stroke-width="2" stroke-linejoin="round" stroke-miterlimit="10" points="414.21,98.19 
			397.511,48.144 405.861,23.807 		"/>
		<polyline fill="none" stroke="#231F20" stroke-width="2" stroke-linejoin="round" stroke-miterlimit="10" points="414.41,98.19 
			431.109,48.144 422.759,23.807 		"/>
	</g>
	<g>
		<g>
			<g>
				<g>
					<path fill="#231F20" d="M2250.401,2.999c31.981,0,58,26.019,58,58c0,31.981-26.019,58-58,58c-31.981,0-58-26.019-58-58
						C2192.402,29.017,2218.42,2.999,2250.401,2.999 M2250.401,0.999c-33.08,0-60,26.913-60,60c0,33.08,26.919,60,60,60
						c33.088,0,60-26.919,60-60C2310.402,27.912,2283.489,0.999,2250.401,0.999L2250.401,0.999z"/>
				</g>
			</g>
		</g>
		<g>
			<g>
				<path fill="none" stroke="#231F20" stroke-width="2" stroke-miterlimit="10" d="M2250.401,23.807
					c20.513,0,37.193,16.68,37.193,37.191c0,20.505-16.68,37.192-37.193,37.192c-20.505,0-37.192-16.687-37.192-37.192
					C2213.209,40.487,2229.896,23.807,2250.401,23.807"/>
			</g>
		</g>
		<g>
			<g>
				<path fill="none" stroke="#231F20" stroke-width="2" stroke-miterlimit="10" d="M2250.401,23.807
					c8.205,0,14.876,16.68,14.876,37.191c0,20.505-6.672,37.192-14.876,37.192c-8.203,0-14.876-16.687-14.876-37.192
					C2235.525,40.487,2242.198,23.807,2250.401,23.807"/>
			</g>
		</g>
		
			<line fill="none" stroke="#231F20" stroke-width="2" stroke-miterlimit="10" x1="2216.19" y1="48.597" x2="2284.885" y2="48.597"/>
		
			<line fill="none" stroke="#231F20" stroke-width="2" stroke-miterlimit="10" x1="2216.19" y1="73.394" x2="2284.885" y2="73.394"/>
	</g>
	<g>
		<g>
			<g>
				<g>
					<path fill="#231F20" d="M583.887,2.999c31.981,0,58,26.019,58,58c0,31.981-26.019,58-58,58c-31.981,0-58-26.019-58-58
						C525.887,29.017,551.906,2.999,583.887,2.999 M583.887,0.999c-33.08,0-60,26.913-60,60c0,33.08,26.919,60,60,60
						c33.088,0,60-26.919,60-60C643.887,27.912,616.975,0.999,583.887,0.999L583.887,0.999z"/>
				</g>
			</g>
		</g>
		<g>
			<g>
				<path fill="none" stroke="#231F20" stroke-width="2" stroke-miterlimit="10" d="M583.887,23.807
					c20.513,0,37.193,16.68,37.193,37.191c0,20.505-16.68,37.192-37.193,37.192c-20.505,0-37.192-16.687-37.192-37.192
					C546.695,40.487,563.381,23.807,583.887,23.807"/>
			</g>
		</g>
		<g>
			<g>
				<path fill="none" stroke="#231F20" stroke-width="2" stroke-miterlimit="10" d="M583.887,23.807
					c8.205,0,14.876,16.68,14.876,37.191c0,20.505-6.672,37.192-14.876,37.192c-8.203,0-14.876-16.687-14.876-37.192
					C569.01,40.487,575.684,23.807,583.887,23.807"/>
			</g>
		</g>
		<line fill="none" stroke="#231F20" stroke-width="2" stroke-miterlimit="10" x1="549.675" y1="48.597" x2="618.371" y2="48.597"/>
		<line fill="none" stroke="#231F20" stroke-width="2" stroke-miterlimit="10" x1="549.675" y1="73.394" x2="618.371" y2="73.394"/>
	</g>
</g>
<g id="Icons" display="none">
	<rect x="1180.448" y="-56.516" display="inline" fill="#F8F9F9" width="1279.848" height="324.226"/>
	<rect x="1265.917" y="171.348" display="inline" fill="none" width="259.485" height="116.374"/>
	<text transform="matrix(1 0 0 1 1295.7808 184.688)" display="inline"><tspan x="0" y="0" fill="#3B3A3C" font-family="'ProximaNova-Bold'" font-size="20">Verlengen levensduur</tspan><tspan x="41.599" y="24" fill="#3B3A3C" font-family="'ProximaNova-Bold'" font-size="20">van objecten</tspan></text>
	<rect x="1550.232" y="171.348" display="inline" fill="none" width="264.442" height="116.374"/>
	<text transform="matrix(1 0 0 1 1650.8735 184.688)" display="inline"><tspan x="0" y="0" fill="#3B3A3C" font-family="'ProximaNova-Bold'" font-size="20">Kosten </tspan><tspan x="-10.76" y="24" fill="#3B3A3C" font-family="'ProximaNova-Bold'" font-size="20">besparen</tspan></text>
	<rect x="1832.194" y="171.348" display="inline" fill="none" width="263.208" height="116.374"/>
	<text transform="matrix(1 0 0 1 1903.8286 184.688)" display="inline"><tspan x="0" y="0" fill="#3B3A3C" font-family="'ProximaNova-Bold'" font-size="20">Grondstoffen </tspan><tspan x="29.02" y="24" fill="#3B3A3C" font-family="'ProximaNova-Bold'" font-size="20">sparen</tspan></text>
	<rect x="2120.659" y="171.348" display="inline" fill="none" width="262.062" height="116.374"/>
	<text transform="matrix(1 0 0 1 2188.0513 184.688)" display="inline"><tspan x="0" y="0" fill="#3B3A3C" font-family="'ProximaNova-Bold'" font-size="20">Minimaliseren </tspan><tspan x="-5.47" y="24" fill="#3B3A3C" font-family="'ProximaNova-Bold'" font-size="20">milieubelasting</tspan></text>
	
		<rect x="1620.738" y="0.998" transform="matrix(0.7071 -0.7071 0.7071 0.7071 449.1514 1206.3335)" display="inline" fill="#F89C1C" width="119.999" height="120"/>
	
		<rect x="1336.301" y="0.998" transform="matrix(0.7071 -0.7071 0.7071 0.7071 365.8407 1005.2054)" display="inline" fill="#F89C1C" width="119.999" height="120"/>
	
		<rect x="1905.738" y="0.998" transform="matrix(0.7071 -0.7071 0.7071 0.7071 532.6271 1407.8601)" display="inline" fill="#F89C1C" width="119.999" height="120"/>
	
		<rect x="2191.691" y="0.998" transform="matrix(0.7071 -0.7071 0.7071 0.7071 616.382 1610.0607)" display="inline" fill="#F89C1C" width="119.999" height="120"/>
	<g display="inline">
		<g>
			<g>
				<g>
					<path fill="#FFFFFF" d="M1680.737,17.999c23.71,0,43,19.29,43,43s-19.29,43-43,43s-43-19.29-43-43
						S1657.027,17.999,1680.737,17.999 M1680.737,15.999c-24.815,0-45,20.189-45,45c0,24.816,20.185,45,45,45s45-20.184,45-45
						C1725.737,36.188,1705.553,15.999,1680.737,15.999L1680.737,15.999z"/>
				</g>
			</g>
		</g>
		<g>
			<path fill="none" stroke="#FFFFFF" stroke-width="2" stroke-miterlimit="10" d="M1694.933,48.121
				c-3.547-3.958-8.677-6.468-14.39-6.468c-10.674,0-19.352,8.677-19.352,19.345c0,10.671,8.678,19.347,19.352,19.347
				c5.399,0,10.279-2.227,13.797-5.808"/>
		</g>
		<g>
			
				<line fill="none" stroke="#FFFFFF" stroke-width="2" stroke-miterlimit="10" x1="1658.232" y1="56.603" x2="1684.799" y2="56.603"/>
			
				<line fill="none" stroke="#FFFFFF" stroke-width="2" stroke-miterlimit="10" x1="1658.232" y1="65.396" x2="1684.799" y2="65.396"/>
		</g>
	</g>
	<g display="inline">
		<g>
			<g>
				<g>
					<path fill="#FFFFFF" d="M1395.401,18c23.71,0,43,19.29,43,43s-19.29,43-43,43c-23.71,0-43-19.29-43-43S1371.691,18,1395.401,18
						 M1395.401,16c-24.815,0-45,20.189-45,45c0,24.81,20.185,45,45,45c24.816,0,45-20.19,45-45
						C1440.402,36.189,1420.217,16,1395.401,16L1395.401,16z"/>
				</g>
			</g>
		</g>
		<path fill="none" stroke="#FFFFFF" stroke-width="2" stroke-miterlimit="10" d="M1368.236,67.227
			c2.84,12.385,13.928,21.656,27.166,21.656c13.239,0,24.326-9.271,27.167-21.656"/>
		<path fill="none" stroke="#FFFFFF" stroke-width="2" stroke-miterlimit="10" d="M1422.572,54.777
			c-2.834-12.396-13.927-21.677-27.171-21.677c-13.243,0-24.336,9.281-27.17,21.677"/>
		<g>
			<polygon fill="#F8F9F9" points="1366.682,46.858 1375.337,51.262 1367.194,56.56 			"/>
			<path fill="#FFFFFF" d="M1367.772,48.535l5.569,2.834l-5.239,3.408L1367.772,48.535 M1365.592,45.182l0.183,3.458l0.33,6.242
				l0.183,3.461l2.905-1.89l5.239-3.409l2.903-1.889l-3.087-1.57l-5.568-2.833L1365.592,45.182L1365.592,45.182z"/>
		</g>
		<g>
			<polygon fill="#F8F9F9" points="1415.314,70.757 1423.45,65.444 1423.992,75.137 			"/>
			<path fill="#FFFFFF" d="M1422.548,67.227l0.349,6.237l-5.583-2.819L1422.548,67.227 M1424.352,63.66l-2.897,1.893l-5.235,3.419
				l-2.904,1.896l3.096,1.563l5.583,2.818l3.091,1.562l-0.193-3.458l-0.349-6.238L1424.352,63.66L1424.352,63.66z"/>
		</g>
	</g>
	<g display="inline">
		<g>
			<g>
				<g>
					<path fill="#FFFFFF" d="M1965.401,18c23.71,0,43,19.29,43,43c0,23.709-19.29,42.999-43,42.999c-23.71,0-43-19.289-43-42.999
						C1922.402,37.29,1941.691,18,1965.401,18 M1965.401,16c-24.815,0-45,20.189-45,45c0,24.81,20.184,44.999,45,44.999
						c24.816,0,45-20.189,45-44.999C2010.402,36.188,1990.217,16,1965.401,16L1965.401,16z"/>
				</g>
			</g>
		</g>
		<polygon fill="none" stroke="#FFFFFF" stroke-width="2" stroke-linejoin="round" stroke-miterlimit="10" points="1995.326,51.358 
			1965.401,88.892 1935.771,51.358 		"/>
		<polygon fill="none" stroke="#FFFFFF" stroke-width="2" stroke-linejoin="round" stroke-miterlimit="10" points="1995.326,51.358 
			1935.771,51.358 1949.498,33.104 1981.634,33.104 		"/>
		<polyline fill="none" stroke="#FFFFFF" stroke-width="2" stroke-linejoin="round" stroke-miterlimit="10" points="
			1965.401,88.892 1952.877,51.358 1959.139,33.104 		"/>
		<polyline fill="none" stroke="#FFFFFF" stroke-width="2" stroke-linejoin="round" stroke-miterlimit="10" points="
			1965.551,88.892 1978.076,51.358 1971.813,33.104 		"/>
	</g>
	<g display="inline">
		<g>
			<g>
				<g>
					<path fill="#FFFFFF" d="M2251.689,17.999c23.71,0,43,19.29,43,43s-19.29,43-43,43c-23.71,0-43-19.29-43-43
						S2227.979,17.999,2251.689,17.999 M2251.689,15.999c-24.81,0-45,20.185-45,45c0,24.811,20.189,45,45,45
						c24.816,0,45-20.189,45-45C2296.69,36.183,2276.505,15.999,2251.689,15.999L2251.689,15.999z"/>
				</g>
			</g>
		</g>
		<g>
			<g>
				<path fill="none" stroke="#FFFFFF" stroke-width="2" stroke-miterlimit="10" d="M2251.689,33.104
					c15.385,0,27.895,12.51,27.895,27.894c0,15.379-12.51,27.894-27.895,27.894c-15.379,0-27.894-12.515-27.894-27.894
					C2223.796,45.615,2236.311,33.104,2251.689,33.104"/>
			</g>
		</g>
		<g>
			<g>
				<path fill="none" stroke="#FFFFFF" stroke-width="2" stroke-miterlimit="10" d="M2251.689,33.104
					c6.153,0,11.157,12.51,11.157,27.894c0,15.379-5.004,27.894-11.157,27.894c-6.152,0-11.157-12.515-11.157-27.894
					C2240.532,45.615,2245.537,33.104,2251.689,33.104"/>
			</g>
		</g>
		
			<line fill="none" stroke="#FFFFFF" stroke-width="2" stroke-miterlimit="10" x1="2226.031" y1="51.697" x2="2277.553" y2="51.697"/>
		
			<line fill="none" stroke="#FFFFFF" stroke-width="2" stroke-miterlimit="10" x1="2226.031" y1="70.294" x2="2277.553" y2="70.294"/>
	</g>
</g>
<g id="_x31_2_GRID__x2B__MARGIN">
</g>
</svg>
