<?xml version="1.0" encoding="utf-8"?>
<!-- Generator: Adobe Illustrator 16.0.0, SVG Export Plug-In . SVG Version: 6.00 Build 0)  -->
<!DOCTYPE svg PUBLIC "-//W3C//DTD SVG 1.1//EN" "http://www.w3.org/Graphics/SVG/1.1/DTD/svg11.dtd">
<svg version="1.1" xmlns="http://www.w3.org/2000/svg" xmlns:xlink="http://www.w3.org/1999/xlink" x="0px" y="0px" width="122px"
	 height="122px" viewBox="0 0 122 122" enable-background="new 0 0 122 122" xml:space="preserve">
<g id="background">
</g>
<g id="_x33__ONS_CONCEPT">
	<rect x="659.893" y="-1431.945" fill="#F7941E" width="1277.516" height="602.353"/>
	<text transform="matrix(1 0 0 1 -361.6499 324.4668)" font-family="'ProximaNova-Semibold'" font-size="12" letter-spacing="32">	</text>
	<g>
	</g>
	<text transform="matrix(1 0 0 1 660.0146 -1600.4844)"><tspan x="0" y="0" font-family="'MyriadPro-Regular'" font-size="50">laptop m</tspan><tspan x="0" y="60" font-family="'MyriadPro-Regular'" font-size="50">± 1280 px</tspan></text>
	<path fill="none" d="M11376.177-717.981"/>
	<path fill="none" d="M-5006.823-717.981"/>
	<rect x="657.561" y="-829.592" fill="#FFFFFF" width="1280" height="300"/>
	<rect x="657.561" y="322.375" fill="#333333" width="1280" height="300"/>
	<rect x="657.561" y="-529.592" fill="#F8F9F9" width="1279.848" height="851.905"/>
	<rect x="657.561" y="562.375" width="1280" height="60"/>
	<g id="Diensten_28_">
		<g>
			<text transform="matrix(1 0 0 1 744.479 467.812)"><tspan x="0" y="0" fill="#FFFFFF" font-family="'ProximaNova-Regular'" font-size="20">Vennewatersweg 2b</tspan><tspan x="0" y="24" fill="#FFFFFF" font-family="'ProximaNova-Regular'" font-size="20">1852 PT Heiloo Nederland</tspan></text>
		</g>
	</g>
	<g id="Diensten_27_">
		<g>
			<text transform="matrix(1 0 0 1 1029.2104 467.812)"><tspan x="0" y="0" fill="#FFFFFF" font-family="'ProximaNova-Regular'" font-size="20">+31 88 4720180</tspan><tspan x="0" y="24" fill="#FFFFFF" font-family="'ProximaNova-Regular'" font-size="20">info@orangenano.com</tspan></text>
		</g>
	</g>
	<g id="Diensten_25_">
		<g>
			<text transform="matrix(1 0 0 1 1502.5146 418.6421)" fill="#FFFFFF" font-family="'ProximaNova-Semibold'" font-size="15">Volg ons:</text>
		</g>
	</g>
	<rect x="1502.515" y="452.865" fill="#FFFFFF" width="355" height="39.02"/>
	<g id="Diensten_19_">
		<text transform="matrix(1 0 0 1 1522.5273 478.3774)" fill="#333333" font-family="'ProximaNova-Regular'" font-size="20">Nieuwsbrief</text>
	</g>
	<g>
		<circle fill="#FFFFFF" cx="1652.515" cy="414.614" r="15"/>
		<path fill="#333333" d="M1660.149,415.425c-0.163,0.869-0.662,2.19-2.114,3.643c-2.528,2.53-6.159,3.082-7.453,3.082
			c-1.291,0-5.476-0.191-8.364-4.147c0,0,3.787,3.385,7.59-0.189c-1.797,0.219-1.912-1.393-0.671-1.597
			c-1.824-0.076-2.13-0.684-2.357-1.216c-0.228-0.533,0.59-0.554,1.236-0.627c-1.246-0.434-2.266-1.203-2.149-2.003
			c0.076-0.313,1.14-0.034,1.066-0.262c-0.078-0.229-1.979-1.063-1.6-2.585c1.712,0.875,4.603,1.369,6.751,3.632
			c0.664-1.884,1.765-4.325,2.948-4.847c1.179-0.525,2.165-0.418,2.434,0.112c0.265,0.533-1.636,0.953-1.636,0.953
			c2.254-0.218,3.831,1.823,4.263,3.739c1.024,0.602,2.355,0.025,2.355,0.025s-0.288,1.026-2.018,1.176
			c-0.227,0.078,0.952,0.307,2.169,0.173C1661.967,415.329,1660.789,415.435,1660.149,415.425z"/>
	</g>
	<g>
		<circle fill="#FFFFFF" cx="1612.515" cy="414.614" r="15"/>
		<g id="facebook_3_">
			<path id="facebook_4_" fill="#333333" d="M1616.643,429.879v-11.208h3.364v-3.362h-3.364l0.007-1.873
				c0-1.011,0.338-1.487,1.788-1.487h1.57v-4.483h-3.364c-3.723,0-4.483,1.326-4.483,4.483v3.36h-2.241v3.362h2.241v11.208H1616.643
				z"/>
		</g>
	</g>
	<g>
		<path fill="#FFFFFF" d="M760.325,391.951c8.401,0,15.889,6.135,15.889,16.106c0,9.926-7.488,16.062-15.889,16.062
			c-8.358,0-15.846-6.136-15.846-16.062C744.479,398.086,751.967,391.951,760.325,391.951z M760.325,418.286
			c4.788,0,9.666-3.308,9.666-10.273c0-6.963-4.878-10.274-9.666-10.274c-4.745,0-9.62,3.311-9.62,10.274
			C750.706,414.978,755.581,418.286,760.325,418.286z"/>
		<path fill="#FFFFFF" d="M792.54,407.793c-0.652-0.131-1.219-0.172-1.74-0.172c-2.962,0-5.53,1.437-5.53,6.051v9.795h-5.791
			v-21.419h5.618v3.178c1.307-2.83,4.265-3.351,6.094-3.351c0.479,0,0.916,0.043,1.349,0.086V407.793z"/>
		<path fill="#FFFFFF" d="M799.977,411.147l5.267-0.783c1.219-0.176,1.61-0.785,1.61-1.524c0-1.522-1.173-2.786-3.611-2.786
			c-2.525,0-3.92,1.608-4.092,3.482l-5.139-1.087c0.348-3.354,3.44-7.052,9.186-7.052c6.791,0,9.316,3.83,9.316,8.139v10.535
			c0,1.132,0.13,2.656,0.261,3.396h-5.309c-0.133-0.566-0.218-1.743-0.218-2.568c-1.088,1.698-3.135,3.178-6.312,3.178
			c-4.572,0-7.357-3.092-7.357-6.443C793.578,413.803,796.406,411.669,799.977,411.147z M806.854,414.803v-0.958l-4.83,0.742
			c-1.482,0.216-2.655,1.043-2.655,2.699c0,1.262,0.912,2.479,2.786,2.479C804.592,419.765,806.854,418.594,806.854,414.803z"/>
		<path fill="#FFFFFF" d="M822.221,423.468h-5.788v-21.419h5.615v2.656c1.307-2.219,3.874-3.222,6.182-3.222
			c5.312,0,7.749,3.789,7.749,8.488v13.498h-5.79v-12.494c0-2.395-1.174-4.265-3.96-4.265c-2.525,0-4.008,1.958-4.008,4.438V423.468
			z"/>
		<path fill="#FFFFFF" d="M843.767,423.25c0.391,2.349,2.265,4.046,5.008,4.046c3.656,0,5.703-1.827,5.703-5.963v-1.568
			c-0.873,1.395-2.874,2.745-5.966,2.745c-5.702,0-9.968-4.396-9.968-10.405c0-5.66,4.092-10.447,9.968-10.447
			c3.396,0,5.357,1.479,6.097,2.916v-2.525h5.572v19.111c0,5.875-3.18,11.232-11.232,11.232c-5.878,0-9.795-3.659-10.404-7.749
			L843.767,423.25z M854.563,412.105c0-3.308-2.262-5.396-5.048-5.396c-2.874,0-5.138,2.088-5.138,5.396
			c0,3.353,2.134,5.441,5.138,5.441C852.474,417.546,854.563,415.413,854.563,412.105z"/>
		<path fill="#FFFFFF" d="M883.666,417.329c-1.089,3.701-4.485,6.791-9.751,6.791c-5.878,0-11.059-4.222-11.059-11.447
			c0-6.837,5.051-11.275,10.535-11.275c6.618,0,10.581,4.223,10.581,11.099c0,0.827-0.088,1.698-0.088,1.786h-15.325
			c0.134,2.83,2.526,4.875,5.399,4.875c2.698,0,4.177-1.349,4.875-3.264L883.666,417.329z M878.269,410.319
			c-0.087-2.131-1.482-4.224-4.789-4.224c-3.004,0-4.657,2.266-4.787,4.224H878.269z"/>
		<path fill="#FFFFFF" d="M917.145,423.468l-14.019-21.898v21.898h-6.009v-30.866h7.488l12.842,20.418v-20.418h6.009v30.866H917.145
			z"/>
		<path fill="#FFFFFF" d="M933.495,411.147l5.27-0.783c1.219-0.176,1.609-0.785,1.609-1.524c0-1.522-1.176-2.786-3.614-2.786
			c-2.525,0-3.916,1.608-4.093,3.482l-5.136-1.087c0.349-3.354,3.439-7.052,9.187-7.052c6.791,0,9.316,3.83,9.316,8.139v10.535
			c0,1.132,0.13,2.656,0.261,3.396h-5.312c-0.13-0.566-0.218-1.743-0.218-2.568c-1.089,1.698-3.136,3.178-6.312,3.178
			c-4.572,0-7.358-3.092-7.358-6.443C927.096,413.803,929.927,411.669,933.495,411.147z M940.374,414.803v-0.958l-4.833,0.742
			c-1.479,0.216-2.655,1.043-2.655,2.699c0,1.262,0.915,2.479,2.787,2.479C938.109,419.765,940.374,418.594,940.374,414.803z"/>
		<path fill="#FFFFFF" d="M955.742,423.468h-5.791v-21.419h5.617v2.656c1.305-2.219,3.875-3.222,6.182-3.222
			c5.309,0,7.749,3.789,7.749,8.488v13.498h-5.791v-12.494c0-2.395-1.175-4.265-3.961-4.265c-2.526,0-4.005,1.958-4.005,4.438
			V423.468z"/>
		<path fill="#FFFFFF" d="M994.567,412.757c0,6.576-4.834,11.362-11.234,11.362c-6.398,0-11.232-4.786-11.232-11.362
			c0-6.616,4.834-11.36,11.232-11.36C989.732,401.397,994.567,406.141,994.567,412.757z M988.775,412.757
			c0-4.048-2.61-6.094-5.443-6.094c-2.828,0-5.441,2.046-5.441,6.094c0,4.008,2.613,6.097,5.441,6.097
			C986.165,418.854,988.775,416.807,988.775,412.757z"/>
		<path fill="#FFFFFF" d="M1000.197,398.313c2.588,0,4.694,2.117,4.694,4.708c0,2.572-2.106,4.693-4.694,4.693
			c-2.59,0-4.67-2.121-4.67-4.693C995.527,400.431,997.607,398.313,1000.197,398.313z M1000.197,406.71
			c2.016,0,3.592-1.623,3.592-3.688c0-2.082-1.576-3.706-3.592-3.706c-2.018,0-3.591,1.624-3.591,3.706
			C996.606,405.087,998.18,406.71,1000.197,406.71z M1000.082,403.755h-0.366v1.765h-1.208v-5.075h2.006
			c0.976,0,1.738,0.737,1.738,1.65c0,0.671-0.394,1.218-0.978,1.47l1.015,1.956h-1.332L1000.082,403.755z M1000.299,402.766
			c0.457,0,0.735-0.253,0.735-0.659c0-0.417-0.278-0.673-0.735-0.673h-0.583v1.333H1000.299z"/>
	</g>
	<g>
		<path fill="#FFFFFF" d="M45.111,391.951c8.401,0,15.889,6.135,15.889,16.106c0,9.926-7.488,16.062-15.889,16.062
			c-8.358,0-15.846-6.136-15.846-16.062C29.265,398.086,36.753,391.951,45.111,391.951z M45.111,418.286
			c4.788,0,9.666-3.308,9.666-10.273c0-6.963-4.878-10.274-9.666-10.274c-4.745,0-9.62,3.311-9.62,10.274
			C35.491,414.978,40.366,418.286,45.111,418.286z"/>
		<path fill="#FFFFFF" d="M77.326,407.793c-0.652-0.131-1.219-0.172-1.74-0.172c-2.962,0-5.53,1.437-5.53,6.051v9.795h-5.791
			v-21.419h5.618v3.178c1.307-2.83,4.265-3.351,6.094-3.351c0.479,0,0.916,0.043,1.349,0.086V407.793z"/>
		<path fill="#FFFFFF" d="M84.762,411.147l5.267-0.783c1.219-0.176,1.61-0.785,1.61-1.524c0-1.522-1.173-2.786-3.611-2.786
			c-2.525,0-3.92,1.608-4.092,3.482l-5.139-1.087c0.348-3.354,3.44-7.052,9.186-7.052c6.791,0,9.316,3.83,9.316,8.139v10.535
			c0,1.132,0.13,2.656,0.261,3.396h-5.309c-0.133-0.566-0.218-1.743-0.218-2.568c-1.088,1.698-3.135,3.178-6.312,3.178
			c-4.572,0-7.357-3.092-7.357-6.443C78.363,413.803,81.192,411.669,84.762,411.147z M91.639,414.803v-0.958l-4.83,0.742
			c-1.482,0.216-2.655,1.043-2.655,2.699c0,1.262,0.912,2.479,2.786,2.479C89.377,419.765,91.639,418.594,91.639,414.803z"/>
		<path fill="#FFFFFF" d="M107.006,423.468h-5.788v-21.419h5.615v2.656c1.307-2.219,3.874-3.222,6.182-3.222
			c5.312,0,7.749,3.789,7.749,8.488v13.498h-5.79v-12.494c0-2.395-1.174-4.265-3.96-4.265c-2.525,0-4.008,1.958-4.008,4.438V423.468
			z"/>
		<path fill="#FFFFFF" d="M128.553,423.25c0.391,2.349,2.265,4.046,5.008,4.046c3.656,0,5.703-1.827,5.703-5.963v-1.568
			c-0.873,1.395-2.874,2.745-5.966,2.745c-5.702,0-9.968-4.396-9.968-10.405c0-5.66,4.092-10.447,9.968-10.447
			c3.396,0,5.357,1.479,6.097,2.916v-2.525h5.572v19.111c0,5.875-3.18,11.232-11.232,11.232c-5.878,0-9.795-3.659-10.404-7.749
			L128.553,423.25z M139.349,412.105c0-3.308-2.262-5.396-5.048-5.396c-2.874,0-5.138,2.088-5.138,5.396
			c0,3.353,2.134,5.441,5.138,5.441C137.26,417.546,139.349,415.413,139.349,412.105z"/>
		<path fill="#FFFFFF" d="M168.452,417.329c-1.089,3.701-4.485,6.791-9.751,6.791c-5.878,0-11.059-4.222-11.059-11.447
			c0-6.837,5.051-11.275,10.535-11.275c6.618,0,10.581,4.223,10.581,11.099c0,0.827-0.088,1.698-0.088,1.786h-15.325
			c0.134,2.83,2.526,4.875,5.399,4.875c2.698,0,4.177-1.349,4.875-3.264L168.452,417.329z M163.054,410.319
			c-0.087-2.131-1.482-4.224-4.789-4.224c-3.004,0-4.657,2.266-4.787,4.224H163.054z"/>
		<path fill="#FFFFFF" d="M201.93,423.468l-14.019-21.898v21.898h-6.009v-30.866h7.488l12.842,20.418v-20.418h6.009v30.866H201.93z"
			/>
		<path fill="#FFFFFF" d="M218.281,411.147l5.27-0.783c1.219-0.176,1.609-0.785,1.609-1.524c0-1.522-1.176-2.786-3.614-2.786
			c-2.525,0-3.916,1.608-4.093,3.482l-5.136-1.087c0.349-3.354,3.439-7.052,9.187-7.052c6.791,0,9.316,3.83,9.316,8.139v10.535
			c0,1.132,0.13,2.656,0.261,3.396h-5.312c-0.13-0.566-0.218-1.743-0.218-2.568c-1.089,1.698-3.136,3.178-6.312,3.178
			c-4.572,0-7.358-3.092-7.358-6.443C211.881,413.803,214.712,411.669,218.281,411.147z M225.16,414.803v-0.958l-4.833,0.742
			c-1.479,0.216-2.655,1.043-2.655,2.699c0,1.262,0.915,2.479,2.787,2.479C222.895,419.765,225.16,418.594,225.16,414.803z"/>
		<path fill="#FFFFFF" d="M240.528,423.468h-5.791v-21.419h5.617v2.656c1.305-2.219,3.875-3.222,6.182-3.222
			c5.309,0,7.749,3.789,7.749,8.488v13.498h-5.791v-12.494c0-2.395-1.175-4.265-3.961-4.265c-2.526,0-4.005,1.958-4.005,4.438
			V423.468z"/>
		<path fill="#FFFFFF" d="M279.353,412.757c0,6.576-4.834,11.362-11.234,11.362c-6.398,0-11.232-4.786-11.232-11.362
			c0-6.616,4.834-11.36,11.232-11.36C274.518,401.397,279.353,406.141,279.353,412.757z M273.561,412.757
			c0-4.048-2.61-6.094-5.443-6.094c-2.828,0-5.441,2.046-5.441,6.094c0,4.008,2.613,6.097,5.441,6.097
			C270.951,418.854,273.561,416.807,273.561,412.757z"/>
		<path fill="#FFFFFF" d="M284.983,398.313c2.588,0,4.694,2.117,4.694,4.708c0,2.572-2.106,4.693-4.694,4.693
			c-2.59,0-4.67-2.121-4.67-4.693C280.313,400.431,282.393,398.313,284.983,398.313z M284.983,406.71
			c2.016,0,3.592-1.623,3.592-3.688c0-2.082-1.576-3.706-3.592-3.706c-2.018,0-3.591,1.624-3.591,3.706
			C281.392,405.087,282.965,406.71,284.983,406.71z M284.868,403.755h-0.366v1.765h-1.208v-5.075h2.006
			c0.976,0,1.738,0.737,1.738,1.65c0,0.671-0.394,1.218-0.978,1.47l1.015,1.956h-1.332L284.868,403.755z M285.084,402.766
			c0.457,0,0.735-0.253,0.735-0.659c0-0.417-0.278-0.673-0.735-0.673h-0.583v1.333H285.084z"/>
	</g>
	<rect x="1027.345" y="-426.698" fill="none" width="731.708" height="551.103"/>
	<text transform="matrix(1 0 0 1 1027.3447 -402.6875)"><tspan x="0" y="0" fill="#231F20" font-family="'ProximaNova-Semibold'" font-size="36">Producten</tspan><tspan x="0" y="74.4" fill="#3B3A3C" font-family="'ProximaNova-Light'" font-size="26">anotechnologie stelt ons in staat om stoffen op moleculair niveau </tspan><tspan x="0" y="105.6" fill="#3B3A3C" font-family="'ProximaNova-Light'" font-size="26">te bewerken. Dit maakt het mogelijk om materialen bij</tspan><tspan x="0" y="160.8" fill="#3B3A3C" font-family="'ProximaNova-Regular'" font-size="20">Coatingproducten vormen één van de toepassingsgebieden van de </tspan><tspan x="0" y="184.8" fill="#3B3A3C" font-family="'ProximaNova-Regular'" font-size="20">Nanotechnologie. Met Nanocoatings kunnen materialen worden voorzien </tspan><tspan x="0" y="208.8" fill="#3B3A3C" font-family="'ProximaNova-Regular'" font-size="20">van een zeer dunne en onzichtbare beschermlaag die de ondergrond beschermt </tspan><tspan x="0" y="232.8" fill="#3B3A3C" font-family="'ProximaNova-Regular'" font-size="20">tegen invloeden van buitenaf  zoals het weer en chemicaliën.</tspan><tspan x="0" y="280.8" fill="#3B3A3C" font-family="'ProximaNova-Regular'" font-size="20">Nanocoatings besparen kosten. Enerzijds omdat de levensduur van het gecoate </tspan><tspan x="0" y="304.8" fill="#3B3A3C" font-family="'ProximaNova-Regular'" font-size="20">object met jaren wordt verlengd anderzijds omdat het  onderhoud ervan minder </tspan><tspan x="0" y="328.8" fill="#3B3A3C" font-family="'ProximaNova-Regular'" font-size="20">vaak hoeft plaats te vinden en tegelijkertijd eenvoudiger wordt. </tspan></text>
	<rect x="743.029" y="151.337" fill="none" width="259.485" height="116.374"/>
	<text transform="matrix(1 0 0 1 772.8936 164.6768)"><tspan x="0" y="0" fill="#3B3A3C" font-family="'ProximaNova-Bold'" font-size="20">Verlengen levensduur</tspan><tspan x="41.599" y="24" fill="#3B3A3C" font-family="'ProximaNova-Bold'" font-size="20">van objecten</tspan></text>
	<rect x="1027.345" y="151.337" fill="none" width="264.442" height="116.374"/>
	<text transform="matrix(1 0 0 1 1127.9863 164.6768)"><tspan x="0" y="0" fill="#3B3A3C" font-family="'ProximaNova-Bold'" font-size="20">Kosten </tspan><tspan x="-10.76" y="24" fill="#3B3A3C" font-family="'ProximaNova-Bold'" font-size="20">besparen</tspan></text>
	<rect x="1309.307" y="151.337" fill="none" width="263.208" height="116.374"/>
	<text transform="matrix(1 0 0 1 1380.9414 164.6768)"><tspan x="0" y="0" fill="#3B3A3C" font-family="'ProximaNova-Bold'" font-size="20">Grondstoffen </tspan><tspan x="29.02" y="24" fill="#3B3A3C" font-family="'ProximaNova-Bold'" font-size="20">sparen</tspan></text>
	<rect x="1597.772" y="151.337" fill="none" width="262.062" height="116.374"/>
	<text transform="matrix(1 0 0 1 1665.1641 164.6768)"><tspan x="0" y="0" fill="#3B3A3C" font-family="'ProximaNova-Bold'" font-size="20">Minimaliseren </tspan><tspan x="-5.47" y="24" fill="#3B3A3C" font-family="'ProximaNova-Bold'" font-size="20">milieubelasting</tspan></text>
	<text transform="matrix(1 0 0 1 741.0322 -402.3555)" font-family="'ProximaNova-Semibold'" font-size="15">Concept - 3 - Producten</text>
	<text transform="matrix(1 0 0 1 741.0322 -721.7295)" font-family="'ProximaNova-Semibold'" font-size="15">Home - 2 - Ons Concept</text>
	<rect x="1027.515" y="-744.895" fill="none" width="735" height="173.086"/>
	<text transform="matrix(1 0 0 1 1027.5146 -720.8828)"><tspan x="0" y="0" fill="#231F20" font-family="'ProximaNova-Semibold'" font-size="36">Orange Nanotech</tspan><tspan x="0" y="67.2" fill="#3B3A3C" font-family="'ProximaNova-Regular'" font-size="20">Geld en grondstoffen zijn schaars en het milieu staat onder druk. Wij bieden </tspan><tspan x="0" y="91.2" fill="#3B3A3C" font-family="'ProximaNova-Regular'" font-size="20">oplossingen die de levensduur van kapitaalgoederen verlengen en het gebruik van </tspan><tspan x="0" y="115.2" fill="#3B3A3C" font-family="'ProximaNova-Regular'" font-size="20">grondstoffen verlagen om zo het milieu en kosten te sparen.</tspan></text>
	<rect x="745.39" y="-1143.719" fill="none" width="1114.444" height="52.709"/>
	<text transform="matrix(1 0 0 1 1086.4355 -1095.6953)" fill="#FFFFFF" font-family="'ProximaNova-Semibold'" font-size="72">Orange Nano</text>
	<path fill="none" stroke="#414042" stroke-miterlimit="10" d="M657.561-1369.592"/>
	<path fill="none" stroke="#414042" stroke-miterlimit="10" d="M1940.364-1369.592"/>
	<polyline fill="none" stroke="#FFFFFF" stroke-width="2" stroke-miterlimit="10" points="757.578,-1105.136 745.39,-1117.322 
		757.578,-1129.51 	"/>
	<polyline fill="none" stroke="#FFFFFF" stroke-width="2" stroke-miterlimit="10" points="1845.326,-1105.136 1857.515,-1117.322 
		1845.326,-1129.51 	"/>
	<rect x="657.561" y="-1429.592" fill="#333333" width="1280" height="60"/>
	<g id="Over_Ons_18_">
		<g>
			<text transform="matrix(1 0 0 1 1819.4961 -1394.4219)" fill="#FFFFFF" font-family="'ProximaNova-Semibold'" font-size="15">Login</text>
		</g>
	</g>
	<g id="Diensten_15_">
		<g>
			<text transform="matrix(1 0 0 1 1092.5684 -1394.4219)" fill="#FFFFFF" font-family="'ProximaNova-Regular'" font-size="20">Concept</text>
		</g>
	</g>
	<g id="Over_Ons_17_">
		<g>
			<text transform="matrix(1 0 0 1 1353.6875 -1394.4219)" fill="#FFFFFF" font-family="'ProximaNova-Regular'" font-size="20">Over Ons</text>
		</g>
	</g>
	<g id="Over_Ons_15_">
		<g>
			<text transform="matrix(1 0 0 1 1461.9839 -1394.4219)" fill="#FFFFFF" font-family="'ProximaNova-Regular'" font-size="20">Contact</text>
		</g>
	</g>
	<g id="Over_Ons_8_">
		<g>
			<text transform="matrix(1 0 0 1 1186.5029 -1394.4219)" fill="#FFFFFF" font-family="'ProximaNova-Regular'" font-size="20">Nanotechnologie</text>
		</g>
	</g>
	<g id="Over_Ons_1_">
		<g>
			<text transform="matrix(1 0 0 1 837.5146 -1394.4219)" fill="#FFFFFF" font-family="'ProximaNova-Regular'" font-size="20">Toepassingen</text>
		</g>
	</g>
	<g id="Contact_2_">
		<g>
			<text transform="matrix(1 0 0 1 980.3418 -1394.4219)" fill="#FFFFFF" font-family="'ProximaNova-Regular'" font-size="20">Producten</text>
		</g>
	</g>
	<g>
		<polygon fill="#FFFFFF" points="766.156,-1399.043 760.743,-1407.647 757.588,-1407.647 757.588,-1394.641 760.121,-1394.641 
			760.121,-1403.868 766.027,-1394.641 768.687,-1394.641 768.687,-1407.647 766.156,-1407.647 		"/>
		<path fill="#FFFFFF" d="M763.138-1419.895c-10.339,0-18.75,8.411-18.75,18.75c0,10.339,8.411,18.75,18.75,18.75
			c10.34,0,18.75-8.411,18.75-18.75C781.888-1411.484,773.479-1419.895,763.138-1419.895z M763.138-1387.129
			c-7.727,0-14.014-6.289-14.014-14.016c0-7.729,6.287-14.012,14.014-14.012s14.014,6.283,14.014,14.012
			C777.152-1393.417,770.865-1387.129,763.138-1387.129z"/>
	</g>
	<g>
		<polygon fill="#FFFFFF" points="270.592,-1399.043 265.179,-1407.647 262.024,-1407.647 262.024,-1394.641 264.557,-1394.641 
			264.557,-1403.868 270.463,-1394.641 273.123,-1394.641 273.123,-1407.647 270.592,-1407.647 		"/>
		<path fill="#FFFFFF" d="M267.574-1419.895c-10.339,0-18.75,8.411-18.75,18.75c0,10.339,8.411,18.75,18.75,18.75
			c10.34,0,18.75-8.411,18.75-18.75C286.324-1411.484,277.915-1419.895,267.574-1419.895z M267.574-1387.129
			c-7.727,0-14.014-6.289-14.014-14.016c0-7.729,6.287-14.012,14.014-14.012s14.014,6.283,14.014,14.012
			C281.588-1393.417,275.301-1387.129,267.574-1387.129z"/>
	</g>
	<linearGradient id="SVGID_1_" gradientUnits="userSpaceOnUse" x1="828.5156" y1="-561.2197" x2="828.5156" y2="-496.2197">
		<stop  offset="0" style="stop-color:#231F20"/>
		<stop  offset="0.5" style="stop-color:#414042"/>
	</linearGradient>
	<circle fill="url(#SVGID_1_)" stroke="#231F20" stroke-miterlimit="10" cx="828.516" cy="-528.719" r="32.5"/>
	<polyline fill="none" stroke="#FFFFFF" stroke-width="2" stroke-miterlimit="10" points="840.703,-531.152 828.517,-518.964 
		816.328,-531.152 	"/>
	<g id="Diensten_13_">
		<g>
			<text transform="matrix(1 0 0 1 744.479 599.3003)" fill="#FFFFFF" font-family="'ProximaNova-Semibold'" font-size="15">2014 Orange Nanotech B.V.</text>
		</g>
	</g>
	<g id="Diensten_18_">
		<g>
			<text transform="matrix(1 0 0 1 1709.5 599.3003)" fill="#FFFFFF" font-family="'ProximaNova-Regular'" font-size="20">Back to top</text>
		</g>
	</g>
	<line fill="none" stroke="#F1F2F2" stroke-miterlimit="10" x1="657.561" y1="226.192" x2="1937.409" y2="226.192"/>
	<rect x="1762.343" y="452.865" fill="#F89C1C" width="95.172" height="39.02"/>
	<g id="Diensten_1_">
		<g>
			<text transform="matrix(1 0 0 1 1781.5098 477.377)" fill="#FFFFFF" font-family="'ProximaNova-Semibold'" font-size="15">Sign up</text>
		</g>
	</g>
	<g>
		<circle fill="none" stroke="#FFFFFF" stroke-width="2" stroke-miterlimit="10" cx="1842.514" cy="592.5" r="15"/>
		<polyline fill="none" stroke="#FFFFFF" stroke-width="2" stroke-miterlimit="10" points="1848.139,594.623 1842.515,588.997 
			1836.889,594.623 		"/>
	</g>
	<polyline fill="none" stroke="#FFFFFF" stroke-width="2" stroke-miterlimit="10" points="1839.703,478 1845.329,472.375 
		1839.703,466.75 	"/>
	<linearGradient id="SVGID_2_" gradientUnits="userSpaceOnUse" x1="1297.6465" y1="342.375" x2="1297.6465" y2="322.375">
		<stop  offset="0.25" style="stop-color:#333333;stop-opacity:0.75"/>
		<stop  offset="1" style="stop-color:#231F20"/>
	</linearGradient>
	<rect x="657.723" y="322.375" fill="url(#SVGID_2_)" width="1279.848" height="20"/>
	<g>
		<circle fill="#FFFFFF" cx="1271.788" cy="-863.528" r="4.999"/>
		<g>
			<path fill="#FFFFFF" d="M1296.787-859.028c-1.202,0-2.332-0.468-3.182-1.318c-0.85-0.85-1.318-1.98-1.318-3.182
				s0.468-2.332,1.318-3.182c0.85-0.851,1.979-1.318,3.182-1.318s2.332,0.467,3.182,1.318c0.85,0.85,1.318,1.98,1.318,3.182
				c0,1.202-0.468,2.332-1.318,3.182C1299.12-859.497,1297.989-859.028,1296.787-859.028z"/>
			<path fill="#FFFFFF" d="M1296.788-867.528c1.068,0,2.073,0.416,2.829,1.171c0.755,0.755,1.171,1.76,1.171,2.829
				c0,1.068-0.416,2.072-1.172,2.828c-0.755,0.756-1.76,1.172-2.829,1.172c-1.068,0-2.073-0.416-2.828-1.171
				c-0.755-0.755-1.171-1.76-1.171-2.829c0-1.068,0.416-2.073,1.172-2.829C1294.715-867.112,1295.719-867.528,1296.788-867.528
				 M1296.788-868.528c-1.28,0-2.559,0.489-3.535,1.465c-1.953,1.952-1.953,5.118,0,7.071c0.977,0.976,2.256,1.464,3.535,1.464
				c1.28,0,2.56-0.488,3.536-1.465c1.953-1.953,1.953-5.119,0-7.07C1299.347-868.04,1298.067-868.528,1296.788-868.528
				L1296.788-868.528z"/>
		</g>
		<g>
			<path fill="#FFFFFF" d="M1320.949-859.028c-1.202,0-2.332-0.468-3.182-1.318c-0.85-0.85-1.318-1.98-1.318-3.182
				s0.468-2.332,1.318-3.182c0.85-0.851,1.979-1.318,3.182-1.318s2.332,0.467,3.182,1.318c0.85,0.85,1.318,1.98,1.318,3.182
				c0,1.202-0.468,2.332-1.318,3.182C1323.282-859.497,1322.151-859.028,1320.949-859.028z"/>
			<path fill="#FFFFFF" d="M1320.95-867.528c1.068,0,2.073,0.416,2.829,1.171c0.755,0.755,1.171,1.76,1.171,2.829
				c0,1.068-0.416,2.072-1.172,2.828c-0.755,0.756-1.76,1.172-2.829,1.172c-1.068,0-2.073-0.416-2.828-1.171
				c-0.755-0.755-1.171-1.76-1.171-2.829c0-1.068,0.416-2.073,1.172-2.829C1318.877-867.112,1319.881-867.528,1320.95-867.528
				 M1320.95-868.528c-1.28,0-2.559,0.489-3.535,1.465c-1.953,1.952-1.953,5.118,0,7.071c0.977,0.976,2.256,1.464,3.535,1.464
				c1.28,0,2.56-0.488,3.536-1.465c1.953-1.953,1.953-5.119,0-7.07C1323.509-868.04,1322.229-868.528,1320.95-868.528
				L1320.95-868.528z"/>
		</g>
	</g>
	<g>
		<g>
			<path fill="#414042" d="M1271.787-859.028c-1.202,0-2.332-0.468-3.182-1.318c-0.85-0.85-1.318-1.98-1.318-3.182
				s0.468-2.332,1.318-3.182c0.85-0.851,1.979-1.318,3.182-1.318s2.332,0.467,3.182,1.318c0.85,0.85,1.318,1.98,1.318,3.182
				c0,1.202-0.468,2.332-1.318,3.182C1274.12-859.497,1272.989-859.028,1271.787-859.028z"/>
			<path fill="#FFFFFF" d="M1271.788-867.528c1.068,0,2.073,0.416,2.829,1.171c0.755,0.755,1.171,1.76,1.171,2.829
				c0,1.068-0.416,2.072-1.172,2.828c-0.755,0.756-1.76,1.172-2.829,1.172c-1.068,0-2.073-0.416-2.828-1.171
				c-0.755-0.755-1.171-1.76-1.171-2.829c0-1.068,0.416-2.073,1.172-2.829C1269.715-867.112,1270.719-867.528,1271.788-867.528
				 M1271.788-868.528c-1.28,0-2.559,0.489-3.535,1.465c-1.953,1.952-1.953,5.118,0,7.071c0.977,0.976,2.256,1.464,3.535,1.464
				c1.28,0,2.56-0.488,3.536-1.465c1.953-1.953,1.953-5.119,0-7.07C1274.347-868.04,1273.067-868.528,1271.788-868.528
				L1271.788-868.528z"/>
		</g>
	</g>
	<g>
		<g>
			<g>
				<g>
					<path fill="#231F20" d="M1157.85,3c31.981,0,58,26.019,58,58s-26.019,58-58,58c-31.981,0-58-26.019-58-58S1125.869,3,1157.85,3
						 M1157.85,1c-33.087,0-60,26.919-60,60c0,33.086,26.913,60,60,60c33.088,0,60-26.913,60-60
						C1217.85,27.919,1190.938,1,1157.85,1L1157.85,1z"/>
				</g>
			</g>
		</g>
		<g>
			<path fill="none" stroke="#231F20" stroke-width="2" stroke-miterlimit="10" d="M1176.778,43.83
				c-4.729-5.278-11.569-8.624-19.187-8.624c-14.232,0-25.802,11.569-25.802,25.793c0,14.228,11.57,25.796,25.802,25.796
				c7.199,0,13.705-2.969,18.396-7.744"/>
		</g>
		<g>
			
				<line fill="none" stroke="#231F20" stroke-width="2" stroke-miterlimit="10" x1="1127.843" y1="55.139" x2="1163.265" y2="55.139"/>
			
				<line fill="none" stroke="#231F20" stroke-width="2" stroke-miterlimit="10" x1="1127.843" y1="66.864" x2="1163.265" y2="66.864"/>
		</g>
	</g>
	<g>
		<g>
			<g>
				<g>
					<path fill="#231F20" d="M-294.237,3c31.981,0,58,26.019,58,58s-26.019,58-58,58c-31.981,0-58-26.019-58-58
						S-326.218,3-294.237,3 M-294.237,1c-33.087,0-60,26.919-60,60c0,33.086,26.913,60,60,60c33.088,0,60-26.913,60-60
						C-234.237,27.919-261.149,1-294.237,1L-294.237,1z"/>
				</g>
			</g>
		</g>
		<g>
			<path fill="none" stroke="#231F20" stroke-width="2" stroke-miterlimit="10" d="M-275.309,43.83
				c-4.729-5.278-11.569-8.624-19.187-8.624c-14.232,0-25.802,11.569-25.802,25.793c0,14.228,11.57,25.796,25.802,25.796
				c7.199,0,13.705-2.969,18.396-7.744"/>
		</g>
		<g>
			
				<line fill="none" stroke="#231F20" stroke-width="2" stroke-miterlimit="10" x1="-324.244" y1="55.139" x2="-288.822" y2="55.139"/>
			
				<line fill="none" stroke="#231F20" stroke-width="2" stroke-miterlimit="10" x1="-324.244" y1="66.864" x2="-288.822" y2="66.864"/>
		</g>
	</g>
	<g>
		<g>
			<g>
				<g>
					<path fill="#231F20" d="M872.514,3.001c31.981,0,58,26.019,58,58s-26.019,58-58,58c-31.981,0-58-26.019-58-58
						S840.533,3.001,872.514,3.001 M872.514,1.001c-33.087,0-60,26.919-60,60c0,33.08,26.913,60,60,60c33.088,0,60-26.919,60-60
						C932.515,27.921,905.602,1.001,872.514,1.001L872.514,1.001z"/>
				</g>
			</g>
		</g>
		<path fill="none" stroke="#231F20" stroke-width="2" stroke-miterlimit="10" d="M836.293,69.304
			c3.786,16.514,18.57,28.875,36.221,28.875c17.651,0,32.435-12.362,36.222-28.875"/>
		<path fill="none" stroke="#231F20" stroke-width="2" stroke-miterlimit="10" d="M908.742,52.705
			c-3.779-16.528-18.569-28.902-36.228-28.902c-17.657,0-32.448,12.375-36.227,28.902"/>
		<g>
			<polygon fill="#F8F9F9" points="834.585,42.705 845.097,48.054 835.207,54.488 			"/>
			<path fill="#231F20" d="M835.675,44.382l7.425,3.778l-6.986,4.544L835.675,44.382 M833.495,41.028l0.183,3.458l0.439,8.324
				l0.183,3.46l2.905-1.89l6.986-4.545l2.903-1.888l-3.087-1.571l-7.425-3.778L833.495,41.028L833.495,41.028z"/>
		</g>
		<g>
			<polygon fill="#F8F9F9" points="899.73,73.975 909.611,67.521 910.269,79.294 			"/>
			<path fill="#231F20" d="M908.709,69.304l0.465,8.317l-7.444-3.758L908.709,69.304 M910.513,65.737l-2.897,1.893l-6.979,4.559
				l-2.904,1.896l3.096,1.563l7.444,3.758l3.092,1.562l-0.193-3.458l-0.465-8.317L910.513,65.737L910.513,65.737z"/>
		</g>
	</g>
	<g>
		<g>
			<g>
				<g>
					<path fill="#231F20" d="M-461.888,3.001c31.981,0,58,26.019,58,58s-26.019,58-58,58c-31.981,0-58-26.019-58-58
						S-493.869,3.001-461.888,3.001 M-461.888,1.001c-33.087,0-60,26.919-60,60c0,33.08,26.913,60,60,60c33.088,0,60-26.919,60-60
						C-401.887,27.921-428.8,1.001-461.888,1.001L-461.888,1.001z"/>
				</g>
			</g>
		</g>
		<path fill="none" stroke="#231F20" stroke-width="2" stroke-miterlimit="10" d="M-498.108,69.304
			c3.786,16.514,18.57,28.875,36.221,28.875c17.651,0,32.435-12.362,36.222-28.875"/>
		<path fill="none" stroke="#231F20" stroke-width="2" stroke-miterlimit="10" d="M-425.66,52.705
			c-3.779-16.528-18.569-28.902-36.228-28.902c-17.657,0-32.448,12.375-36.227,28.902"/>
		<g>
			<polygon fill="#F8F9F9" points="-499.817,42.705 -489.305,48.054 -499.195,54.488 			"/>
			<path fill="#231F20" d="M-498.727,44.382l7.425,3.778l-6.986,4.544L-498.727,44.382 M-500.907,41.028l0.183,3.458l0.439,8.324
				l0.183,3.46l2.905-1.89l6.986-4.545l2.903-1.888l-3.087-1.571l-7.425-3.778L-500.907,41.028L-500.907,41.028z"/>
		</g>
		<g>
			<polygon fill="#F8F9F9" points="-434.671,73.975 -424.791,67.521 -424.133,79.294 			"/>
			<path fill="#231F20" d="M-425.693,69.304l0.465,8.317l-7.444-3.758L-425.693,69.304 M-423.889,65.737l-2.897,1.893l-6.979,4.559
				l-2.904,1.896l3.096,1.563l7.444,3.758l3.092,1.562l-0.193-3.458l-0.465-8.317L-423.889,65.737L-423.889,65.737z"/>
		</g>
	</g>
	<g>
		<g>
			<g>
				<g>
					<path fill="#231F20" d="M1442.65,3.001c31.981,0,58,26.019,58,58c0,31.98-26.019,57.999-58,57.999
						c-31.981,0-58-26.018-58-57.999C1384.65,29.02,1410.669,3.001,1442.65,3.001 M1442.65,1.001c-33.087,0-60,26.919-60,60
						c0,33.08,26.913,59.999,60,59.999c33.088,0,60-26.918,60-59.999C1502.65,27.92,1475.738,1.001,1442.65,1.001L1442.65,1.001z"/>
				</g>
			</g>
		</g>
		<polygon fill="none" stroke="#231F20" stroke-width="2" stroke-linejoin="round" stroke-miterlimit="10" points="1482.55,48.145 
			1442.65,98.192 1403.143,48.145 		"/>
		<polygon fill="none" stroke="#231F20" stroke-width="2" stroke-linejoin="round" stroke-miterlimit="10" points="1482.55,48.145 
			1403.143,48.145 1421.446,23.809 1464.294,23.809 		"/>
		<polyline fill="none" stroke="#231F20" stroke-width="2" stroke-linejoin="round" stroke-miterlimit="10" points="1442.65,98.192 
			1425.951,48.145 1434.301,23.809 		"/>
		<polyline fill="none" stroke="#231F20" stroke-width="2" stroke-linejoin="round" stroke-miterlimit="10" points="1442.85,98.192 
			1459.549,48.145 1451.199,23.809 		"/>
	</g>
	<g>
		<g>
			<g>
				<g>
					<path fill="#231F20" d="M-108.677,3.001c31.981,0,58,26.019,58,58c0,31.98-26.019,57.999-58,57.999
						c-31.981,0-58-26.018-58-57.999C-166.677,29.02-140.658,3.001-108.677,3.001 M-108.677,1.001c-33.087,0-60,26.919-60,60
						c0,33.08,26.913,59.999,60,59.999c33.088,0,60-26.918,60-59.999C-48.677,27.92-75.589,1.001-108.677,1.001L-108.677,1.001z"/>
				</g>
			</g>
		</g>
		<polygon fill="none" stroke="#231F20" stroke-width="2" stroke-linejoin="round" stroke-miterlimit="10" points="-68.777,48.145 
			-108.677,98.192 -148.184,48.145 		"/>
		<polygon fill="none" stroke="#231F20" stroke-width="2" stroke-linejoin="round" stroke-miterlimit="10" points="-68.777,48.145 
			-148.184,48.145 -129.881,23.809 -87.033,23.809 		"/>
		<polyline fill="none" stroke="#231F20" stroke-width="2" stroke-linejoin="round" stroke-miterlimit="10" points="
			-108.677,98.192 -125.376,48.145 -117.026,23.809 		"/>
		<polyline fill="none" stroke="#231F20" stroke-width="2" stroke-linejoin="round" stroke-miterlimit="10" points="
			-108.477,98.192 -91.778,48.145 -100.128,23.809 		"/>
	</g>
	<g>
		<g>
			<g>
				<g>
					<path fill="#231F20" d="M1727.514,3c31.981,0,58,26.019,58,58c0,31.981-26.019,58-58,58c-31.981,0-58-26.019-58-58
						C1669.515,29.019,1695.533,3,1727.514,3 M1727.514,1c-33.08,0-60,26.913-60,60c0,33.08,26.919,60,60,60
						c33.088,0,60-26.919,60-60C1787.515,27.913,1760.602,1,1727.514,1L1727.514,1z"/>
				</g>
			</g>
		</g>
		<g>
			<g>
				<path fill="none" stroke="#231F20" stroke-width="2" stroke-miterlimit="10" d="M1727.514,23.809
					c20.513,0,37.193,16.68,37.193,37.191c0,20.505-16.68,37.192-37.193,37.192c-20.505,0-37.192-16.687-37.192-37.192
					C1690.322,40.488,1707.009,23.809,1727.514,23.809"/>
			</g>
		</g>
		<g>
			<g>
				<path fill="none" stroke="#231F20" stroke-width="2" stroke-miterlimit="10" d="M1727.514,23.809
					c8.205,0,14.876,16.68,14.876,37.191c0,20.505-6.672,37.192-14.876,37.192c-8.203,0-14.876-16.687-14.876-37.192
					C1712.638,40.488,1719.311,23.809,1727.514,23.809"/>
			</g>
		</g>
		
			<line fill="none" stroke="#231F20" stroke-width="2" stroke-miterlimit="10" x1="1693.303" y1="48.599" x2="1761.998" y2="48.599"/>
		
			<line fill="none" stroke="#231F20" stroke-width="2" stroke-miterlimit="10" x1="1693.303" y1="73.395" x2="1761.998" y2="73.395"/>
	</g>
	<g>
		<g>
			<g>
				<g>
					<path fill="#231F20" d="M61,3c31.981,0,58,26.019,58,58c0,31.981-26.019,58-58,58C29.019,119,3,92.981,3,61
						C3,29.019,29.019,3,61,3 M61,1C27.919,1,1,27.913,1,61c0,33.08,26.919,60,60,60c33.088,0,60-26.919,60-60
						C121,27.913,94.087,1,61,1L61,1z"/>
				</g>
			</g>
		</g>
		<g>
			<g>
				<path fill="none" stroke="#231F20" stroke-width="2" stroke-miterlimit="10" d="M61,23.809c20.513,0,37.193,16.68,37.193,37.191
					c0,20.505-16.68,37.192-37.193,37.192c-20.505,0-37.192-16.687-37.192-37.192C23.808,40.488,40.494,23.809,61,23.809"/>
			</g>
		</g>
		<g>
			<g>
				<path fill="none" stroke="#231F20" stroke-width="2" stroke-miterlimit="10" d="M61,23.809c8.205,0,14.876,16.68,14.876,37.191
					c0,20.505-6.672,37.192-14.876,37.192c-8.203,0-14.876-16.687-14.876-37.192C46.123,40.488,52.796,23.809,61,23.809"/>
			</g>
		</g>
		<line fill="none" stroke="#231F20" stroke-width="2" stroke-miterlimit="10" x1="26.788" y1="48.599" x2="95.483" y2="48.599"/>
		<line fill="none" stroke="#231F20" stroke-width="2" stroke-miterlimit="10" x1="26.788" y1="73.395" x2="95.483" y2="73.395"/>
	</g>
</g>
<g id="Icons" display="none">
	<rect x="657.561" y="-56.515" display="inline" fill="#F8F9F9" width="1279.848" height="324.226"/>
	<rect x="743.029" y="171.35" display="inline" fill="none" width="259.485" height="116.374"/>
	<text transform="matrix(1 0 0 1 772.8936 184.6895)" display="inline"><tspan x="0" y="0" fill="#3B3A3C" font-family="'ProximaNova-Bold'" font-size="20">Verlengen levensduur</tspan><tspan x="41.599" y="24" fill="#3B3A3C" font-family="'ProximaNova-Bold'" font-size="20">van objecten</tspan></text>
	<rect x="1027.345" y="171.35" display="inline" fill="none" width="264.442" height="116.374"/>
	<text transform="matrix(1 0 0 1 1127.9863 184.6895)" display="inline"><tspan x="0" y="0" fill="#3B3A3C" font-family="'ProximaNova-Bold'" font-size="20">Kosten </tspan><tspan x="-10.76" y="24" fill="#3B3A3C" font-family="'ProximaNova-Bold'" font-size="20">besparen</tspan></text>
	<rect x="1309.307" y="171.35" display="inline" fill="none" width="263.208" height="116.374"/>
	<text transform="matrix(1 0 0 1 1380.9414 184.6895)" display="inline"><tspan x="0" y="0" fill="#3B3A3C" font-family="'ProximaNova-Bold'" font-size="20">Grondstoffen </tspan><tspan x="29.02" y="24" fill="#3B3A3C" font-family="'ProximaNova-Bold'" font-size="20">sparen</tspan></text>
	<rect x="1597.772" y="171.35" display="inline" fill="none" width="262.062" height="116.374"/>
	<text transform="matrix(1 0 0 1 1665.1641 184.6895)" display="inline"><tspan x="0" y="0" fill="#3B3A3C" font-family="'ProximaNova-Bold'" font-size="20">Minimaliseren </tspan><tspan x="-5.47" y="24" fill="#3B3A3C" font-family="'ProximaNova-Bold'" font-size="20">milieubelasting</tspan></text>
	
		<rect x="1097.851" y="0.999" transform="matrix(0.7071 -0.7071 0.7071 0.7071 295.9981 836.5948)" display="inline" fill="#F89C1C" width="119.999" height="120"/>
	
		<rect x="813.414" y="0.999" transform="matrix(0.7071 -0.7071 0.7071 0.7071 212.6874 635.4667)" display="inline" fill="#F89C1C" width="119.999" height="120"/>
	
		<rect x="1382.851" y="0.999" transform="matrix(0.7071 -0.7071 0.7071 0.7071 379.4738 1038.1213)" display="inline" fill="#F89C1C" width="119.999" height="120"/>
	
		<rect x="1668.804" y="0.999" transform="matrix(0.7071 -0.7071 0.7071 0.7071 463.2288 1240.3219)" display="inline" fill="#F89C1C" width="119.999" height="120"/>
	<g display="inline">
		<g>
			<g>
				<g>
					<path fill="#FFFFFF" d="M1157.85,18c23.71,0,43,19.29,43,43s-19.29,43-43,43s-43-19.29-43-43S1134.14,18,1157.85,18
						 M1157.85,16c-24.815,0-45,20.189-45,45c0,24.816,20.185,45,45,45s45-20.184,45-45C1202.85,36.189,1182.666,16,1157.85,16
						L1157.85,16z"/>
				</g>
			</g>
		</g>
		<g>
			<path fill="none" stroke="#FFFFFF" stroke-width="2" stroke-miterlimit="10" d="M1172.046,48.122
				c-3.547-3.958-8.677-6.468-14.39-6.468c-10.674,0-19.352,8.677-19.352,19.345c0,10.671,8.678,19.347,19.352,19.347
				c5.399,0,10.279-2.227,13.797-5.808"/>
		</g>
		<g>
			
				<line fill="none" stroke="#FFFFFF" stroke-width="2" stroke-miterlimit="10" x1="1135.345" y1="56.604" x2="1161.912" y2="56.604"/>
			
				<line fill="none" stroke="#FFFFFF" stroke-width="2" stroke-miterlimit="10" x1="1135.345" y1="65.398" x2="1161.912" y2="65.398"/>
		</g>
	</g>
	<g display="inline">
		<g>
			<g>
				<g>
					<path fill="#FFFFFF" d="M872.514,18.001c23.71,0,43,19.29,43,43s-19.29,43-43,43c-23.71,0-43-19.29-43-43
						S848.804,18.001,872.514,18.001 M872.514,16.001c-24.815,0-45,20.189-45,45c0,24.81,20.185,45,45,45c24.816,0,45-20.19,45-45
						C917.515,36.19,897.33,16.001,872.514,16.001L872.514,16.001z"/>
				</g>
			</g>
		</g>
		<path fill="none" stroke="#FFFFFF" stroke-width="2" stroke-miterlimit="10" d="M845.349,67.229
			c2.84,12.385,13.928,21.656,27.166,21.656c13.239,0,24.326-9.271,27.167-21.656"/>
		<path fill="none" stroke="#FFFFFF" stroke-width="2" stroke-miterlimit="10" d="M899.685,54.778
			c-2.834-12.396-13.927-21.677-27.171-21.677c-13.243,0-24.336,9.281-27.17,21.677"/>
		<g>
			<polygon fill="#F8F9F9" points="843.795,46.859 852.45,51.264 844.307,56.562 			"/>
			<path fill="#FFFFFF" d="M844.885,48.536l5.569,2.834l-5.239,3.408L844.885,48.536 M842.705,45.183l0.183,3.458l0.33,6.242
				l0.183,3.461l2.905-1.89l5.239-3.409l2.903-1.889l-3.087-1.57l-5.568-2.833L842.705,45.183L842.705,45.183z"/>
		</g>
		<g>
			<polygon fill="#F8F9F9" points="892.427,70.758 900.562,65.445 901.104,75.139 			"/>
			<path fill="#FFFFFF" d="M899.661,67.229l0.349,6.237l-5.583-2.819L899.661,67.229 M901.464,63.661l-2.897,1.893l-5.235,3.419
				l-2.904,1.896l3.096,1.563l5.583,2.818l3.091,1.562l-0.193-3.458l-0.349-6.238L901.464,63.661L901.464,63.661z"/>
		</g>
	</g>
	<g display="inline">
		<g>
			<g>
				<g>
					<path fill="#FFFFFF" d="M1442.514,18.001c23.71,0,43,19.29,43,43c0,23.709-19.29,42.999-43,42.999
						c-23.71,0-43-19.289-43-42.999C1399.515,37.291,1418.804,18.001,1442.514,18.001 M1442.514,16.001c-24.815,0-45,20.189-45,45
						c0,24.81,20.184,44.999,45,44.999c24.816,0,45-20.189,45-44.999C1487.515,36.19,1467.33,16.001,1442.514,16.001
						L1442.514,16.001z"/>
				</g>
			</g>
		</g>
		<polygon fill="none" stroke="#FFFFFF" stroke-width="2" stroke-linejoin="round" stroke-miterlimit="10" points="1472.439,51.359 
			1442.514,88.894 1412.884,51.359 		"/>
		<polygon fill="none" stroke="#FFFFFF" stroke-width="2" stroke-linejoin="round" stroke-miterlimit="10" points="1472.439,51.359 
			1412.884,51.359 1426.611,33.106 1458.747,33.106 		"/>
		<polyline fill="none" stroke="#FFFFFF" stroke-width="2" stroke-linejoin="round" stroke-miterlimit="10" points="
			1442.514,88.894 1429.99,51.359 1436.252,33.106 		"/>
		<polyline fill="none" stroke="#FFFFFF" stroke-width="2" stroke-linejoin="round" stroke-miterlimit="10" points="
			1442.664,88.894 1455.188,51.359 1448.926,33.106 		"/>
	</g>
	<g display="inline">
		<g>
			<g>
				<g>
					<path fill="#FFFFFF" d="M1728.802,18c23.71,0,43,19.29,43,43s-19.29,43-43,43c-23.71,0-43-19.29-43-43S1705.092,18,1728.802,18
						 M1728.802,16c-24.81,0-45,20.185-45,45c0,24.811,20.189,45,45,45c24.816,0,45-20.189,45-45
						C1773.803,36.185,1753.618,16,1728.802,16L1728.802,16z"/>
				</g>
			</g>
		</g>
		<g>
			<g>
				<path fill="none" stroke="#FFFFFF" stroke-width="2" stroke-miterlimit="10" d="M1728.802,33.106
					c15.385,0,27.895,12.51,27.895,27.894c0,15.379-12.51,27.894-27.895,27.894c-15.379,0-27.894-12.515-27.894-27.894
					C1700.909,45.616,1713.423,33.106,1728.802,33.106"/>
			</g>
		</g>
		<g>
			<g>
				<path fill="none" stroke="#FFFFFF" stroke-width="2" stroke-miterlimit="10" d="M1728.802,33.106
					c6.153,0,11.157,12.51,11.157,27.894c0,15.379-5.004,27.894-11.157,27.894c-6.152,0-11.157-12.515-11.157-27.894
					C1717.645,45.616,1722.65,33.106,1728.802,33.106"/>
			</g>
		</g>
		
			<line fill="none" stroke="#FFFFFF" stroke-width="2" stroke-miterlimit="10" x1="1703.144" y1="51.699" x2="1754.666" y2="51.699"/>
		
			<line fill="none" stroke="#FFFFFF" stroke-width="2" stroke-miterlimit="10" x1="1703.144" y1="70.296" x2="1754.666" y2="70.296"/>
	</g>
</g>
<g id="_x31_2_GRID__x2B__MARGIN">
</g>
</svg>
