<?xml version="1.0" encoding="utf-8"?>
<!-- Generator: Adobe Illustrator 16.0.0, SVG Export Plug-In . SVG Version: 6.00 Build 0)  -->
<!DOCTYPE svg PUBLIC "-//W3C//DTD SVG 1.1//EN" "http://www.w3.org/Graphics/SVG/1.1/DTD/svg11.dtd">
<svg version="1.1" xmlns="http://www.w3.org/2000/svg" xmlns:xlink="http://www.w3.org/1999/xlink" x="0px" y="0px" width="122px"
	 height="121.999px" viewBox="0 0 122 121.999" enable-background="new 0 0 122 121.999" xml:space="preserve">
<g id="background">
</g>
<g id="_x33__ONS_CONCEPT">
	<rect x="829.57" y="-1431.946" fill="#F7941E" width="1277.516" height="602.353"/>
	<text transform="matrix(1 0 0 1 -191.9731 324.4658)" font-family="'ProximaNova-Semibold'" font-size="12" letter-spacing="32">	</text>
	<g>
	</g>
	<text transform="matrix(1 0 0 1 829.6914 -1600.4854)"><tspan x="0" y="0" font-family="'MyriadPro-Regular'" font-size="50">laptop m</tspan><tspan x="0" y="60" font-family="'MyriadPro-Regular'" font-size="50">± 1280 px</tspan></text>
	<path fill="none" d="M11545.854-717.982"/>
	<path fill="none" d="M-4837.146-717.982"/>
	<rect x="827.238" y="-829.593" fill="#FFFFFF" width="1280" height="300"/>
	<rect x="827.238" y="322.374" fill="#333333" width="1280" height="300"/>
	<rect x="827.238" y="-529.593" fill="#F8F9F9" width="1279.848" height="851.905"/>
	<rect x="827.238" y="562.374" width="1280" height="60"/>
	<g id="Diensten_28_">
		<g>
			<text transform="matrix(1 0 0 1 914.1558 467.811)"><tspan x="0" y="0" fill="#FFFFFF" font-family="'ProximaNova-Regular'" font-size="20">Vennewatersweg 2b</tspan><tspan x="0" y="24" fill="#FFFFFF" font-family="'ProximaNova-Regular'" font-size="20">1852 PT Heiloo Nederland</tspan></text>
		</g>
	</g>
	<g id="Diensten_27_">
		<g>
			<text transform="matrix(1 0 0 1 1198.8872 467.811)"><tspan x="0" y="0" fill="#FFFFFF" font-family="'ProximaNova-Regular'" font-size="20">+31 88 4720180</tspan><tspan x="0" y="24" fill="#FFFFFF" font-family="'ProximaNova-Regular'" font-size="20">info@orangenano.com</tspan></text>
		</g>
	</g>
	<g id="Diensten_25_">
		<g>
			<text transform="matrix(1 0 0 1 1672.1914 418.6411)" fill="#FFFFFF" font-family="'ProximaNova-Semibold'" font-size="15">Volg ons:</text>
		</g>
	</g>
	<rect x="1672.191" y="452.864" fill="#FFFFFF" width="355" height="39.02"/>
	<g id="Diensten_19_">
		<text transform="matrix(1 0 0 1 1692.2041 478.3765)" fill="#333333" font-family="'ProximaNova-Regular'" font-size="20">Nieuwsbrief</text>
	</g>
	<g>
		<circle fill="#FFFFFF" cx="1822.191" cy="414.613" r="15"/>
		<path fill="#333333" d="M1829.826,415.424c-0.163,0.869-0.662,2.19-2.114,3.643c-2.528,2.53-6.159,3.082-7.453,3.082
			c-1.291,0-5.476-0.191-8.364-4.147c0,0,3.787,3.385,7.59-0.189c-1.797,0.219-1.912-1.393-0.671-1.597
			c-1.824-0.076-2.13-0.684-2.357-1.216c-0.228-0.533,0.59-0.554,1.236-0.627c-1.246-0.434-2.266-1.203-2.149-2.003
			c0.076-0.313,1.14-0.034,1.066-0.262c-0.078-0.229-1.979-1.063-1.6-2.585c1.712,0.875,4.603,1.369,6.751,3.632
			c0.664-1.884,1.765-4.325,2.948-4.847c1.179-0.525,2.165-0.418,2.434,0.112c0.265,0.533-1.636,0.953-1.636,0.953
			c2.254-0.218,3.831,1.823,4.263,3.739c1.024,0.602,2.355,0.025,2.355,0.025s-0.288,1.026-2.018,1.176
			c-0.227,0.078,0.952,0.307,2.169,0.173C1831.644,415.328,1830.465,415.434,1829.826,415.424z"/>
	</g>
	<g>
		<circle fill="#FFFFFF" cx="1782.191" cy="414.613" r="15"/>
		<g id="facebook_3_">
			<path id="facebook_4_" fill="#333333" d="M1786.32,429.878V418.67h3.364v-3.362h-3.364l0.007-1.873
				c0-1.011,0.338-1.487,1.788-1.487h1.57v-4.483h-3.364c-3.723,0-4.483,1.326-4.483,4.483v3.36h-2.241v3.362h2.241v11.208H1786.32z
				"/>
		</g>
	</g>
	<g>
		<path fill="#FFFFFF" d="M930.002,391.95c8.401,0,15.889,6.135,15.889,16.106c0,9.926-7.488,16.062-15.889,16.062
			c-8.358,0-15.846-6.136-15.846-16.062C914.156,398.085,921.644,391.95,930.002,391.95z M930.002,418.285
			c4.788,0,9.666-3.308,9.666-10.273c0-6.963-4.878-10.274-9.666-10.274c-4.745,0-9.62,3.311-9.62,10.274
			C920.382,414.977,925.257,418.285,930.002,418.285z"/>
		<path fill="#FFFFFF" d="M962.217,407.792c-0.652-0.131-1.219-0.172-1.74-0.172c-2.962,0-5.53,1.437-5.53,6.051v9.795h-5.791
			v-21.419h5.618v3.178c1.307-2.83,4.265-3.351,6.094-3.351c0.479,0,0.916,0.043,1.349,0.086V407.792z"/>
		<path fill="#FFFFFF" d="M969.653,411.146l5.267-0.783c1.219-0.176,1.61-0.785,1.61-1.524c0-1.522-1.173-2.786-3.611-2.786
			c-2.525,0-3.92,1.608-4.092,3.482l-5.139-1.087c0.348-3.354,3.44-7.052,9.186-7.052c6.791,0,9.316,3.83,9.316,8.139v10.535
			c0,1.132,0.13,2.656,0.261,3.396h-5.309c-0.133-0.566-0.218-1.743-0.218-2.568c-1.088,1.698-3.135,3.178-6.312,3.178
			c-4.572,0-7.357-3.092-7.357-6.443C963.254,413.802,966.083,411.668,969.653,411.146z M976.53,414.802v-0.958l-4.83,0.742
			c-1.482,0.216-2.655,1.043-2.655,2.699c0,1.262,0.912,2.479,2.786,2.479C974.269,419.764,976.53,418.593,976.53,414.802z"/>
		<path fill="#FFFFFF" d="M991.897,423.467h-5.788v-21.419h5.615v2.656c1.307-2.219,3.874-3.222,6.182-3.222
			c5.312,0,7.749,3.789,7.749,8.488v13.498h-5.79v-12.494c0-2.395-1.174-4.265-3.96-4.265c-2.525,0-4.008,1.958-4.008,4.438V423.467
			z"/>
		<path fill="#FFFFFF" d="M1013.444,423.249c0.391,2.349,2.265,4.046,5.008,4.046c3.656,0,5.703-1.827,5.703-5.963v-1.568
			c-0.873,1.395-2.874,2.745-5.966,2.745c-5.702,0-9.968-4.396-9.968-10.405c0-5.66,4.092-10.447,9.968-10.447
			c3.396,0,5.357,1.479,6.097,2.916v-2.525h5.572v19.111c0,5.875-3.18,11.232-11.232,11.232c-5.878,0-9.795-3.659-10.404-7.749
			L1013.444,423.249z M1024.24,412.104c0-3.308-2.262-5.396-5.048-5.396c-2.874,0-5.138,2.088-5.138,5.396
			c0,3.353,2.134,5.441,5.138,5.441C1022.151,417.545,1024.24,415.412,1024.24,412.104z"/>
		<path fill="#FFFFFF" d="M1053.343,417.328c-1.089,3.701-4.485,6.791-9.751,6.791c-5.878,0-11.059-4.222-11.059-11.447
			c0-6.837,5.051-11.275,10.535-11.275c6.618,0,10.581,4.223,10.581,11.099c0,0.827-0.088,1.698-0.088,1.786h-15.325
			c0.134,2.83,2.526,4.875,5.399,4.875c2.698,0,4.177-1.349,4.875-3.264L1053.343,417.328z M1047.945,410.318
			c-0.087-2.131-1.482-4.224-4.789-4.224c-3.004,0-4.657,2.266-4.787,4.224H1047.945z"/>
		<path fill="#FFFFFF" d="M1086.821,423.467l-14.019-21.898v21.898h-6.009v-30.866h7.488l12.842,20.418v-20.418h6.009v30.866
			H1086.821z"/>
		<path fill="#FFFFFF" d="M1103.172,411.146l5.27-0.783c1.219-0.176,1.609-0.785,1.609-1.524c0-1.522-1.176-2.786-3.614-2.786
			c-2.525,0-3.916,1.608-4.093,3.482l-5.136-1.087c0.349-3.354,3.439-7.052,9.187-7.052c6.791,0,9.316,3.83,9.316,8.139v10.535
			c0,1.132,0.13,2.656,0.261,3.396h-5.312c-0.13-0.566-0.218-1.743-0.218-2.568c-1.089,1.698-3.136,3.178-6.312,3.178
			c-4.572,0-7.358-3.092-7.358-6.443C1096.772,413.802,1099.604,411.668,1103.172,411.146z M1110.051,414.802v-0.958l-4.833,0.742
			c-1.479,0.216-2.655,1.043-2.655,2.699c0,1.262,0.915,2.479,2.787,2.479C1107.786,419.764,1110.051,418.593,1110.051,414.802z"/>
		<path fill="#FFFFFF" d="M1125.419,423.467h-5.791v-21.419h5.617v2.656c1.305-2.219,3.875-3.222,6.182-3.222
			c5.309,0,7.749,3.789,7.749,8.488v13.498h-5.791v-12.494c0-2.395-1.175-4.265-3.961-4.265c-2.526,0-4.005,1.958-4.005,4.438
			V423.467z"/>
		<path fill="#FFFFFF" d="M1164.244,412.756c0,6.576-4.834,11.362-11.234,11.362c-6.398,0-11.232-4.786-11.232-11.362
			c0-6.616,4.834-11.36,11.232-11.36C1159.409,401.396,1164.244,406.14,1164.244,412.756z M1158.452,412.756
			c0-4.048-2.61-6.094-5.443-6.094c-2.828,0-5.441,2.046-5.441,6.094c0,4.008,2.613,6.097,5.441,6.097
			C1155.842,418.853,1158.452,416.806,1158.452,412.756z"/>
		<path fill="#FFFFFF" d="M1169.874,398.312c2.588,0,4.694,2.117,4.694,4.708c0,2.572-2.106,4.693-4.694,4.693
			c-2.59,0-4.67-2.121-4.67-4.693C1165.204,400.43,1167.284,398.312,1169.874,398.312z M1169.874,406.709
			c2.016,0,3.592-1.623,3.592-3.688c0-2.082-1.576-3.706-3.592-3.706c-2.018,0-3.591,1.624-3.591,3.706
			C1166.283,405.086,1167.856,406.709,1169.874,406.709z M1169.759,403.754h-0.366v1.765h-1.208v-5.075h2.006
			c0.976,0,1.738,0.737,1.738,1.65c0,0.671-0.394,1.218-0.978,1.47l1.015,1.956h-1.332L1169.759,403.754z M1169.976,402.765
			c0.457,0,0.735-0.253,0.735-0.659c0-0.417-0.278-0.673-0.735-0.673h-0.583v1.333H1169.976z"/>
	</g>
	<g>
		<path fill="#FFFFFF" d="M214.788,391.95c8.401,0,15.889,6.135,15.889,16.106c0,9.926-7.488,16.062-15.889,16.062
			c-8.358,0-15.846-6.136-15.846-16.062C198.941,398.085,206.43,391.95,214.788,391.95z M214.788,418.285
			c4.788,0,9.666-3.308,9.666-10.273c0-6.963-4.878-10.274-9.666-10.274c-4.745,0-9.62,3.311-9.62,10.274
			C205.168,414.977,210.043,418.285,214.788,418.285z"/>
		<path fill="#FFFFFF" d="M247.002,407.792c-0.652-0.131-1.219-0.172-1.74-0.172c-2.962,0-5.53,1.437-5.53,6.051v9.795h-5.791
			v-21.419h5.618v3.178c1.307-2.83,4.265-3.351,6.094-3.351c0.479,0,0.916,0.043,1.349,0.086V407.792z"/>
		<path fill="#FFFFFF" d="M254.439,411.146l5.267-0.783c1.219-0.176,1.61-0.785,1.61-1.524c0-1.522-1.173-2.786-3.611-2.786
			c-2.525,0-3.92,1.608-4.092,3.482l-5.139-1.087c0.348-3.354,3.44-7.052,9.186-7.052c6.791,0,9.316,3.83,9.316,8.139v10.535
			c0,1.132,0.13,2.656,0.261,3.396h-5.309c-0.133-0.566-0.218-1.743-0.218-2.568c-1.088,1.698-3.135,3.178-6.312,3.178
			c-4.572,0-7.357-3.092-7.357-6.443C248.04,413.802,250.869,411.668,254.439,411.146z M261.316,414.802v-0.958l-4.83,0.742
			c-1.482,0.216-2.655,1.043-2.655,2.699c0,1.262,0.912,2.479,2.786,2.479C259.054,419.764,261.316,418.593,261.316,414.802z"/>
		<path fill="#FFFFFF" d="M276.683,423.467h-5.788v-21.419h5.615v2.656c1.307-2.219,3.874-3.222,6.182-3.222
			c5.312,0,7.749,3.789,7.749,8.488v13.498h-5.79v-12.494c0-2.395-1.174-4.265-3.96-4.265c-2.525,0-4.008,1.958-4.008,4.438V423.467
			z"/>
		<path fill="#FFFFFF" d="M298.229,423.249c0.391,2.349,2.265,4.046,5.008,4.046c3.656,0,5.703-1.827,5.703-5.963v-1.568
			c-0.873,1.395-2.874,2.745-5.966,2.745c-5.702,0-9.968-4.396-9.968-10.405c0-5.66,4.092-10.447,9.968-10.447
			c3.396,0,5.357,1.479,6.097,2.916v-2.525h5.572v19.111c0,5.875-3.18,11.232-11.232,11.232c-5.878,0-9.795-3.659-10.404-7.749
			L298.229,423.249z M309.025,412.104c0-3.308-2.262-5.396-5.048-5.396c-2.874,0-5.138,2.088-5.138,5.396
			c0,3.353,2.134,5.441,5.138,5.441C306.937,417.545,309.025,415.412,309.025,412.104z"/>
		<path fill="#FFFFFF" d="M338.128,417.328c-1.089,3.701-4.485,6.791-9.751,6.791c-5.878,0-11.059-4.222-11.059-11.447
			c0-6.837,5.051-11.275,10.535-11.275c6.618,0,10.581,4.223,10.581,11.099c0,0.827-0.088,1.698-0.088,1.786h-15.325
			c0.134,2.83,2.526,4.875,5.399,4.875c2.698,0,4.177-1.349,4.875-3.264L338.128,417.328z M332.731,410.318
			c-0.087-2.131-1.482-4.224-4.789-4.224c-3.004,0-4.657,2.266-4.787,4.224H332.731z"/>
		<path fill="#FFFFFF" d="M371.607,423.467l-14.019-21.898v21.898h-6.009v-30.866h7.488l12.842,20.418v-20.418h6.009v30.866H371.607
			z"/>
		<path fill="#FFFFFF" d="M387.958,411.146l5.27-0.783c1.219-0.176,1.609-0.785,1.609-1.524c0-1.522-1.176-2.786-3.614-2.786
			c-2.525,0-3.916,1.608-4.093,3.482l-5.136-1.087c0.349-3.354,3.439-7.052,9.187-7.052c6.791,0,9.316,3.83,9.316,8.139v10.535
			c0,1.132,0.13,2.656,0.261,3.396h-5.312c-0.13-0.566-0.218-1.743-0.218-2.568c-1.089,1.698-3.136,3.178-6.312,3.178
			c-4.572,0-7.358-3.092-7.358-6.443C381.558,413.802,384.389,411.668,387.958,411.146z M394.836,414.802v-0.958l-4.833,0.742
			c-1.479,0.216-2.655,1.043-2.655,2.699c0,1.262,0.915,2.479,2.787,2.479C392.571,419.764,394.836,418.593,394.836,414.802z"/>
		<path fill="#FFFFFF" d="M410.205,423.467h-5.791v-21.419h5.617v2.656c1.305-2.219,3.875-3.222,6.182-3.222
			c5.309,0,7.749,3.789,7.749,8.488v13.498h-5.791v-12.494c0-2.395-1.175-4.265-3.961-4.265c-2.526,0-4.005,1.958-4.005,4.438
			V423.467z"/>
		<path fill="#FFFFFF" d="M449.029,412.756c0,6.576-4.834,11.362-11.234,11.362c-6.398,0-11.232-4.786-11.232-11.362
			c0-6.616,4.834-11.36,11.232-11.36C444.195,401.396,449.029,406.14,449.029,412.756z M443.238,412.756
			c0-4.048-2.61-6.094-5.443-6.094c-2.828,0-5.441,2.046-5.441,6.094c0,4.008,2.613,6.097,5.441,6.097
			C440.627,418.853,443.238,416.806,443.238,412.756z"/>
		<path fill="#FFFFFF" d="M454.66,398.312c2.588,0,4.694,2.117,4.694,4.708c0,2.572-2.106,4.693-4.694,4.693
			c-2.59,0-4.67-2.121-4.67-4.693C449.99,400.43,452.07,398.312,454.66,398.312z M454.66,406.709c2.016,0,3.592-1.623,3.592-3.688
			c0-2.082-1.576-3.706-3.592-3.706c-2.018,0-3.591,1.624-3.591,3.706C451.069,405.086,452.642,406.709,454.66,406.709z
			 M454.544,403.754h-0.366v1.765h-1.208v-5.075h2.006c0.976,0,1.738,0.737,1.738,1.65c0,0.671-0.394,1.218-0.978,1.47l1.015,1.956
			h-1.332L454.544,403.754z M454.761,402.765c0.457,0,0.735-0.253,0.735-0.659c0-0.417-0.278-0.673-0.735-0.673h-0.583v1.333
			H454.761z"/>
	</g>
	<rect x="1197.021" y="-426.699" fill="none" width="731.708" height="551.103"/>
	<text transform="matrix(1 0 0 1 1197.0215 -402.6885)"><tspan x="0" y="0" fill="#231F20" font-family="'ProximaNova-Semibold'" font-size="36">Producten</tspan><tspan x="0" y="74.4" fill="#3B3A3C" font-family="'ProximaNova-Light'" font-size="26">anotechnologie stelt ons in staat om stoffen op moleculair niveau </tspan><tspan x="0" y="105.6" fill="#3B3A3C" font-family="'ProximaNova-Light'" font-size="26">te bewerken. Dit maakt het mogelijk om materialen bij</tspan><tspan x="0" y="160.8" fill="#3B3A3C" font-family="'ProximaNova-Regular'" font-size="20">Coatingproducten vormen één van de toepassingsgebieden van de </tspan><tspan x="0" y="184.8" fill="#3B3A3C" font-family="'ProximaNova-Regular'" font-size="20">Nanotechnologie. Met Nanocoatings kunnen materialen worden voorzien </tspan><tspan x="0" y="208.8" fill="#3B3A3C" font-family="'ProximaNova-Regular'" font-size="20">van een zeer dunne en onzichtbare beschermlaag die de ondergrond beschermt </tspan><tspan x="0" y="232.8" fill="#3B3A3C" font-family="'ProximaNova-Regular'" font-size="20">tegen invloeden van buitenaf  zoals het weer en chemicaliën.</tspan><tspan x="0" y="280.8" fill="#3B3A3C" font-family="'ProximaNova-Regular'" font-size="20">Nanocoatings besparen kosten. Enerzijds omdat de levensduur van het gecoate </tspan><tspan x="0" y="304.8" fill="#3B3A3C" font-family="'ProximaNova-Regular'" font-size="20">object met jaren wordt verlengd anderzijds omdat het  onderhoud ervan minder </tspan><tspan x="0" y="328.8" fill="#3B3A3C" font-family="'ProximaNova-Regular'" font-size="20">vaak hoeft plaats te vinden en tegelijkertijd eenvoudiger wordt. </tspan></text>
	<rect x="912.706" y="151.336" fill="none" width="259.485" height="116.374"/>
	<text transform="matrix(1 0 0 1 942.5703 164.6758)"><tspan x="0" y="0" fill="#3B3A3C" font-family="'ProximaNova-Bold'" font-size="20">Verlengen levensduur</tspan><tspan x="41.599" y="24" fill="#3B3A3C" font-family="'ProximaNova-Bold'" font-size="20">van objecten</tspan></text>
	<rect x="1197.021" y="151.336" fill="none" width="264.442" height="116.374"/>
	<text transform="matrix(1 0 0 1 1297.6631 164.6758)"><tspan x="0" y="0" fill="#3B3A3C" font-family="'ProximaNova-Bold'" font-size="20">Kosten </tspan><tspan x="-10.76" y="24" fill="#3B3A3C" font-family="'ProximaNova-Bold'" font-size="20">besparen</tspan></text>
	<rect x="1478.983" y="151.336" fill="none" width="263.208" height="116.374"/>
	<text transform="matrix(1 0 0 1 1550.6182 164.6758)"><tspan x="0" y="0" fill="#3B3A3C" font-family="'ProximaNova-Bold'" font-size="20">Grondstoffen </tspan><tspan x="29.02" y="24" fill="#3B3A3C" font-family="'ProximaNova-Bold'" font-size="20">sparen</tspan></text>
	<rect x="1767.449" y="151.336" fill="none" width="262.062" height="116.374"/>
	<text transform="matrix(1 0 0 1 1834.8408 164.6758)"><tspan x="0" y="0" fill="#3B3A3C" font-family="'ProximaNova-Bold'" font-size="20">Minimaliseren </tspan><tspan x="-5.47" y="24" fill="#3B3A3C" font-family="'ProximaNova-Bold'" font-size="20">milieubelasting</tspan></text>
	<text transform="matrix(1 0 0 1 910.709 -402.3564)" font-family="'ProximaNova-Semibold'" font-size="15">Concept - 3 - Producten</text>
	<text transform="matrix(1 0 0 1 910.709 -721.7305)" font-family="'ProximaNova-Semibold'" font-size="15">Home - 2 - Ons Concept</text>
	<rect x="1197.191" y="-744.896" fill="none" width="735" height="173.086"/>
	<text transform="matrix(1 0 0 1 1197.1914 -720.8838)"><tspan x="0" y="0" fill="#231F20" font-family="'ProximaNova-Semibold'" font-size="36">Orange Nanotech</tspan><tspan x="0" y="67.2" fill="#3B3A3C" font-family="'ProximaNova-Regular'" font-size="20">Geld en grondstoffen zijn schaars en het milieu staat onder druk. Wij bieden </tspan><tspan x="0" y="91.2" fill="#3B3A3C" font-family="'ProximaNova-Regular'" font-size="20">oplossingen die de levensduur van kapitaalgoederen verlengen en het gebruik van </tspan><tspan x="0" y="115.2" fill="#3B3A3C" font-family="'ProximaNova-Regular'" font-size="20">grondstoffen verlagen om zo het milieu en kosten te sparen.</tspan></text>
	<rect x="915.066" y="-1143.72" fill="none" width="1114.444" height="52.709"/>
	<text transform="matrix(1 0 0 1 1256.1123 -1095.6963)" fill="#FFFFFF" font-family="'ProximaNova-Semibold'" font-size="72">Orange Nano</text>
	<path fill="none" stroke="#414042" stroke-miterlimit="10" d="M827.238-1369.593"/>
	<path fill="none" stroke="#414042" stroke-miterlimit="10" d="M2110.041-1369.593"/>
	<polyline fill="none" stroke="#FFFFFF" stroke-width="2" stroke-miterlimit="10" points="927.255,-1105.137 915.066,-1117.323 
		927.255,-1129.511 	"/>
	<polyline fill="none" stroke="#FFFFFF" stroke-width="2" stroke-miterlimit="10" points="2015.003,-1105.137 2027.191,-1117.323 
		2015.003,-1129.511 	"/>
	<rect x="827.238" y="-1429.593" fill="#333333" width="1280" height="60"/>
	<g id="Over_Ons_18_">
		<g>
			<text transform="matrix(1 0 0 1 1989.1729 -1394.4229)" fill="#FFFFFF" font-family="'ProximaNova-Semibold'" font-size="15">Login</text>
		</g>
	</g>
	<g id="Diensten_15_">
		<g>
			<text transform="matrix(1 0 0 1 1262.2451 -1394.4229)" fill="#FFFFFF" font-family="'ProximaNova-Regular'" font-size="20">Concept</text>
		</g>
	</g>
	<g id="Over_Ons_17_">
		<g>
			<text transform="matrix(1 0 0 1 1523.3643 -1394.4229)" fill="#FFFFFF" font-family="'ProximaNova-Regular'" font-size="20">Over Ons</text>
		</g>
	</g>
	<g id="Over_Ons_15_">
		<g>
			<text transform="matrix(1 0 0 1 1631.6606 -1394.4229)" fill="#FFFFFF" font-family="'ProximaNova-Regular'" font-size="20">Contact</text>
		</g>
	</g>
	<g id="Over_Ons_8_">
		<g>
			<text transform="matrix(1 0 0 1 1356.1797 -1394.4229)" fill="#FFFFFF" font-family="'ProximaNova-Regular'" font-size="20">Nanotechnologie</text>
		</g>
	</g>
	<g id="Over_Ons_1_">
		<g>
			<text transform="matrix(1 0 0 1 1007.1914 -1394.4229)" fill="#FFFFFF" font-family="'ProximaNova-Regular'" font-size="20">Toepassingen</text>
		</g>
	</g>
	<g id="Contact_2_">
		<g>
			<text transform="matrix(1 0 0 1 1150.0186 -1394.4229)" fill="#FFFFFF" font-family="'ProximaNova-Regular'" font-size="20">Producten</text>
		</g>
	</g>
	<g>
		<polygon fill="#FFFFFF" points="935.833,-1399.044 930.42,-1407.648 927.265,-1407.648 927.265,-1394.642 929.797,-1394.642 
			929.797,-1403.869 935.704,-1394.642 938.364,-1394.642 938.364,-1407.648 935.833,-1407.648 		"/>
		<path fill="#FFFFFF" d="M932.815-1419.896c-10.339,0-18.75,8.411-18.75,18.75c0,10.339,8.411,18.75,18.75,18.75
			c10.34,0,18.75-8.411,18.75-18.75C951.565-1411.485,943.155-1419.896,932.815-1419.896z M932.815-1387.13
			c-7.727,0-14.014-6.289-14.014-14.016c0-7.729,6.287-14.012,14.014-14.012s14.014,6.283,14.014,14.012
			C946.829-1393.418,940.542-1387.13,932.815-1387.13z"/>
	</g>
	<g>
		<polygon fill="#FFFFFF" points="440.269,-1399.044 434.856,-1407.648 431.701,-1407.648 431.701,-1394.642 434.233,-1394.642 
			434.233,-1403.869 440.14,-1394.642 442.8,-1394.642 442.8,-1407.648 440.269,-1407.648 		"/>
		<path fill="#FFFFFF" d="M437.251-1419.896c-10.339,0-18.75,8.411-18.75,18.75c0,10.339,8.411,18.75,18.75,18.75
			c10.34,0,18.75-8.411,18.75-18.75C456.001-1411.485,447.591-1419.896,437.251-1419.896z M437.251-1387.13
			c-7.727,0-14.014-6.289-14.014-14.016c0-7.729,6.287-14.012,14.014-14.012s14.014,6.283,14.014,14.012
			C451.265-1393.418,444.978-1387.13,437.251-1387.13z"/>
	</g>
	<linearGradient id="SVGID_1_" gradientUnits="userSpaceOnUse" x1="998.1924" y1="-561.2207" x2="998.1924" y2="-496.2207">
		<stop  offset="0" style="stop-color:#231F20"/>
		<stop  offset="0.5" style="stop-color:#414042"/>
	</linearGradient>
	<circle fill="url(#SVGID_1_)" stroke="#231F20" stroke-miterlimit="10" cx="998.192" cy="-528.72" r="32.5"/>
	<polyline fill="none" stroke="#FFFFFF" stroke-width="2" stroke-miterlimit="10" points="1010.38,-531.153 998.193,-518.965 
		986.005,-531.153 	"/>
	<g id="Diensten_13_">
		<g>
			<text transform="matrix(1 0 0 1 914.1558 599.2993)" fill="#FFFFFF" font-family="'ProximaNova-Semibold'" font-size="15">2014 Orange Nanotech B.V.</text>
		</g>
	</g>
	<g id="Diensten_18_">
		<g>
			<text transform="matrix(1 0 0 1 1879.1768 599.2993)" fill="#FFFFFF" font-family="'ProximaNova-Regular'" font-size="20">Back to top</text>
		</g>
	</g>
	<line fill="none" stroke="#F1F2F2" stroke-miterlimit="10" x1="827.238" y1="226.191" x2="2107.085" y2="226.191"/>
	<rect x="1932.02" y="452.864" fill="#F89C1C" width="95.172" height="39.02"/>
	<g id="Diensten_1_">
		<g>
			<text transform="matrix(1 0 0 1 1951.1865 477.376)" fill="#FFFFFF" font-family="'ProximaNova-Semibold'" font-size="15">Sign up</text>
		</g>
	</g>
	<g>
		<circle fill="none" stroke="#FFFFFF" stroke-width="2" stroke-miterlimit="10" cx="2012.191" cy="592.499" r="15"/>
		<polyline fill="none" stroke="#FFFFFF" stroke-width="2" stroke-miterlimit="10" points="2017.816,594.622 2012.191,588.996 
			2006.566,594.622 		"/>
	</g>
	<polyline fill="none" stroke="#FFFFFF" stroke-width="2" stroke-miterlimit="10" points="2009.379,477.999 2015.005,472.374 
		2009.379,466.749 	"/>
	<linearGradient id="SVGID_2_" gradientUnits="userSpaceOnUse" x1="1467.3232" y1="342.374" x2="1467.3232" y2="322.374">
		<stop  offset="0.25" style="stop-color:#333333;stop-opacity:0.75"/>
		<stop  offset="1" style="stop-color:#231F20"/>
	</linearGradient>
	<rect x="827.399" y="322.374" fill="url(#SVGID_2_)" width="1279.848" height="20"/>
	<g>
		<circle fill="#FFFFFF" cx="1441.464" cy="-863.529" r="4.999"/>
		<g>
			<path fill="#FFFFFF" d="M1466.464-859.029c-1.202,0-2.332-0.468-3.182-1.318c-0.85-0.85-1.318-1.98-1.318-3.182
				s0.468-2.332,1.318-3.182c0.85-0.851,1.979-1.318,3.182-1.318s2.332,0.467,3.182,1.318c0.85,0.85,1.318,1.98,1.318,3.182
				c0,1.202-0.468,2.332-1.318,3.182C1468.796-859.498,1467.666-859.029,1466.464-859.029z"/>
			<path fill="#FFFFFF" d="M1466.464-867.529c1.068,0,2.073,0.416,2.829,1.171c0.755,0.755,1.171,1.76,1.171,2.829
				c0,1.068-0.416,2.072-1.172,2.828c-0.755,0.756-1.76,1.172-2.829,1.172c-1.068,0-2.073-0.416-2.828-1.171
				c-0.755-0.755-1.171-1.76-1.171-2.829c0-1.068,0.416-2.073,1.172-2.829C1464.392-867.113,1465.396-867.529,1466.464-867.529
				 M1466.464-868.529c-1.28,0-2.559,0.489-3.535,1.465c-1.953,1.952-1.953,5.118,0,7.071c0.977,0.976,2.256,1.464,3.535,1.464
				c1.28,0,2.56-0.488,3.536-1.465c1.953-1.953,1.953-5.119,0-7.07C1469.023-868.041,1467.744-868.529,1466.464-868.529
				L1466.464-868.529z"/>
		</g>
		<g>
			<path fill="#FFFFFF" d="M1490.626-859.029c-1.202,0-2.332-0.468-3.182-1.318c-0.85-0.85-1.318-1.98-1.318-3.182
				s0.468-2.332,1.318-3.182c0.85-0.851,1.979-1.318,3.182-1.318s2.332,0.467,3.182,1.318c0.85,0.85,1.318,1.98,1.318,3.182
				c0,1.202-0.468,2.332-1.318,3.182C1492.958-859.498,1491.828-859.029,1490.626-859.029z"/>
			<path fill="#FFFFFF" d="M1490.626-867.529c1.068,0,2.073,0.416,2.829,1.171c0.755,0.755,1.171,1.76,1.171,2.829
				c0,1.068-0.416,2.072-1.172,2.828c-0.755,0.756-1.76,1.172-2.829,1.172c-1.068,0-2.073-0.416-2.828-1.171
				c-0.755-0.755-1.171-1.76-1.171-2.829c0-1.068,0.416-2.073,1.172-2.829C1488.554-867.113,1489.558-867.529,1490.626-867.529
				 M1490.626-868.529c-1.28,0-2.559,0.489-3.535,1.465c-1.953,1.952-1.953,5.118,0,7.071c0.977,0.976,2.256,1.464,3.535,1.464
				c1.28,0,2.56-0.488,3.536-1.465c1.953-1.953,1.953-5.119,0-7.07C1493.186-868.041,1491.906-868.529,1490.626-868.529
				L1490.626-868.529z"/>
		</g>
	</g>
	<g>
		<g>
			<path fill="#414042" d="M1441.464-859.029c-1.202,0-2.332-0.468-3.182-1.318c-0.85-0.85-1.318-1.98-1.318-3.182
				s0.468-2.332,1.318-3.182c0.85-0.851,1.979-1.318,3.182-1.318s2.332,0.467,3.182,1.318c0.85,0.85,1.318,1.98,1.318,3.182
				c0,1.202-0.468,2.332-1.318,3.182C1443.796-859.498,1442.666-859.029,1441.464-859.029z"/>
			<path fill="#FFFFFF" d="M1441.464-867.529c1.068,0,2.073,0.416,2.829,1.171c0.755,0.755,1.171,1.76,1.171,2.829
				c0,1.068-0.416,2.072-1.172,2.828c-0.755,0.756-1.76,1.172-2.829,1.172c-1.068,0-2.073-0.416-2.828-1.171
				c-0.755-0.755-1.171-1.76-1.171-2.829c0-1.068,0.416-2.073,1.172-2.829C1439.392-867.113,1440.396-867.529,1441.464-867.529
				 M1441.464-868.529c-1.28,0-2.559,0.489-3.535,1.465c-1.953,1.952-1.953,5.118,0,7.071c0.977,0.976,2.256,1.464,3.535,1.464
				c1.28,0,2.56-0.488,3.536-1.465c1.953-1.953,1.953-5.119,0-7.07C1444.023-868.041,1442.744-868.529,1441.464-868.529
				L1441.464-868.529z"/>
		</g>
	</g>
	<g>
		<g>
			<g>
				<g>
					<path fill="#231F20" d="M1327.526,2.999c31.981,0,58,26.019,58,58s-26.019,58-58,58c-31.981,0-58-26.019-58-58
						S1295.545,2.999,1327.526,2.999 M1327.526,0.999c-33.087,0-60,26.919-60,60c0,33.086,26.913,60,60,60c33.088,0,60-26.913,60-60
						C1387.527,27.918,1360.614,0.999,1327.526,0.999L1327.526,0.999z"/>
				</g>
			</g>
		</g>
		<g>
			<path fill="none" stroke="#231F20" stroke-width="2" stroke-miterlimit="10" d="M1346.455,43.829
				c-4.729-5.278-11.569-8.624-19.187-8.624c-14.232,0-25.802,11.569-25.802,25.793c0,14.228,11.57,25.796,25.802,25.796
				c7.199,0,13.705-2.969,18.396-7.744"/>
		</g>
		<g>
			
				<line fill="none" stroke="#231F20" stroke-width="2" stroke-miterlimit="10" x1="1297.52" y1="55.138" x2="1332.942" y2="55.138"/>
			
				<line fill="none" stroke="#231F20" stroke-width="2" stroke-miterlimit="10" x1="1297.52" y1="66.863" x2="1332.942" y2="66.863"/>
		</g>
	</g>
	<g>
		<g>
			<g>
				<g>
					<path fill="#231F20" d="M-124.561,2.999c31.981,0,58,26.019,58,58s-26.019,58-58,58c-31.981,0-58-26.019-58-58
						S-156.542,2.999-124.561,2.999 M-124.561,0.999c-33.087,0-60,26.919-60,60c0,33.086,26.913,60,60,60c33.088,0,60-26.913,60-60
						C-64.56,27.918-91.473,0.999-124.561,0.999L-124.561,0.999z"/>
				</g>
			</g>
		</g>
		<g>
			<path fill="none" stroke="#231F20" stroke-width="2" stroke-miterlimit="10" d="M-105.632,43.829
				c-4.729-5.278-11.569-8.624-19.187-8.624c-14.232,0-25.802,11.569-25.802,25.793c0,14.228,11.57,25.796,25.802,25.796
				c7.199,0,13.705-2.969,18.396-7.744"/>
		</g>
		<g>
			
				<line fill="none" stroke="#231F20" stroke-width="2" stroke-miterlimit="10" x1="-154.567" y1="55.138" x2="-119.145" y2="55.138"/>
			
				<line fill="none" stroke="#231F20" stroke-width="2" stroke-miterlimit="10" x1="-154.567" y1="66.863" x2="-119.145" y2="66.863"/>
		</g>
	</g>
	<g>
		<g>
			<g>
				<g>
					<path fill="#231F20" d="M1042.191,3c31.981,0,58,26.019,58,58s-26.019,58-58,58c-31.981,0-58-26.019-58-58
						S1010.21,3,1042.191,3 M1042.191,1c-33.087,0-60,26.919-60,60c0,33.08,26.913,60,60,60c33.088,0,60-26.919,60-60
						C1102.191,27.92,1075.279,1,1042.191,1L1042.191,1z"/>
				</g>
			</g>
		</g>
		<path fill="none" stroke="#231F20" stroke-width="2" stroke-miterlimit="10" d="M1005.97,69.303
			c3.786,16.514,18.57,28.875,36.221,28.875c17.651,0,32.435-12.362,36.222-28.875"/>
		<path fill="none" stroke="#231F20" stroke-width="2" stroke-miterlimit="10" d="M1078.418,52.704
			c-3.779-16.528-18.569-28.902-36.228-28.902c-17.657,0-32.448,12.375-36.227,28.902"/>
		<g>
			<polygon fill="#F8F9F9" points="1004.262,42.704 1014.773,48.053 1004.884,54.487 			"/>
			<path fill="#231F20" d="M1005.352,44.381l7.425,3.778l-6.986,4.544L1005.352,44.381 M1003.172,41.027l0.183,3.458l0.439,8.324
				l0.183,3.46l2.905-1.89l6.986-4.545l2.903-1.888l-3.087-1.571l-7.425-3.778L1003.172,41.027L1003.172,41.027z"/>
		</g>
		<g>
			<polygon fill="#F8F9F9" points="1069.407,73.974 1079.288,67.52 1079.946,79.293 			"/>
			<path fill="#231F20" d="M1078.386,69.303l0.465,8.317l-7.444-3.758L1078.386,69.303 M1080.189,65.736l-2.897,1.893l-6.979,4.559
				l-2.904,1.896l3.096,1.563l7.444,3.758l3.092,1.562l-0.193-3.458l-0.465-8.317L1080.189,65.736L1080.189,65.736z"/>
		</g>
	</g>
	<g>
		<g>
			<g>
				<g>
					<path fill="#231F20" d="M-292.211,3c31.981,0,58,26.019,58,58s-26.019,58-58,58c-31.981,0-58-26.019-58-58
						S-324.192,3-292.211,3 M-292.211,1c-33.087,0-60,26.919-60,60c0,33.08,26.913,60,60,60c33.088,0,60-26.919,60-60
						C-232.21,27.92-259.123,1-292.211,1L-292.211,1z"/>
				</g>
			</g>
		</g>
		<path fill="none" stroke="#231F20" stroke-width="2" stroke-miterlimit="10" d="M-328.432,69.303
			c3.786,16.514,18.57,28.875,36.221,28.875c17.651,0,32.435-12.362,36.222-28.875"/>
		<path fill="none" stroke="#231F20" stroke-width="2" stroke-miterlimit="10" d="M-255.983,52.704
			c-3.779-16.528-18.569-28.902-36.228-28.902c-17.657,0-32.448,12.375-36.227,28.902"/>
		<g>
			<polygon fill="#F8F9F9" points="-330.14,42.704 -319.628,48.053 -329.518,54.487 			"/>
			<path fill="#231F20" d="M-329.05,44.381l7.425,3.778l-6.986,4.544L-329.05,44.381 M-331.23,41.027l0.183,3.458l0.439,8.324
				l0.183,3.46l2.905-1.89l6.986-4.545l2.903-1.888l-3.087-1.571l-7.425-3.778L-331.23,41.027L-331.23,41.027z"/>
		</g>
		<g>
			<polygon fill="#F8F9F9" points="-264.995,73.974 -255.114,67.52 -254.456,79.293 			"/>
			<path fill="#231F20" d="M-256.016,69.303l0.465,8.317l-7.444-3.758L-256.016,69.303 M-254.212,65.736l-2.897,1.893l-6.979,4.559
				l-2.904,1.896l3.096,1.563l7.444,3.758l3.092,1.562l-0.193-3.458l-0.465-8.317L-254.212,65.736L-254.212,65.736z"/>
		</g>
	</g>
	<g>
		<g>
			<g>
				<g>
					<path fill="#231F20" d="M1612.327,3c31.981,0,58,26.019,58,58c0,31.98-26.019,57.999-58,57.999c-31.981,0-58-26.018-58-57.999
						C1554.327,29.019,1580.346,3,1612.327,3 M1612.327,1c-33.087,0-60,26.919-60,60c0,33.08,26.913,59.999,60,59.999
						c33.088,0,60-26.918,60-59.999C1672.327,27.919,1645.415,1,1612.327,1L1612.327,1z"/>
				</g>
			</g>
		</g>
		<polygon fill="none" stroke="#231F20" stroke-width="2" stroke-linejoin="round" stroke-miterlimit="10" points="1652.227,48.144 
			1612.327,98.191 1572.82,48.144 		"/>
		<polygon fill="none" stroke="#231F20" stroke-width="2" stroke-linejoin="round" stroke-miterlimit="10" points="1652.227,48.144 
			1572.82,48.144 1591.123,23.808 1633.971,23.808 		"/>
		<polyline fill="none" stroke="#231F20" stroke-width="2" stroke-linejoin="round" stroke-miterlimit="10" points="
			1612.327,98.191 1595.627,48.144 1603.978,23.808 		"/>
		<polyline fill="none" stroke="#231F20" stroke-width="2" stroke-linejoin="round" stroke-miterlimit="10" points="
			1612.527,98.191 1629.226,48.144 1620.876,23.808 		"/>
	</g>
	<g>
		<g>
			<g>
				<g>
					<path fill="#231F20" d="M61,3c31.981,0,58,26.019,58,58c0,31.98-26.019,57.999-58,57.999C29.019,118.999,3,92.98,3,61
						C3,29.019,29.019,3,61,3 M61,1C27.913,1,1,27.919,1,61c0,33.08,26.913,59.999,60,59.999c33.088,0,60-26.918,60-59.999
						C121,27.919,94.087,1,61,1L61,1z"/>
				</g>
			</g>
		</g>
		<polygon fill="none" stroke="#231F20" stroke-width="2" stroke-linejoin="round" stroke-miterlimit="10" points="100.899,48.144 
			61,98.191 21.493,48.144 		"/>
		<polygon fill="none" stroke="#231F20" stroke-width="2" stroke-linejoin="round" stroke-miterlimit="10" points="100.899,48.144 
			21.493,48.144 39.795,23.808 82.644,23.808 		"/>
		<polyline fill="none" stroke="#231F20" stroke-width="2" stroke-linejoin="round" stroke-miterlimit="10" points="61,98.191 
			44.3,48.144 52.65,23.808 		"/>
		<polyline fill="none" stroke="#231F20" stroke-width="2" stroke-linejoin="round" stroke-miterlimit="10" points="61.2,98.191 
			77.899,48.144 69.549,23.808 		"/>
	</g>
	<g>
		<g>
			<g>
				<g>
					<path fill="#231F20" d="M1897.191,2.999c31.981,0,58,26.019,58,58c0,31.981-26.019,58-58,58c-31.981,0-58-26.019-58-58
						C1839.191,29.018,1865.21,2.999,1897.191,2.999 M1897.191,0.999c-33.08,0-60,26.913-60,60c0,33.08,26.919,60,60,60
						c33.088,0,60-26.919,60-60C1957.191,27.912,1930.279,0.999,1897.191,0.999L1897.191,0.999z"/>
				</g>
			</g>
		</g>
		<g>
			<g>
				<path fill="none" stroke="#231F20" stroke-width="2" stroke-miterlimit="10" d="M1897.191,23.808
					c20.513,0,37.193,16.68,37.193,37.191c0,20.505-16.68,37.192-37.193,37.192c-20.505,0-37.192-16.687-37.192-37.192
					C1859.999,40.487,1876.686,23.808,1897.191,23.808"/>
			</g>
		</g>
		<g>
			<g>
				<path fill="none" stroke="#231F20" stroke-width="2" stroke-miterlimit="10" d="M1897.191,23.808
					c8.205,0,14.876,16.68,14.876,37.191c0,20.505-6.672,37.192-14.876,37.192c-8.203,0-14.876-16.687-14.876-37.192
					C1882.314,40.487,1888.988,23.808,1897.191,23.808"/>
			</g>
		</g>
		
			<line fill="none" stroke="#231F20" stroke-width="2" stroke-miterlimit="10" x1="1862.979" y1="48.598" x2="1931.675" y2="48.598"/>
		
			<line fill="none" stroke="#231F20" stroke-width="2" stroke-miterlimit="10" x1="1862.979" y1="73.394" x2="1931.675" y2="73.394"/>
	</g>
	<g>
		<g>
			<g>
				<g>
					<path fill="#231F20" d="M230.676,2.999c31.981,0,58,26.019,58,58c0,31.981-26.019,58-58,58c-31.981,0-58-26.019-58-58
						C172.677,29.018,198.695,2.999,230.676,2.999 M230.676,0.999c-33.08,0-60,26.913-60,60c0,33.08,26.919,60,60,60
						c33.088,0,60-26.919,60-60C290.677,27.912,263.764,0.999,230.676,0.999L230.676,0.999z"/>
				</g>
			</g>
		</g>
		<g>
			<g>
				<path fill="none" stroke="#231F20" stroke-width="2" stroke-miterlimit="10" d="M230.676,23.808
					c20.513,0,37.193,16.68,37.193,37.191c0,20.505-16.68,37.192-37.193,37.192c-20.505,0-37.192-16.687-37.192-37.192
					C193.484,40.487,210.171,23.808,230.676,23.808"/>
			</g>
		</g>
		<g>
			<g>
				<path fill="none" stroke="#231F20" stroke-width="2" stroke-miterlimit="10" d="M230.676,23.808
					c8.205,0,14.876,16.68,14.876,37.191c0,20.505-6.672,37.192-14.876,37.192c-8.203,0-14.876-16.687-14.876-37.192
					C215.8,40.487,222.473,23.808,230.676,23.808"/>
			</g>
		</g>
		<line fill="none" stroke="#231F20" stroke-width="2" stroke-miterlimit="10" x1="196.465" y1="48.598" x2="265.16" y2="48.598"/>
		<line fill="none" stroke="#231F20" stroke-width="2" stroke-miterlimit="10" x1="196.465" y1="73.394" x2="265.16" y2="73.394"/>
	</g>
</g>
<g id="Icons" display="none">
	<rect x="827.238" y="-56.516" display="inline" fill="#F8F9F9" width="1279.848" height="324.226"/>
	<rect x="912.706" y="171.349" display="inline" fill="none" width="259.485" height="116.374"/>
	<text transform="matrix(1 0 0 1 942.5703 184.6885)" display="inline"><tspan x="0" y="0" fill="#3B3A3C" font-family="'ProximaNova-Bold'" font-size="20">Verlengen levensduur</tspan><tspan x="41.599" y="24" fill="#3B3A3C" font-family="'ProximaNova-Bold'" font-size="20">van objecten</tspan></text>
	<rect x="1197.021" y="171.349" display="inline" fill="none" width="264.442" height="116.374"/>
	<text transform="matrix(1 0 0 1 1297.6631 184.6885)" display="inline"><tspan x="0" y="0" fill="#3B3A3C" font-family="'ProximaNova-Bold'" font-size="20">Kosten </tspan><tspan x="-10.76" y="24" fill="#3B3A3C" font-family="'ProximaNova-Bold'" font-size="20">besparen</tspan></text>
	<rect x="1478.983" y="171.349" display="inline" fill="none" width="263.208" height="116.374"/>
	<text transform="matrix(1 0 0 1 1550.6182 184.6885)" display="inline"><tspan x="0" y="0" fill="#3B3A3C" font-family="'ProximaNova-Bold'" font-size="20">Grondstoffen </tspan><tspan x="29.02" y="24" fill="#3B3A3C" font-family="'ProximaNova-Bold'" font-size="20">sparen</tspan></text>
	<rect x="1767.449" y="171.349" display="inline" fill="none" width="262.062" height="116.374"/>
	<text transform="matrix(1 0 0 1 1834.8408 184.6885)" display="inline"><tspan x="0" y="0" fill="#3B3A3C" font-family="'ProximaNova-Bold'" font-size="20">Minimaliseren </tspan><tspan x="-5.47" y="24" fill="#3B3A3C" font-family="'ProximaNova-Bold'" font-size="20">milieubelasting</tspan></text>
	
		<rect x="1267.527" y="0.998" transform="matrix(0.7071 -0.7071 0.7071 0.7071 345.6967 956.5748)" display="inline" fill="#F89C1C" width="119.999" height="120"/>
	
		<rect x="983.091" y="0.998" transform="matrix(0.7071 -0.7071 0.7071 0.7071 262.3859 755.4466)" display="inline" fill="#F89C1C" width="119.999" height="120"/>
	
		<rect x="1552.527" y="0.998" transform="matrix(0.7071 -0.7071 0.7071 0.7071 429.1724 1158.1014)" display="inline" fill="#F89C1C" width="119.999" height="120"/>
	
		<rect x="1838.48" y="0.998" transform="matrix(0.7071 -0.7071 0.7071 0.7071 512.9272 1360.302)" display="inline" fill="#F89C1C" width="119.999" height="120"/>
	<g display="inline">
		<g>
			<g>
				<g>
					<path fill="#FFFFFF" d="M1327.527,17.999c23.71,0,43,19.29,43,43s-19.29,43-43,43s-43-19.29-43-43
						S1303.816,17.999,1327.527,17.999 M1327.527,15.999c-24.815,0-45,20.189-45,45c0,24.816,20.185,45,45,45s45-20.184,45-45
						C1372.527,36.188,1352.342,15.999,1327.527,15.999L1327.527,15.999z"/>
				</g>
			</g>
		</g>
		<g>
			<path fill="none" stroke="#FFFFFF" stroke-width="2" stroke-miterlimit="10" d="M1341.723,48.121
				c-3.547-3.958-8.677-6.468-14.39-6.468c-10.674,0-19.352,8.677-19.352,19.345c0,10.671,8.678,19.347,19.352,19.347
				c5.399,0,10.279-2.227,13.797-5.808"/>
		</g>
		<g>
			
				<line fill="none" stroke="#FFFFFF" stroke-width="2" stroke-miterlimit="10" x1="1305.022" y1="56.604" x2="1331.588" y2="56.604"/>
			
				<line fill="none" stroke="#FFFFFF" stroke-width="2" stroke-miterlimit="10" x1="1305.022" y1="65.397" x2="1331.588" y2="65.397"/>
		</g>
	</g>
	<g display="inline">
		<g>
			<g>
				<g>
					<path fill="#FFFFFF" d="M1042.191,18c23.71,0,43,19.29,43,43s-19.29,43-43,43c-23.71,0-43-19.29-43-43S1018.481,18,1042.191,18
						 M1042.191,16c-24.815,0-45,20.189-45,45c0,24.81,20.185,45,45,45c24.816,0,45-20.19,45-45
						C1087.191,36.189,1067.007,16,1042.191,16L1042.191,16z"/>
				</g>
			</g>
		</g>
		<path fill="none" stroke="#FFFFFF" stroke-width="2" stroke-miterlimit="10" d="M1015.025,67.228
			c2.84,12.385,13.928,21.656,27.166,21.656c13.239,0,24.326-9.271,27.167-21.656"/>
		<path fill="none" stroke="#FFFFFF" stroke-width="2" stroke-miterlimit="10" d="M1069.362,54.777
			c-2.834-12.396-13.927-21.677-27.171-21.677c-13.243,0-24.336,9.281-27.17,21.677"/>
		<g>
			<polygon fill="#F8F9F9" points="1013.472,46.858 1022.127,51.263 1013.984,56.561 			"/>
			<path fill="#FFFFFF" d="M1014.562,48.535l5.569,2.834l-5.239,3.408L1014.562,48.535 M1012.382,45.182l0.183,3.458l0.33,6.242
				l0.183,3.461l2.905-1.89l5.239-3.409l2.903-1.889l-3.087-1.57l-5.568-2.833L1012.382,45.182L1012.382,45.182z"/>
		</g>
		<g>
			<polygon fill="#F8F9F9" points="1062.104,70.757 1070.239,65.444 1070.781,75.138 			"/>
			<path fill="#FFFFFF" d="M1069.337,67.228l0.349,6.237l-5.583-2.819L1069.337,67.228 M1071.141,63.66l-2.897,1.893l-5.235,3.419
				l-2.904,1.896l3.096,1.563l5.583,2.818l3.091,1.562l-0.193-3.458l-0.349-6.238L1071.141,63.66L1071.141,63.66z"/>
		</g>
	</g>
	<g display="inline">
		<g>
			<g>
				<g>
					<path fill="#FFFFFF" d="M1612.191,18c23.71,0,43,19.29,43,43c0,23.709-19.29,42.999-43,42.999c-23.71,0-43-19.289-43-42.999
						C1569.191,37.29,1588.481,18,1612.191,18 M1612.191,16c-24.815,0-45,20.189-45,45c0,24.81,20.184,44.999,45,44.999
						c24.816,0,45-20.189,45-44.999C1657.191,36.189,1637.007,16,1612.191,16L1612.191,16z"/>
				</g>
			</g>
		</g>
		<polygon fill="none" stroke="#FFFFFF" stroke-width="2" stroke-linejoin="round" stroke-miterlimit="10" points="1642.116,51.358 
			1612.191,88.893 1582.561,51.358 		"/>
		<polygon fill="none" stroke="#FFFFFF" stroke-width="2" stroke-linejoin="round" stroke-miterlimit="10" points="1642.116,51.358 
			1582.561,51.358 1596.288,33.105 1628.424,33.105 		"/>
		<polyline fill="none" stroke="#FFFFFF" stroke-width="2" stroke-linejoin="round" stroke-miterlimit="10" points="
			1612.191,88.893 1599.667,51.358 1605.929,33.105 		"/>
		<polyline fill="none" stroke="#FFFFFF" stroke-width="2" stroke-linejoin="round" stroke-miterlimit="10" points="
			1612.341,88.893 1624.865,51.358 1618.603,33.105 		"/>
	</g>
	<g display="inline">
		<g>
			<g>
				<g>
					<path fill="#FFFFFF" d="M1898.479,17.999c23.71,0,43,19.29,43,43s-19.29,43-43,43c-23.71,0-43-19.29-43-43
						S1874.769,17.999,1898.479,17.999 M1898.479,15.999c-24.81,0-45,20.185-45,45c0,24.811,20.189,45,45,45
						c24.816,0,45-20.189,45-45C1943.479,36.184,1923.295,15.999,1898.479,15.999L1898.479,15.999z"/>
				</g>
			</g>
		</g>
		<g>
			<g>
				<path fill="none" stroke="#FFFFFF" stroke-width="2" stroke-miterlimit="10" d="M1898.479,33.105
					c15.385,0,27.895,12.51,27.895,27.894c0,15.379-12.51,27.894-27.895,27.894c-15.379,0-27.894-12.515-27.894-27.894
					C1870.585,45.615,1883.1,33.105,1898.479,33.105"/>
			</g>
		</g>
		<g>
			<g>
				<path fill="none" stroke="#FFFFFF" stroke-width="2" stroke-miterlimit="10" d="M1898.479,33.105
					c6.153,0,11.157,12.51,11.157,27.894c0,15.379-5.004,27.894-11.157,27.894c-6.152,0-11.157-12.515-11.157-27.894
					C1887.322,45.615,1892.327,33.105,1898.479,33.105"/>
			</g>
		</g>
		
			<line fill="none" stroke="#FFFFFF" stroke-width="2" stroke-miterlimit="10" x1="1872.821" y1="51.698" x2="1924.342" y2="51.698"/>
		
			<line fill="none" stroke="#FFFFFF" stroke-width="2" stroke-miterlimit="10" x1="1872.821" y1="70.295" x2="1924.342" y2="70.295"/>
	</g>
</g>
<g id="_x31_2_GRID__x2B__MARGIN">
</g>
</svg>
