<?xml version="1.0" encoding="utf-8"?>
<!-- Generator: Adobe Illustrator 16.0.0, SVG Export Plug-In . SVG Version: 6.00 Build 0)  -->
<!DOCTYPE svg PUBLIC "-//W3C//DTD SVG 1.1//EN" "http://www.w3.org/Graphics/SVG/1.1/DTD/svg11.dtd">
<svg version="1.1" xmlns="http://www.w3.org/2000/svg" xmlns:xlink="http://www.w3.org/1999/xlink" x="0px" y="0px" width="122px"
	 height="121.999px" viewBox="0 0 122 121.999" enable-background="new 0 0 122 121.999" xml:space="preserve">
<g id="background">
</g>
<g id="_x33__ONS_CONCEPT">
	<rect x="1015.13" y="-1431.945" fill="#F7941E" width="1277.516" height="602.353"/>
	<text transform="matrix(1 0 0 1 -6.4131 324.4668)" font-family="'ProximaNova-Semibold'" font-size="12" letter-spacing="32">	</text>
	<g>
	</g>
	<text transform="matrix(1 0 0 1 1015.2515 -1600.4844)"><tspan x="0" y="0" font-family="'MyriadPro-Regular'" font-size="50">laptop m</tspan><tspan x="0" y="60" font-family="'MyriadPro-Regular'" font-size="50">± 1280 px</tspan></text>
	<path fill="none" d="M11731.414-717.981"/>
	<path fill="none" d="M-4651.586-717.981"/>
	<rect x="1012.798" y="-829.592" fill="#FFFFFF" width="1280" height="300"/>
	<rect x="1012.798" y="322.375" fill="#333333" width="1280" height="300"/>
	<rect x="1012.798" y="-529.592" fill="#F8F9F9" width="1279.848" height="851.905"/>
	<rect x="1012.798" y="562.375" width="1280" height="60"/>
	<g id="Diensten_28_">
		<g>
			<text transform="matrix(1 0 0 1 1099.7158 467.812)"><tspan x="0" y="0" fill="#FFFFFF" font-family="'ProximaNova-Regular'" font-size="20">Vennewatersweg 2b</tspan><tspan x="0" y="24" fill="#FFFFFF" font-family="'ProximaNova-Regular'" font-size="20">1852 PT Heiloo Nederland</tspan></text>
		</g>
	</g>
	<g id="Diensten_27_">
		<g>
			<text transform="matrix(1 0 0 1 1384.4473 467.812)"><tspan x="0" y="0" fill="#FFFFFF" font-family="'ProximaNova-Regular'" font-size="20">+31 88 4720180</tspan><tspan x="0" y="24" fill="#FFFFFF" font-family="'ProximaNova-Regular'" font-size="20">info@orangenano.com</tspan></text>
		</g>
	</g>
	<g id="Diensten_25_">
		<g>
			<text transform="matrix(1 0 0 1 1857.7515 418.6421)" fill="#FFFFFF" font-family="'ProximaNova-Semibold'" font-size="15">Volg ons:</text>
		</g>
	</g>
	<rect x="1857.751" y="452.865" fill="#FFFFFF" width="355" height="39.02"/>
	<g id="Diensten_19_">
		<text transform="matrix(1 0 0 1 1877.7642 478.3774)" fill="#333333" font-family="'ProximaNova-Regular'" font-size="20">Nieuwsbrief</text>
	</g>
	<g>
		<circle fill="#FFFFFF" cx="2007.751" cy="414.614" r="15"/>
		<path fill="#333333" d="M2015.386,415.425c-0.163,0.869-0.662,2.19-2.114,3.643c-2.528,2.53-6.159,3.082-7.453,3.082
			c-1.291,0-5.476-0.191-8.364-4.147c0,0,3.787,3.385,7.59-0.189c-1.797,0.219-1.912-1.393-0.671-1.597
			c-1.824-0.076-2.13-0.684-2.357-1.216c-0.228-0.533,0.59-0.554,1.236-0.627c-1.246-0.434-2.266-1.203-2.149-2.003
			c0.076-0.313,1.14-0.034,1.066-0.262c-0.078-0.229-1.979-1.063-1.6-2.585c1.712,0.875,4.603,1.369,6.751,3.632
			c0.664-1.884,1.765-4.325,2.948-4.847c1.179-0.525,2.165-0.418,2.434,0.112c0.265,0.533-1.636,0.953-1.636,0.953
			c2.254-0.218,3.831,1.823,4.263,3.739c1.024,0.602,2.355,0.025,2.355,0.025s-0.288,1.026-2.018,1.176
			c-0.227,0.078,0.952,0.307,2.169,0.173C2017.204,415.329,2016.025,415.435,2015.386,415.425z"/>
	</g>
	<g>
		<circle fill="#FFFFFF" cx="1967.751" cy="414.614" r="15"/>
		<g id="facebook_3_">
			<path id="facebook_4_" fill="#333333" d="M1971.88,429.879v-11.208h3.364v-3.362h-3.364l0.007-1.873
				c0-1.011,0.338-1.487,1.788-1.487h1.57v-4.483h-3.364c-3.723,0-4.483,1.326-4.483,4.483v3.36h-2.241v3.362h2.241v11.208H1971.88z
				"/>
		</g>
	</g>
	<g>
		<path fill="#FFFFFF" d="M1115.562,391.951c8.401,0,15.889,6.135,15.889,16.106c0,9.926-7.488,16.062-15.889,16.062
			c-8.358,0-15.846-6.136-15.846-16.062C1099.716,398.086,1107.204,391.951,1115.562,391.951z M1115.562,418.286
			c4.788,0,9.666-3.308,9.666-10.273c0-6.963-4.878-10.274-9.666-10.274c-4.745,0-9.62,3.311-9.62,10.274
			C1105.942,414.978,1110.817,418.286,1115.562,418.286z"/>
		<path fill="#FFFFFF" d="M1147.777,407.793c-0.652-0.131-1.219-0.172-1.74-0.172c-2.962,0-5.53,1.437-5.53,6.051v9.795h-5.791
			v-21.419h5.618v3.178c1.307-2.83,4.265-3.351,6.094-3.351c0.479,0,0.916,0.043,1.349,0.086V407.793z"/>
		<path fill="#FFFFFF" d="M1155.213,411.147l5.267-0.783c1.219-0.176,1.61-0.785,1.61-1.524c0-1.522-1.173-2.786-3.611-2.786
			c-2.525,0-3.92,1.608-4.092,3.482l-5.139-1.087c0.348-3.354,3.44-7.052,9.186-7.052c6.791,0,9.316,3.83,9.316,8.139v10.535
			c0,1.132,0.13,2.656,0.261,3.396h-5.309c-0.133-0.566-0.218-1.743-0.218-2.568c-1.088,1.698-3.135,3.178-6.312,3.178
			c-4.572,0-7.357-3.092-7.357-6.443C1148.814,413.803,1151.643,411.669,1155.213,411.147z M1162.09,414.803v-0.958l-4.83,0.742
			c-1.482,0.216-2.655,1.043-2.655,2.699c0,1.262,0.912,2.479,2.786,2.479C1159.829,419.765,1162.09,418.594,1162.09,414.803z"/>
		<path fill="#FFFFFF" d="M1177.458,423.468h-5.788v-21.419h5.615v2.656c1.307-2.219,3.874-3.222,6.182-3.222
			c5.312,0,7.749,3.789,7.749,8.488v13.498h-5.79v-12.494c0-2.395-1.174-4.265-3.96-4.265c-2.525,0-4.008,1.958-4.008,4.438V423.468
			z"/>
		<path fill="#FFFFFF" d="M1199.004,423.25c0.391,2.349,2.265,4.046,5.008,4.046c3.656,0,5.703-1.827,5.703-5.963v-1.568
			c-0.873,1.395-2.874,2.745-5.966,2.745c-5.702,0-9.968-4.396-9.968-10.405c0-5.66,4.092-10.447,9.968-10.447
			c3.396,0,5.357,1.479,6.097,2.916v-2.525h5.572v19.111c0,5.875-3.18,11.232-11.232,11.232c-5.878,0-9.795-3.659-10.404-7.749
			L1199.004,423.25z M1209.8,412.105c0-3.308-2.262-5.396-5.048-5.396c-2.874,0-5.138,2.088-5.138,5.396
			c0,3.353,2.134,5.441,5.138,5.441C1207.711,417.546,1209.8,415.413,1209.8,412.105z"/>
		<path fill="#FFFFFF" d="M1238.903,417.329c-1.089,3.701-4.485,6.791-9.751,6.791c-5.878,0-11.059-4.222-11.059-11.447
			c0-6.837,5.051-11.275,10.535-11.275c6.618,0,10.581,4.223,10.581,11.099c0,0.827-0.088,1.698-0.088,1.786h-15.325
			c0.134,2.83,2.526,4.875,5.399,4.875c2.698,0,4.177-1.349,4.875-3.264L1238.903,417.329z M1233.505,410.319
			c-0.087-2.131-1.482-4.224-4.789-4.224c-3.004,0-4.657,2.266-4.787,4.224H1233.505z"/>
		<path fill="#FFFFFF" d="M1272.381,423.468l-14.019-21.898v21.898h-6.009v-30.866h7.488l12.842,20.418v-20.418h6.009v30.866
			H1272.381z"/>
		<path fill="#FFFFFF" d="M1288.732,411.147l5.27-0.783c1.219-0.176,1.609-0.785,1.609-1.524c0-1.522-1.176-2.786-3.614-2.786
			c-2.525,0-3.916,1.608-4.093,3.482l-5.136-1.087c0.349-3.354,3.439-7.052,9.187-7.052c6.791,0,9.316,3.83,9.316,8.139v10.535
			c0,1.132,0.13,2.656,0.261,3.396h-5.312c-0.13-0.566-0.218-1.743-0.218-2.568c-1.089,1.698-3.136,3.178-6.312,3.178
			c-4.572,0-7.358-3.092-7.358-6.443C1282.333,413.803,1285.164,411.669,1288.732,411.147z M1295.611,414.803v-0.958l-4.833,0.742
			c-1.479,0.216-2.655,1.043-2.655,2.699c0,1.262,0.915,2.479,2.787,2.479C1293.346,419.765,1295.611,418.594,1295.611,414.803z"/>
		<path fill="#FFFFFF" d="M1310.979,423.468h-5.791v-21.419h5.617v2.656c1.305-2.219,3.875-3.222,6.182-3.222
			c5.309,0,7.749,3.789,7.749,8.488v13.498h-5.791v-12.494c0-2.395-1.175-4.265-3.961-4.265c-2.526,0-4.005,1.958-4.005,4.438
			V423.468z"/>
		<path fill="#FFFFFF" d="M1349.804,412.757c0,6.576-4.834,11.362-11.234,11.362c-6.398,0-11.232-4.786-11.232-11.362
			c0-6.616,4.834-11.36,11.232-11.36C1344.969,401.397,1349.804,406.141,1349.804,412.757z M1344.012,412.757
			c0-4.048-2.61-6.094-5.443-6.094c-2.828,0-5.441,2.046-5.441,6.094c0,4.008,2.613,6.097,5.441,6.097
			C1341.402,418.854,1344.012,416.807,1344.012,412.757z"/>
		<path fill="#FFFFFF" d="M1355.434,398.313c2.588,0,4.694,2.117,4.694,4.708c0,2.572-2.106,4.693-4.694,4.693
			c-2.59,0-4.67-2.121-4.67-4.693C1350.764,400.431,1352.844,398.313,1355.434,398.313z M1355.434,406.71
			c2.016,0,3.592-1.623,3.592-3.688c0-2.082-1.576-3.706-3.592-3.706c-2.018,0-3.591,1.624-3.591,3.706
			C1351.843,405.087,1353.417,406.71,1355.434,406.71z M1355.319,403.755h-0.366v1.765h-1.208v-5.075h2.006
			c0.976,0,1.738,0.737,1.738,1.65c0,0.671-0.394,1.218-0.978,1.47l1.015,1.956h-1.332L1355.319,403.755z M1355.536,402.766
			c0.457,0,0.735-0.253,0.735-0.659c0-0.417-0.278-0.673-0.735-0.673h-0.583v1.333H1355.536z"/>
	</g>
	<g>
		<path fill="#FFFFFF" d="M400.348,391.951c8.401,0,15.889,6.135,15.889,16.106c0,9.926-7.488,16.062-15.889,16.062
			c-8.358,0-15.846-6.136-15.846-16.062C384.501,398.086,391.99,391.951,400.348,391.951z M400.348,418.286
			c4.788,0,9.666-3.308,9.666-10.273c0-6.963-4.878-10.274-9.666-10.274c-4.745,0-9.62,3.311-9.62,10.274
			C390.728,414.978,395.603,418.286,400.348,418.286z"/>
		<path fill="#FFFFFF" d="M432.562,407.793c-0.652-0.131-1.219-0.172-1.74-0.172c-2.962,0-5.53,1.437-5.53,6.051v9.795h-5.791
			v-21.419h5.618v3.178c1.307-2.83,4.265-3.351,6.094-3.351c0.479,0,0.916,0.043,1.349,0.086V407.793z"/>
		<path fill="#FFFFFF" d="M439.999,411.147l5.267-0.783c1.219-0.176,1.61-0.785,1.61-1.524c0-1.522-1.173-2.786-3.611-2.786
			c-2.525,0-3.92,1.608-4.092,3.482l-5.139-1.087c0.348-3.354,3.44-7.052,9.186-7.052c6.791,0,9.316,3.83,9.316,8.139v10.535
			c0,1.132,0.13,2.656,0.261,3.396h-5.309c-0.133-0.566-0.218-1.743-0.218-2.568c-1.088,1.698-3.135,3.178-6.312,3.178
			c-4.572,0-7.357-3.092-7.357-6.443C433.6,413.803,436.429,411.669,439.999,411.147z M446.876,414.803v-0.958l-4.83,0.742
			c-1.482,0.216-2.655,1.043-2.655,2.699c0,1.262,0.912,2.479,2.786,2.479C444.614,419.765,446.876,418.594,446.876,414.803z"/>
		<path fill="#FFFFFF" d="M462.243,423.468h-5.788v-21.419h5.615v2.656c1.307-2.219,3.874-3.222,6.182-3.222
			c5.312,0,7.749,3.789,7.749,8.488v13.498h-5.79v-12.494c0-2.395-1.174-4.265-3.96-4.265c-2.525,0-4.008,1.958-4.008,4.438V423.468
			z"/>
		<path fill="#FFFFFF" d="M483.79,423.25c0.391,2.349,2.265,4.046,5.008,4.046c3.656,0,5.703-1.827,5.703-5.963v-1.568
			c-0.873,1.395-2.874,2.745-5.966,2.745c-5.702,0-9.968-4.396-9.968-10.405c0-5.66,4.092-10.447,9.968-10.447
			c3.396,0,5.357,1.479,6.097,2.916v-2.525h5.572v19.111c0,5.875-3.18,11.232-11.232,11.232c-5.878,0-9.795-3.659-10.404-7.749
			L483.79,423.25z M494.585,412.105c0-3.308-2.262-5.396-5.048-5.396c-2.874,0-5.138,2.088-5.138,5.396
			c0,3.353,2.134,5.441,5.138,5.441C492.497,417.546,494.585,415.413,494.585,412.105z"/>
		<path fill="#FFFFFF" d="M523.688,417.329c-1.089,3.701-4.485,6.791-9.751,6.791c-5.878,0-11.059-4.222-11.059-11.447
			c0-6.837,5.051-11.275,10.535-11.275c6.618,0,10.581,4.223,10.581,11.099c0,0.827-0.088,1.698-0.088,1.786h-15.325
			c0.134,2.83,2.526,4.875,5.399,4.875c2.698,0,4.177-1.349,4.875-3.264L523.688,417.329z M518.291,410.319
			c-0.087-2.131-1.482-4.224-4.789-4.224c-3.004,0-4.657,2.266-4.787,4.224H518.291z"/>
		<path fill="#FFFFFF" d="M557.167,423.468l-14.019-21.898v21.898h-6.009v-30.866h7.488l12.842,20.418v-20.418h6.009v30.866H557.167
			z"/>
		<path fill="#FFFFFF" d="M573.518,411.147l5.27-0.783c1.219-0.176,1.609-0.785,1.609-1.524c0-1.522-1.176-2.786-3.614-2.786
			c-2.525,0-3.916,1.608-4.093,3.482l-5.136-1.087c0.349-3.354,3.439-7.052,9.187-7.052c6.791,0,9.316,3.83,9.316,8.139v10.535
			c0,1.132,0.13,2.656,0.261,3.396h-5.312c-0.13-0.566-0.218-1.743-0.218-2.568c-1.089,1.698-3.136,3.178-6.312,3.178
			c-4.572,0-7.358-3.092-7.358-6.443C567.118,413.803,569.949,411.669,573.518,411.147z M580.396,414.803v-0.958l-4.833,0.742
			c-1.479,0.216-2.655,1.043-2.655,2.699c0,1.262,0.915,2.479,2.787,2.479C578.131,419.765,580.396,418.594,580.396,414.803z"/>
		<path fill="#FFFFFF" d="M595.765,423.468h-5.791v-21.419h5.617v2.656c1.305-2.219,3.875-3.222,6.182-3.222
			c5.309,0,7.749,3.789,7.749,8.488v13.498h-5.791v-12.494c0-2.395-1.175-4.265-3.961-4.265c-2.526,0-4.005,1.958-4.005,4.438
			V423.468z"/>
		<path fill="#FFFFFF" d="M634.589,412.757c0,6.576-4.834,11.362-11.234,11.362c-6.398,0-11.232-4.786-11.232-11.362
			c0-6.616,4.834-11.36,11.232-11.36C629.755,401.397,634.589,406.141,634.589,412.757z M628.798,412.757
			c0-4.048-2.61-6.094-5.443-6.094c-2.828,0-5.441,2.046-5.441,6.094c0,4.008,2.613,6.097,5.441,6.097
			C626.188,418.854,628.798,416.807,628.798,412.757z"/>
		<path fill="#FFFFFF" d="M640.22,398.313c2.588,0,4.694,2.117,4.694,4.708c0,2.572-2.106,4.693-4.694,4.693
			c-2.59,0-4.67-2.121-4.67-4.693C635.55,400.431,637.63,398.313,640.22,398.313z M640.22,406.71c2.016,0,3.592-1.623,3.592-3.688
			c0-2.082-1.576-3.706-3.592-3.706c-2.018,0-3.591,1.624-3.591,3.706C636.629,405.087,638.202,406.71,640.22,406.71z
			 M640.104,403.755h-0.366v1.765h-1.208v-5.075h2.006c0.976,0,1.738,0.737,1.738,1.65c0,0.671-0.394,1.218-0.978,1.47l1.015,1.956
			h-1.332L640.104,403.755z M640.321,402.766c0.457,0,0.735-0.253,0.735-0.659c0-0.417-0.278-0.673-0.735-0.673h-0.583v1.333
			H640.321z"/>
	</g>
	<rect x="1382.582" y="-426.698" fill="none" width="731.708" height="551.103"/>
	<text transform="matrix(1 0 0 1 1382.5815 -402.6875)"><tspan x="0" y="0" fill="#231F20" font-family="'ProximaNova-Semibold'" font-size="36">Producten</tspan><tspan x="0" y="74.4" fill="#3B3A3C" font-family="'ProximaNova-Light'" font-size="26">anotechnologie stelt ons in staat om stoffen op moleculair niveau </tspan><tspan x="0" y="105.6" fill="#3B3A3C" font-family="'ProximaNova-Light'" font-size="26">te bewerken. Dit maakt het mogelijk om materialen bij</tspan><tspan x="0" y="160.8" fill="#3B3A3C" font-family="'ProximaNova-Regular'" font-size="20">Coatingproducten vormen één van de toepassingsgebieden van de </tspan><tspan x="0" y="184.8" fill="#3B3A3C" font-family="'ProximaNova-Regular'" font-size="20">Nanotechnologie. Met Nanocoatings kunnen materialen worden voorzien </tspan><tspan x="0" y="208.8" fill="#3B3A3C" font-family="'ProximaNova-Regular'" font-size="20">van een zeer dunne en onzichtbare beschermlaag die de ondergrond beschermt </tspan><tspan x="0" y="232.8" fill="#3B3A3C" font-family="'ProximaNova-Regular'" font-size="20">tegen invloeden van buitenaf  zoals het weer en chemicaliën.</tspan><tspan x="0" y="280.8" fill="#3B3A3C" font-family="'ProximaNova-Regular'" font-size="20">Nanocoatings besparen kosten. Enerzijds omdat de levensduur van het gecoate </tspan><tspan x="0" y="304.8" fill="#3B3A3C" font-family="'ProximaNova-Regular'" font-size="20">object met jaren wordt verlengd anderzijds omdat het  onderhoud ervan minder </tspan><tspan x="0" y="328.8" fill="#3B3A3C" font-family="'ProximaNova-Regular'" font-size="20">vaak hoeft plaats te vinden en tegelijkertijd eenvoudiger wordt. </tspan></text>
	<rect x="1098.266" y="151.337" fill="none" width="259.485" height="116.374"/>
	<text transform="matrix(1 0 0 1 1128.1304 164.6768)"><tspan x="0" y="0" fill="#3B3A3C" font-family="'ProximaNova-Bold'" font-size="20">Verlengen levensduur</tspan><tspan x="41.599" y="24" fill="#3B3A3C" font-family="'ProximaNova-Bold'" font-size="20">van objecten</tspan></text>
	<rect x="1382.582" y="151.337" fill="none" width="264.442" height="116.374"/>
	<text transform="matrix(1 0 0 1 1483.2231 164.6768)"><tspan x="0" y="0" fill="#3B3A3C" font-family="'ProximaNova-Bold'" font-size="20">Kosten </tspan><tspan x="-10.76" y="24" fill="#3B3A3C" font-family="'ProximaNova-Bold'" font-size="20">besparen</tspan></text>
	<rect x="1664.543" y="151.337" fill="none" width="263.208" height="116.374"/>
	<text transform="matrix(1 0 0 1 1736.1782 164.6768)"><tspan x="0" y="0" fill="#3B3A3C" font-family="'ProximaNova-Bold'" font-size="20">Grondstoffen </tspan><tspan x="29.02" y="24" fill="#3B3A3C" font-family="'ProximaNova-Bold'" font-size="20">sparen</tspan></text>
	<rect x="1953.009" y="151.337" fill="none" width="262.062" height="116.374"/>
	<text transform="matrix(1 0 0 1 2020.4009 164.6768)"><tspan x="0" y="0" fill="#3B3A3C" font-family="'ProximaNova-Bold'" font-size="20">Minimaliseren </tspan><tspan x="-5.47" y="24" fill="#3B3A3C" font-family="'ProximaNova-Bold'" font-size="20">milieubelasting</tspan></text>
	<text transform="matrix(1 0 0 1 1096.269 -402.3555)" font-family="'ProximaNova-Semibold'" font-size="15">Concept - 3 - Producten</text>
	<text transform="matrix(1 0 0 1 1096.269 -721.7295)" font-family="'ProximaNova-Semibold'" font-size="15">Home - 2 - Ons Concept</text>
	<rect x="1382.751" y="-744.895" fill="none" width="735" height="173.086"/>
	<text transform="matrix(1 0 0 1 1382.7515 -720.8828)"><tspan x="0" y="0" fill="#231F20" font-family="'ProximaNova-Semibold'" font-size="36">Orange Nanotech</tspan><tspan x="0" y="67.2" fill="#3B3A3C" font-family="'ProximaNova-Regular'" font-size="20">Geld en grondstoffen zijn schaars en het milieu staat onder druk. Wij bieden </tspan><tspan x="0" y="91.2" fill="#3B3A3C" font-family="'ProximaNova-Regular'" font-size="20">oplossingen die de levensduur van kapitaalgoederen verlengen en het gebruik van </tspan><tspan x="0" y="115.2" fill="#3B3A3C" font-family="'ProximaNova-Regular'" font-size="20">grondstoffen verlagen om zo het milieu en kosten te sparen.</tspan></text>
	<rect x="1100.626" y="-1143.719" fill="none" width="1114.444" height="52.709"/>
	<text transform="matrix(1 0 0 1 1441.6724 -1095.6953)" fill="#FFFFFF" font-family="'ProximaNova-Semibold'" font-size="72">Orange Nano</text>
	<path fill="none" stroke="#414042" stroke-miterlimit="10" d="M1012.798-1369.592"/>
	<path fill="none" stroke="#414042" stroke-miterlimit="10" d="M2295.601-1369.592"/>
	<polyline fill="none" stroke="#FFFFFF" stroke-width="2" stroke-miterlimit="10" points="1112.815,-1105.136 1100.626,-1117.322 
		1112.815,-1129.51 	"/>
	<polyline fill="none" stroke="#FFFFFF" stroke-width="2" stroke-miterlimit="10" points="2200.563,-1105.136 2212.751,-1117.322 
		2200.563,-1129.51 	"/>
	<rect x="1012.798" y="-1429.592" fill="#333333" width="1280" height="60"/>
	<g id="Over_Ons_18_">
		<g>
			<text transform="matrix(1 0 0 1 2174.7329 -1394.4219)" fill="#FFFFFF" font-family="'ProximaNova-Semibold'" font-size="15">Login</text>
		</g>
	</g>
	<g id="Diensten_15_">
		<g>
			<text transform="matrix(1 0 0 1 1447.8052 -1394.4219)" fill="#FFFFFF" font-family="'ProximaNova-Regular'" font-size="20">Concept</text>
		</g>
	</g>
	<g id="Over_Ons_17_">
		<g>
			<text transform="matrix(1 0 0 1 1708.9243 -1394.4219)" fill="#FFFFFF" font-family="'ProximaNova-Regular'" font-size="20">Over Ons</text>
		</g>
	</g>
	<g id="Over_Ons_15_">
		<g>
			<text transform="matrix(1 0 0 1 1817.2207 -1394.4219)" fill="#FFFFFF" font-family="'ProximaNova-Regular'" font-size="20">Contact</text>
		</g>
	</g>
	<g id="Over_Ons_8_">
		<g>
			<text transform="matrix(1 0 0 1 1541.7397 -1394.4219)" fill="#FFFFFF" font-family="'ProximaNova-Regular'" font-size="20">Nanotechnologie</text>
		</g>
	</g>
	<g id="Over_Ons_1_">
		<g>
			<text transform="matrix(1 0 0 1 1192.7515 -1394.4219)" fill="#FFFFFF" font-family="'ProximaNova-Regular'" font-size="20">Toepassingen</text>
		</g>
	</g>
	<g id="Contact_2_">
		<g>
			<text transform="matrix(1 0 0 1 1335.5786 -1394.4219)" fill="#FFFFFF" font-family="'ProximaNova-Regular'" font-size="20">Producten</text>
		</g>
	</g>
	<g>
		<polygon fill="#FFFFFF" points="1121.393,-1399.043 1115.98,-1407.647 1112.825,-1407.647 1112.825,-1394.641 1115.357,-1394.641 
			1115.357,-1403.868 1121.264,-1394.641 1123.924,-1394.641 1123.924,-1407.647 1121.393,-1407.647 		"/>
		<path fill="#FFFFFF" d="M1118.375-1419.895c-10.339,0-18.75,8.411-18.75,18.75c0,10.339,8.411,18.75,18.75,18.75
			c10.34,0,18.75-8.411,18.75-18.75C1137.125-1411.484,1128.715-1419.895,1118.375-1419.895z M1118.375-1387.129
			c-7.727,0-14.014-6.289-14.014-14.016c0-7.729,6.287-14.012,14.014-14.012s14.014,6.283,14.014,14.012
			C1132.389-1393.417,1126.102-1387.129,1118.375-1387.129z"/>
	</g>
	<g>
		<polygon fill="#FFFFFF" points="625.829,-1399.043 620.416,-1407.647 617.261,-1407.647 617.261,-1394.641 619.793,-1394.641 
			619.793,-1403.868 625.7,-1394.641 628.36,-1394.641 628.36,-1407.647 625.829,-1407.647 		"/>
		<path fill="#FFFFFF" d="M622.811-1419.895c-10.339,0-18.75,8.411-18.75,18.75c0,10.339,8.411,18.75,18.75,18.75
			c10.34,0,18.75-8.411,18.75-18.75C641.561-1411.484,633.151-1419.895,622.811-1419.895z M622.811-1387.129
			c-7.727,0-14.014-6.289-14.014-14.016c0-7.729,6.287-14.012,14.014-14.012s14.014,6.283,14.014,14.012
			C636.825-1393.417,630.538-1387.129,622.811-1387.129z"/>
	</g>
	<linearGradient id="SVGID_1_" gradientUnits="userSpaceOnUse" x1="1183.7524" y1="-561.2197" x2="1183.7524" y2="-496.2197">
		<stop  offset="0" style="stop-color:#231F20"/>
		<stop  offset="0.5" style="stop-color:#414042"/>
	</linearGradient>
	<circle fill="url(#SVGID_1_)" stroke="#231F20" stroke-miterlimit="10" cx="1183.752" cy="-528.719" r="32.5"/>
	<polyline fill="none" stroke="#FFFFFF" stroke-width="2" stroke-miterlimit="10" points="1195.94,-531.152 1183.753,-518.964 
		1171.565,-531.152 	"/>
	<g id="Diensten_13_">
		<g>
			<text transform="matrix(1 0 0 1 1099.7158 599.3003)" fill="#FFFFFF" font-family="'ProximaNova-Semibold'" font-size="15">2014 Orange Nanotech B.V.</text>
		</g>
	</g>
	<g id="Diensten_18_">
		<g>
			<text transform="matrix(1 0 0 1 2064.7368 599.3003)" fill="#FFFFFF" font-family="'ProximaNova-Regular'" font-size="20">Back to top</text>
		</g>
	</g>
	<line fill="none" stroke="#F1F2F2" stroke-miterlimit="10" x1="1012.798" y1="226.192" x2="2292.646" y2="226.192"/>
	<rect x="2117.58" y="452.865" fill="#F89C1C" width="95.172" height="39.02"/>
	<g id="Diensten_1_">
		<g>
			<text transform="matrix(1 0 0 1 2136.7466 477.377)" fill="#FFFFFF" font-family="'ProximaNova-Semibold'" font-size="15">Sign up</text>
		</g>
	</g>
	<g>
		<circle fill="none" stroke="#FFFFFF" stroke-width="2" stroke-miterlimit="10" cx="2197.751" cy="592.5" r="15"/>
		<polyline fill="none" stroke="#FFFFFF" stroke-width="2" stroke-miterlimit="10" points="2203.376,594.623 2197.751,588.997 
			2192.126,594.623 		"/>
	</g>
	<polyline fill="none" stroke="#FFFFFF" stroke-width="2" stroke-miterlimit="10" points="2194.939,478 2200.565,472.375 
		2194.939,466.75 	"/>
	<linearGradient id="SVGID_2_" gradientUnits="userSpaceOnUse" x1="1652.8833" y1="342.375" x2="1652.8833" y2="322.375">
		<stop  offset="0.25" style="stop-color:#333333;stop-opacity:0.75"/>
		<stop  offset="1" style="stop-color:#231F20"/>
	</linearGradient>
	<rect x="1012.959" y="322.375" fill="url(#SVGID_2_)" width="1279.848" height="20"/>
	<g>
		<circle fill="#FFFFFF" cx="1627.024" cy="-863.528" r="4.999"/>
		<g>
			<path fill="#FFFFFF" d="M1652.024-859.028c-1.202,0-2.332-0.468-3.182-1.318c-0.85-0.85-1.318-1.98-1.318-3.182
				s0.468-2.332,1.318-3.182c0.85-0.851,1.979-1.318,3.182-1.318s2.332,0.467,3.182,1.318c0.85,0.85,1.318,1.98,1.318,3.182
				c0,1.202-0.468,2.332-1.318,3.182C1654.356-859.497,1653.226-859.028,1652.024-859.028z"/>
			<path fill="#FFFFFF" d="M1652.024-867.528c1.068,0,2.073,0.416,2.829,1.171c0.755,0.755,1.171,1.76,1.171,2.829
				c0,1.068-0.416,2.072-1.172,2.828c-0.755,0.756-1.76,1.172-2.829,1.172c-1.068,0-2.073-0.416-2.828-1.171
				c-0.755-0.755-1.171-1.76-1.171-2.829c0-1.068,0.416-2.073,1.172-2.829C1649.952-867.112,1650.956-867.528,1652.024-867.528
				 M1652.024-868.528c-1.28,0-2.559,0.489-3.535,1.465c-1.953,1.952-1.953,5.118,0,7.071c0.977,0.976,2.256,1.464,3.535,1.464
				c1.28,0,2.56-0.488,3.536-1.465c1.953-1.953,1.953-5.119,0-7.07C1654.583-868.04,1653.304-868.528,1652.024-868.528
				L1652.024-868.528z"/>
		</g>
		<g>
			<path fill="#FFFFFF" d="M1676.186-859.028c-1.202,0-2.332-0.468-3.182-1.318c-0.85-0.85-1.318-1.98-1.318-3.182
				s0.468-2.332,1.318-3.182c0.85-0.851,1.979-1.318,3.182-1.318s2.332,0.467,3.182,1.318c0.85,0.85,1.318,1.98,1.318,3.182
				c0,1.202-0.468,2.332-1.318,3.182C1678.519-859.497,1677.388-859.028,1676.186-859.028z"/>
			<path fill="#FFFFFF" d="M1676.187-867.528c1.068,0,2.073,0.416,2.829,1.171c0.755,0.755,1.171,1.76,1.171,2.829
				c0,1.068-0.416,2.072-1.172,2.828c-0.755,0.756-1.76,1.172-2.829,1.172c-1.068,0-2.073-0.416-2.828-1.171
				c-0.755-0.755-1.171-1.76-1.171-2.829c0-1.068,0.416-2.073,1.172-2.829C1674.114-867.112,1675.118-867.528,1676.187-867.528
				 M1676.187-868.528c-1.28,0-2.559,0.489-3.535,1.465c-1.953,1.952-1.953,5.118,0,7.071c0.977,0.976,2.256,1.464,3.535,1.464
				c1.28,0,2.56-0.488,3.536-1.465c1.953-1.953,1.953-5.119,0-7.07C1678.746-868.04,1677.466-868.528,1676.187-868.528
				L1676.187-868.528z"/>
		</g>
	</g>
	<g>
		<g>
			<path fill="#414042" d="M1627.024-859.028c-1.202,0-2.332-0.468-3.182-1.318c-0.85-0.85-1.318-1.98-1.318-3.182
				s0.468-2.332,1.318-3.182c0.85-0.851,1.979-1.318,3.182-1.318s2.332,0.467,3.182,1.318c0.85,0.85,1.318,1.98,1.318,3.182
				c0,1.202-0.468,2.332-1.318,3.182C1629.356-859.497,1628.226-859.028,1627.024-859.028z"/>
			<path fill="#FFFFFF" d="M1627.024-867.528c1.068,0,2.073,0.416,2.829,1.171c0.755,0.755,1.171,1.76,1.171,2.829
				c0,1.068-0.416,2.072-1.172,2.828c-0.755,0.756-1.76,1.172-2.829,1.172c-1.068,0-2.073-0.416-2.828-1.171
				c-0.755-0.755-1.171-1.76-1.171-2.829c0-1.068,0.416-2.073,1.172-2.829C1624.952-867.112,1625.956-867.528,1627.024-867.528
				 M1627.024-868.528c-1.28,0-2.559,0.489-3.535,1.465c-1.953,1.952-1.953,5.118,0,7.071c0.977,0.976,2.256,1.464,3.535,1.464
				c1.28,0,2.56-0.488,3.536-1.465c1.953-1.953,1.953-5.119,0-7.07C1629.583-868.04,1628.304-868.528,1627.024-868.528
				L1627.024-868.528z"/>
		</g>
	</g>
	<g>
		<g>
			<g>
				<g>
					<path fill="#231F20" d="M1513.086,3c31.981,0,58,26.019,58,58s-26.019,58-58,58c-31.981,0-58-26.019-58-58
						S1481.105,3,1513.086,3 M1513.086,1c-33.087,0-60,26.919-60,60c0,33.086,26.913,60,60,60c33.088,0,60-26.913,60-60
						C1573.087,27.919,1546.174,1,1513.086,1L1513.086,1z"/>
				</g>
			</g>
		</g>
		<g>
			<path fill="none" stroke="#231F20" stroke-width="2" stroke-miterlimit="10" d="M1532.015,43.83
				c-4.729-5.278-11.569-8.624-19.187-8.624c-14.232,0-25.802,11.569-25.802,25.793c0,14.228,11.57,25.796,25.802,25.796
				c7.199,0,13.705-2.969,18.396-7.744"/>
		</g>
		<g>
			
				<line fill="none" stroke="#231F20" stroke-width="2" stroke-miterlimit="10" x1="1483.08" y1="55.139" x2="1518.502" y2="55.139"/>
			
				<line fill="none" stroke="#231F20" stroke-width="2" stroke-miterlimit="10" x1="1483.08" y1="66.864" x2="1518.502" y2="66.864"/>
		</g>
	</g>
	<g>
		<g>
			<g>
				<g>
					<path fill="#231F20" d="M61,3c31.981,0,58,26.019,58,58s-26.019,58-58,58c-31.981,0-58-26.019-58-58S29.019,3,61,3 M61,1
						C27.913,1,1,27.919,1,61c0,33.086,26.913,60,60,60c33.088,0,60-26.913,60-60C121,27.919,94.087,1,61,1L61,1z"/>
				</g>
			</g>
		</g>
		<g>
			<path fill="none" stroke="#231F20" stroke-width="2" stroke-miterlimit="10" d="M79.928,43.83
				c-4.729-5.278-11.569-8.624-19.187-8.624c-14.232,0-25.802,11.569-25.802,25.793c0,14.228,11.57,25.796,25.802,25.796
				c7.199,0,13.705-2.969,18.396-7.744"/>
		</g>
		<g>
			<line fill="none" stroke="#231F20" stroke-width="2" stroke-miterlimit="10" x1="30.993" y1="55.139" x2="66.415" y2="55.139"/>
			<line fill="none" stroke="#231F20" stroke-width="2" stroke-miterlimit="10" x1="30.993" y1="66.864" x2="66.415" y2="66.864"/>
		</g>
	</g>
	<g>
		<g>
			<g>
				<g>
					<path fill="#231F20" d="M1227.751,3.001c31.981,0,58,26.019,58,58s-26.019,58-58,58c-31.981,0-58-26.019-58-58
						S1195.77,3.001,1227.751,3.001 M1227.751,1.001c-33.087,0-60,26.919-60,60c0,33.08,26.913,60,60,60c33.088,0,60-26.919,60-60
						C1287.751,27.921,1260.839,1.001,1227.751,1.001L1227.751,1.001z"/>
				</g>
			</g>
		</g>
		<path fill="none" stroke="#231F20" stroke-width="2" stroke-miterlimit="10" d="M1191.53,69.304
			c3.786,16.514,18.57,28.875,36.221,28.875c17.651,0,32.435-12.362,36.222-28.875"/>
		<path fill="none" stroke="#231F20" stroke-width="2" stroke-miterlimit="10" d="M1263.979,52.705
			c-3.779-16.528-18.569-28.902-36.228-28.902c-17.657,0-32.448,12.375-36.227,28.902"/>
		<g>
			<polygon fill="#F8F9F9" points="1189.822,42.705 1200.333,48.054 1190.444,54.488 			"/>
			<path fill="#231F20" d="M1190.912,44.382l7.425,3.778l-6.986,4.544L1190.912,44.382 M1188.732,41.028l0.183,3.458l0.439,8.324
				l0.183,3.46l2.905-1.89l6.986-4.545l2.903-1.888l-3.087-1.571l-7.425-3.778L1188.732,41.028L1188.732,41.028z"/>
		</g>
		<g>
			<polygon fill="#F8F9F9" points="1254.967,73.975 1264.848,67.521 1265.506,79.294 			"/>
			<path fill="#231F20" d="M1263.946,69.304l0.465,8.317l-7.444-3.758L1263.946,69.304 M1265.75,65.737l-2.897,1.893l-6.979,4.559
				l-2.904,1.896l3.096,1.563l7.444,3.758l3.092,1.562l-0.193-3.458l-0.465-8.317L1265.75,65.737L1265.75,65.737z"/>
		</g>
	</g>
	<g>
		<g>
			<g>
				<g>
					<path fill="#231F20" d="M-106.651,3.001c31.981,0,58,26.019,58,58s-26.019,58-58,58c-31.981,0-58-26.019-58-58
						S-138.632,3.001-106.651,3.001 M-106.651,1.001c-33.087,0-60,26.919-60,60c0,33.08,26.913,60,60,60c33.088,0,60-26.919,60-60
						C-46.65,27.921-73.563,1.001-106.651,1.001L-106.651,1.001z"/>
				</g>
			</g>
		</g>
		<path fill="none" stroke="#231F20" stroke-width="2" stroke-miterlimit="10" d="M-142.872,69.304
			c3.786,16.514,18.57,28.875,36.221,28.875c17.651,0,32.435-12.362,36.222-28.875"/>
		<path fill="none" stroke="#231F20" stroke-width="2" stroke-miterlimit="10" d="M-70.423,52.705
			c-3.779-16.528-18.569-28.902-36.228-28.902c-17.657,0-32.448,12.375-36.227,28.902"/>
		<g>
			<polygon fill="#F8F9F9" points="-144.58,42.705 -134.068,48.054 -143.958,54.488 			"/>
			<path fill="#231F20" d="M-143.49,44.382l7.425,3.778l-6.986,4.544L-143.49,44.382 M-145.67,41.028l0.183,3.458l0.439,8.324
				l0.183,3.46l2.905-1.89l6.986-4.545l2.903-1.888l-3.087-1.571l-7.425-3.778L-145.67,41.028L-145.67,41.028z"/>
		</g>
		<g>
			<polygon fill="#F8F9F9" points="-79.435,73.975 -69.554,67.521 -68.896,79.294 			"/>
			<path fill="#231F20" d="M-70.456,69.304l0.465,8.317l-7.444-3.758L-70.456,69.304 M-68.652,65.737l-2.897,1.893l-6.979,4.559
				l-2.904,1.896l3.096,1.563l7.444,3.758l3.092,1.562l-0.193-3.458l-0.465-8.317L-68.652,65.737L-68.652,65.737z"/>
		</g>
	</g>
	<g>
		<g>
			<g>
				<g>
					<path fill="#231F20" d="M1797.887,3.001c31.981,0,58,26.019,58,58c0,31.98-26.019,57.999-58,57.999
						c-31.981,0-58-26.018-58-57.999C1739.887,29.02,1765.906,3.001,1797.887,3.001 M1797.887,1.001c-33.087,0-60,26.919-60,60
						c0,33.08,26.913,59.999,60,59.999c33.088,0,60-26.918,60-59.999C1857.887,27.92,1830.975,1.001,1797.887,1.001L1797.887,1.001z
						"/>
				</g>
			</g>
		</g>
		<polygon fill="none" stroke="#231F20" stroke-width="2" stroke-linejoin="round" stroke-miterlimit="10" points="1837.787,48.145 
			1797.887,98.192 1758.38,48.145 		"/>
		<polygon fill="none" stroke="#231F20" stroke-width="2" stroke-linejoin="round" stroke-miterlimit="10" points="1837.787,48.145 
			1758.38,48.145 1776.683,23.809 1819.531,23.809 		"/>
		<polyline fill="none" stroke="#231F20" stroke-width="2" stroke-linejoin="round" stroke-miterlimit="10" points="
			1797.887,98.192 1781.188,48.145 1789.538,23.809 		"/>
		<polyline fill="none" stroke="#231F20" stroke-width="2" stroke-linejoin="round" stroke-miterlimit="10" points="
			1798.087,98.192 1814.786,48.145 1806.436,23.809 		"/>
	</g>
	<g>
		<g>
			<g>
				<g>
					<path fill="#231F20" d="M246.56,3.001c31.981,0,58,26.019,58,58c0,31.98-26.019,57.999-58,57.999
						c-31.981,0-58-26.018-58-57.999C188.56,29.02,214.579,3.001,246.56,3.001 M246.56,1.001c-33.087,0-60,26.919-60,60
						c0,33.08,26.913,59.999,60,59.999c33.088,0,60-26.918,60-59.999C306.56,27.92,279.647,1.001,246.56,1.001L246.56,1.001z"/>
				</g>
			</g>
		</g>
		<polygon fill="none" stroke="#231F20" stroke-width="2" stroke-linejoin="round" stroke-miterlimit="10" points="286.459,48.145 
			246.56,98.192 207.053,48.145 		"/>
		<polygon fill="none" stroke="#231F20" stroke-width="2" stroke-linejoin="round" stroke-miterlimit="10" points="286.459,48.145 
			207.053,48.145 225.355,23.809 268.204,23.809 		"/>
		<polyline fill="none" stroke="#231F20" stroke-width="2" stroke-linejoin="round" stroke-miterlimit="10" points="246.56,98.192 
			229.86,48.145 238.21,23.809 		"/>
		<polyline fill="none" stroke="#231F20" stroke-width="2" stroke-linejoin="round" stroke-miterlimit="10" points="246.76,98.192 
			263.459,48.145 255.109,23.809 		"/>
	</g>
	<g>
		<g>
			<g>
				<g>
					<path fill="#231F20" d="M2082.751,3c31.981,0,58,26.019,58,58c0,31.981-26.019,58-58,58c-31.981,0-58-26.019-58-58
						C2024.751,29.019,2050.77,3,2082.751,3 M2082.751,1c-33.08,0-60,26.913-60,60c0,33.08,26.919,60,60,60
						c33.088,0,60-26.919,60-60C2142.751,27.913,2115.839,1,2082.751,1L2082.751,1z"/>
				</g>
			</g>
		</g>
		<g>
			<g>
				<path fill="none" stroke="#231F20" stroke-width="2" stroke-miterlimit="10" d="M2082.751,23.809
					c20.513,0,37.193,16.68,37.193,37.191c0,20.505-16.68,37.192-37.193,37.192c-20.505,0-37.192-16.687-37.192-37.192
					C2045.559,40.488,2062.246,23.809,2082.751,23.809"/>
			</g>
		</g>
		<g>
			<g>
				<path fill="none" stroke="#231F20" stroke-width="2" stroke-miterlimit="10" d="M2082.751,23.809
					c8.205,0,14.876,16.68,14.876,37.191c0,20.505-6.672,37.192-14.876,37.192c-8.203,0-14.876-16.687-14.876-37.192
					C2067.875,40.488,2074.548,23.809,2082.751,23.809"/>
			</g>
		</g>
		
			<line fill="none" stroke="#231F20" stroke-width="2" stroke-miterlimit="10" x1="2048.54" y1="48.599" x2="2117.235" y2="48.599"/>
		
			<line fill="none" stroke="#231F20" stroke-width="2" stroke-miterlimit="10" x1="2048.54" y1="73.395" x2="2117.235" y2="73.395"/>
	</g>
	<g>
		<g>
			<g>
				<g>
					<path fill="#231F20" d="M416.236,3c31.981,0,58,26.019,58,58c0,31.981-26.019,58-58,58c-31.981,0-58-26.019-58-58
						C358.237,29.019,384.255,3,416.236,3 M416.236,1c-33.08,0-60,26.913-60,60c0,33.08,26.919,60,60,60c33.088,0,60-26.919,60-60
						C476.237,27.913,449.324,1,416.236,1L416.236,1z"/>
				</g>
			</g>
		</g>
		<g>
			<g>
				<path fill="none" stroke="#231F20" stroke-width="2" stroke-miterlimit="10" d="M416.236,23.809
					c20.513,0,37.193,16.68,37.193,37.191c0,20.505-16.68,37.192-37.193,37.192c-20.505,0-37.192-16.687-37.192-37.192
					C379.044,40.488,395.731,23.809,416.236,23.809"/>
			</g>
		</g>
		<g>
			<g>
				<path fill="none" stroke="#231F20" stroke-width="2" stroke-miterlimit="10" d="M416.236,23.809
					c8.205,0,14.876,16.68,14.876,37.191c0,20.505-6.672,37.192-14.876,37.192c-8.203,0-14.876-16.687-14.876-37.192
					C401.36,40.488,408.033,23.809,416.236,23.809"/>
			</g>
		</g>
		<line fill="none" stroke="#231F20" stroke-width="2" stroke-miterlimit="10" x1="382.025" y1="48.599" x2="450.72" y2="48.599"/>
		<line fill="none" stroke="#231F20" stroke-width="2" stroke-miterlimit="10" x1="382.025" y1="73.395" x2="450.72" y2="73.395"/>
	</g>
</g>
<g id="Icons" display="none">
	<rect x="1012.798" y="-56.515" display="inline" fill="#F8F9F9" width="1279.848" height="324.226"/>
	<rect x="1098.266" y="171.35" display="inline" fill="none" width="259.485" height="116.374"/>
	<text transform="matrix(1 0 0 1 1128.1304 184.6895)" display="inline"><tspan x="0" y="0" fill="#3B3A3C" font-family="'ProximaNova-Bold'" font-size="20">Verlengen levensduur</tspan><tspan x="41.599" y="24" fill="#3B3A3C" font-family="'ProximaNova-Bold'" font-size="20">van objecten</tspan></text>
	<rect x="1382.582" y="171.35" display="inline" fill="none" width="264.442" height="116.374"/>
	<text transform="matrix(1 0 0 1 1483.2231 184.6895)" display="inline"><tspan x="0" y="0" fill="#3B3A3C" font-family="'ProximaNova-Bold'" font-size="20">Kosten </tspan><tspan x="-10.76" y="24" fill="#3B3A3C" font-family="'ProximaNova-Bold'" font-size="20">besparen</tspan></text>
	<rect x="1664.543" y="171.35" display="inline" fill="none" width="263.208" height="116.374"/>
	<text transform="matrix(1 0 0 1 1736.1782 184.6895)" display="inline"><tspan x="0" y="0" fill="#3B3A3C" font-family="'ProximaNova-Bold'" font-size="20">Grondstoffen </tspan><tspan x="29.02" y="24" fill="#3B3A3C" font-family="'ProximaNova-Bold'" font-size="20">sparen</tspan></text>
	<rect x="1953.009" y="171.35" display="inline" fill="none" width="262.062" height="116.374"/>
	<text transform="matrix(1 0 0 1 2020.4009 184.6895)" display="inline"><tspan x="0" y="0" fill="#3B3A3C" font-family="'ProximaNova-Bold'" font-size="20">Minimaliseren </tspan><tspan x="-5.47" y="24" fill="#3B3A3C" font-family="'ProximaNova-Bold'" font-size="20">milieubelasting</tspan></text>
	
		<rect x="1453.087" y="0.999" transform="matrix(0.7071 -0.7071 0.7071 0.7071 400.046 1087.7866)" display="inline" fill="#F89C1C" width="119.999" height="120"/>
	
		<rect x="1168.651" y="0.999" transform="matrix(0.7071 -0.7071 0.7071 0.7071 316.7353 886.6584)" display="inline" fill="#F89C1C" width="119.999" height="120"/>
	
		<rect x="1738.087" y="0.999" transform="matrix(0.7071 -0.7071 0.7071 0.7071 483.5217 1289.3131)" display="inline" fill="#F89C1C" width="119.999" height="120"/>
	
		<rect x="2024.041" y="0.999" transform="matrix(0.7071 -0.7071 0.7071 0.7071 567.2766 1491.5137)" display="inline" fill="#F89C1C" width="119.999" height="120"/>
	<g display="inline">
		<g>
			<g>
				<g>
					<path fill="#FFFFFF" d="M1513.087,18c23.71,0,43,19.29,43,43s-19.29,43-43,43s-43-19.29-43-43S1489.376,18,1513.087,18
						 M1513.087,16c-24.815,0-45,20.189-45,45c0,24.816,20.185,45,45,45s45-20.184,45-45C1558.087,36.189,1537.902,16,1513.087,16
						L1513.087,16z"/>
				</g>
			</g>
		</g>
		<g>
			<path fill="none" stroke="#FFFFFF" stroke-width="2" stroke-miterlimit="10" d="M1527.283,48.122
				c-3.547-3.958-8.677-6.468-14.39-6.468c-10.674,0-19.352,8.677-19.352,19.345c0,10.671,8.678,19.347,19.352,19.347
				c5.399,0,10.279-2.227,13.797-5.808"/>
		</g>
		<g>
			
				<line fill="none" stroke="#FFFFFF" stroke-width="2" stroke-miterlimit="10" x1="1490.582" y1="56.604" x2="1517.148" y2="56.604"/>
			
				<line fill="none" stroke="#FFFFFF" stroke-width="2" stroke-miterlimit="10" x1="1490.582" y1="65.398" x2="1517.148" y2="65.398"/>
		</g>
	</g>
	<g display="inline">
		<g>
			<g>
				<g>
					<path fill="#FFFFFF" d="M1227.751,18.001c23.71,0,43,19.29,43,43s-19.29,43-43,43c-23.71,0-43-19.29-43-43
						S1204.041,18.001,1227.751,18.001 M1227.751,16.001c-24.815,0-45,20.189-45,45c0,24.81,20.185,45,45,45
						c24.816,0,45-20.19,45-45C1272.751,36.19,1252.567,16.001,1227.751,16.001L1227.751,16.001z"/>
				</g>
			</g>
		</g>
		<path fill="none" stroke="#FFFFFF" stroke-width="2" stroke-miterlimit="10" d="M1200.585,67.229
			c2.84,12.385,13.928,21.656,27.166,21.656c13.239,0,24.326-9.271,27.167-21.656"/>
		<path fill="none" stroke="#FFFFFF" stroke-width="2" stroke-miterlimit="10" d="M1254.922,54.778
			c-2.834-12.396-13.927-21.677-27.171-21.677c-13.243,0-24.336,9.281-27.17,21.677"/>
		<g>
			<polygon fill="#F8F9F9" points="1199.032,46.859 1207.687,51.264 1199.544,56.562 			"/>
			<path fill="#FFFFFF" d="M1200.122,48.536l5.569,2.834l-5.239,3.408L1200.122,48.536 M1197.942,45.183l0.183,3.458l0.33,6.242
				l0.183,3.461l2.905-1.89l5.239-3.409l2.903-1.889l-3.087-1.57l-5.568-2.833L1197.942,45.183L1197.942,45.183z"/>
		</g>
		<g>
			<polygon fill="#F8F9F9" points="1247.664,70.758 1255.799,65.445 1256.341,75.139 			"/>
			<path fill="#FFFFFF" d="M1254.897,67.229l0.349,6.237l-5.583-2.819L1254.897,67.229 M1256.701,63.661l-2.897,1.893l-5.235,3.419
				l-2.904,1.896l3.096,1.563l5.583,2.818l3.091,1.562l-0.193-3.458l-0.349-6.238L1256.701,63.661L1256.701,63.661z"/>
		</g>
	</g>
	<g display="inline">
		<g>
			<g>
				<g>
					<path fill="#FFFFFF" d="M1797.751,18.001c23.71,0,43,19.29,43,43c0,23.709-19.29,42.999-43,42.999
						c-23.71,0-43-19.289-43-42.999C1754.751,37.291,1774.041,18.001,1797.751,18.001 M1797.751,16.001c-24.815,0-45,20.189-45,45
						c0,24.81,20.184,44.999,45,44.999c24.816,0,45-20.189,45-44.999C1842.751,36.19,1822.567,16.001,1797.751,16.001
						L1797.751,16.001z"/>
				</g>
			</g>
		</g>
		<polygon fill="none" stroke="#FFFFFF" stroke-width="2" stroke-linejoin="round" stroke-miterlimit="10" points="1827.676,51.359 
			1797.751,88.894 1768.121,51.359 		"/>
		<polygon fill="none" stroke="#FFFFFF" stroke-width="2" stroke-linejoin="round" stroke-miterlimit="10" points="1827.676,51.359 
			1768.121,51.359 1781.848,33.106 1813.984,33.106 		"/>
		<polyline fill="none" stroke="#FFFFFF" stroke-width="2" stroke-linejoin="round" stroke-miterlimit="10" points="
			1797.751,88.894 1785.227,51.359 1791.489,33.106 		"/>
		<polyline fill="none" stroke="#FFFFFF" stroke-width="2" stroke-linejoin="round" stroke-miterlimit="10" points="
			1797.901,88.894 1810.425,51.359 1804.163,33.106 		"/>
	</g>
	<g display="inline">
		<g>
			<g>
				<g>
					<path fill="#FFFFFF" d="M2084.039,18c23.71,0,43,19.29,43,43s-19.29,43-43,43c-23.71,0-43-19.29-43-43S2060.329,18,2084.039,18
						 M2084.039,16c-24.81,0-45,20.185-45,45c0,24.811,20.189,45,45,45c24.816,0,45-20.189,45-45
						C2129.04,36.185,2108.855,16,2084.039,16L2084.039,16z"/>
				</g>
			</g>
		</g>
		<g>
			<g>
				<path fill="none" stroke="#FFFFFF" stroke-width="2" stroke-miterlimit="10" d="M2084.039,33.106
					c15.385,0,27.895,12.51,27.895,27.894c0,15.379-12.51,27.894-27.895,27.894c-15.379,0-27.894-12.515-27.894-27.894
					C2056.146,45.616,2068.66,33.106,2084.039,33.106"/>
			</g>
		</g>
		<g>
			<g>
				<path fill="none" stroke="#FFFFFF" stroke-width="2" stroke-miterlimit="10" d="M2084.039,33.106
					c6.153,0,11.157,12.51,11.157,27.894c0,15.379-5.004,27.894-11.157,27.894c-6.152,0-11.157-12.515-11.157-27.894
					C2072.882,45.616,2077.887,33.106,2084.039,33.106"/>
			</g>
		</g>
		
			<line fill="none" stroke="#FFFFFF" stroke-width="2" stroke-miterlimit="10" x1="2058.381" y1="51.699" x2="2109.902" y2="51.699"/>
		
			<line fill="none" stroke="#FFFFFF" stroke-width="2" stroke-miterlimit="10" x1="2058.381" y1="70.296" x2="2109.902" y2="70.296"/>
	</g>
</g>
<g id="_x31_2_GRID__x2B__MARGIN">
</g>
</svg>
