<?xml version="1.0" encoding="utf-8"?>
<!-- Generator: Adobe Illustrator 16.0.0, SVG Export Plug-In . SVG Version: 6.00 Build 0)  -->
<!DOCTYPE svg PUBLIC "-//W3C//DTD SVG 1.1//EN" "http://www.w3.org/Graphics/SVG/1.1/DTD/svg11.dtd">
<svg version="1.1" xmlns="http://www.w3.org/2000/svg" xmlns:xlink="http://www.w3.org/1999/xlink" x="0px" y="0px" width="37.5px"
	 height="37.5px" viewBox="0 0 37.5 37.5" enable-background="new 0 0 37.5 37.5" xml:space="preserve">
<g id="background">
</g>
<g id="_x33__ONS_CONCEPT">
	<rect x="411.069" y="-12.051" fill="#F7941E" width="1277.516" height="602.353"/>
	<text transform="matrix(1 0 0 1 -610.4741 1744.3613)" font-family="'ProximaNova-Semibold'" font-size="12" letter-spacing="32">	</text>
	<g>
	</g>
	<text transform="matrix(1 0 0 1 411.1904 -180.5898)"><tspan x="0" y="0" font-family="'MyriadPro-Regular'" font-size="50">laptop m</tspan><tspan x="0" y="60" font-family="'MyriadPro-Regular'" font-size="50">± 1280 px</tspan></text>
	<path fill="none" d="M11127.353,701.913"/>
	<path fill="none" d="M-5255.647,701.913"/>
	<rect x="408.737" y="590.302" fill="#FFFFFF" width="1280" height="300"/>
	<rect x="408.737" y="1742.27" fill="#333333" width="1280" height="300"/>
	<rect x="408.737" y="890.302" fill="#F8F9F9" width="1279.848" height="851.905"/>
	<rect x="408.737" y="1982.27" width="1280" height="60"/>
	<g id="Diensten_28_">
		<g>
			<text transform="matrix(1 0 0 1 495.6548 1887.7065)"><tspan x="0" y="0" fill="#FFFFFF" font-family="'ProximaNova-Regular'" font-size="20">Vennewatersweg 2b</tspan><tspan x="0" y="24" fill="#FFFFFF" font-family="'ProximaNova-Regular'" font-size="20">1852 PT Heiloo Nederland</tspan></text>
		</g>
	</g>
	<g id="Diensten_27_">
		<g>
			<text transform="matrix(1 0 0 1 780.3862 1887.7065)"><tspan x="0" y="0" fill="#FFFFFF" font-family="'ProximaNova-Regular'" font-size="20">+31 88 4720180</tspan><tspan x="0" y="24" fill="#FFFFFF" font-family="'ProximaNova-Regular'" font-size="20">info@orangenano.com</tspan></text>
		</g>
	</g>
	<g id="Diensten_25_">
		<g>
			<text transform="matrix(1 0 0 1 1253.6904 1838.5366)" fill="#FFFFFF" font-family="'ProximaNova-Semibold'" font-size="15">Volg ons:</text>
		</g>
	</g>
	<rect x="1253.69" y="1872.759" fill="#FFFFFF" width="355" height="39.02"/>
	<g id="Diensten_19_">
		<text transform="matrix(1 0 0 1 1273.7031 1898.272)" fill="#333333" font-family="'ProximaNova-Regular'" font-size="20">Nieuwsbrief</text>
	</g>
	<g>
		<circle fill="#FFFFFF" cx="1403.69" cy="1834.508" r="15"/>
		<path fill="#333333" d="M1411.325,1835.319c-0.163,0.869-0.662,2.19-2.114,3.643c-2.528,2.53-6.159,3.082-7.453,3.082
			c-1.291,0-5.476-0.191-8.364-4.147c0,0,3.787,3.385,7.59-0.189c-1.797,0.219-1.912-1.393-0.671-1.597
			c-1.824-0.076-2.13-0.684-2.357-1.216c-0.228-0.533,0.59-0.554,1.236-0.627c-1.246-0.434-2.266-1.203-2.149-2.003
			c0.076-0.313,1.14-0.034,1.066-0.262c-0.078-0.229-1.979-1.063-1.6-2.585c1.712,0.875,4.603,1.369,6.751,3.632
			c0.664-1.884,1.765-4.325,2.948-4.847c1.179-0.525,2.165-0.418,2.434,0.112c0.265,0.533-1.636,0.953-1.636,0.953
			c2.254-0.218,3.831,1.823,4.263,3.739c1.024,0.602,2.355,0.025,2.355,0.025s-0.288,1.026-2.018,1.176
			c-0.227,0.078,0.952,0.307,2.169,0.173C1413.143,1835.223,1411.964,1835.33,1411.325,1835.319z"/>
	</g>
	<g>
		<circle fill="#FFFFFF" cx="1363.69" cy="1834.508" r="15"/>
		<g id="facebook_3_">
			<path id="facebook_4_" fill="#333333" d="M1367.819,1849.773v-11.208h3.364v-3.362h-3.364l0.007-1.873
				c0-1.011,0.338-1.487,1.788-1.487h1.57v-4.483h-3.364c-3.723,0-4.483,1.326-4.483,4.483v3.36h-2.241v3.362h2.241v11.208H1367.819
				z"/>
		</g>
	</g>
	<g>
		<path fill="#FFFFFF" d="M511.501,1811.845c8.401,0,15.889,6.135,15.889,16.106c0,9.926-7.488,16.062-15.889,16.062
			c-8.358,0-15.846-6.136-15.846-16.062C495.655,1817.98,503.143,1811.845,511.501,1811.845z M511.501,1838.18
			c4.788,0,9.666-3.308,9.666-10.273c0-6.963-4.878-10.274-9.666-10.274c-4.745,0-9.62,3.311-9.62,10.274
			C501.881,1834.873,506.756,1838.18,511.501,1838.18z"/>
		<path fill="#FFFFFF" d="M543.716,1827.688c-0.652-0.131-1.219-0.172-1.74-0.172c-2.962,0-5.53,1.437-5.53,6.051v9.795h-5.791
			v-21.419h5.618v3.178c1.307-2.83,4.265-3.351,6.094-3.351c0.479,0,0.916,0.043,1.349,0.086V1827.688z"/>
		<path fill="#FFFFFF" d="M551.152,1831.042l5.267-0.783c1.219-0.176,1.61-0.785,1.61-1.524c0-1.522-1.173-2.786-3.611-2.786
			c-2.525,0-3.92,1.608-4.092,3.482l-5.139-1.087c0.348-3.354,3.44-7.052,9.186-7.052c6.791,0,9.316,3.83,9.316,8.139v10.535
			c0,1.132,0.13,2.656,0.261,3.396h-5.309c-0.133-0.566-0.218-1.743-0.218-2.568c-1.088,1.698-3.135,3.178-6.312,3.178
			c-4.572,0-7.357-3.092-7.357-6.443C544.753,1833.697,547.582,1831.563,551.152,1831.042z M558.029,1834.698v-0.958l-4.83,0.742
			c-1.482,0.216-2.655,1.043-2.655,2.699c0,1.262,0.912,2.479,2.786,2.479C555.768,1839.66,558.029,1838.488,558.029,1834.698z"/>
		<path fill="#FFFFFF" d="M573.396,1843.362h-5.788v-21.419h5.615v2.656c1.307-2.219,3.874-3.222,6.182-3.222
			c5.312,0,7.749,3.789,7.749,8.488v13.498h-5.79v-12.494c0-2.395-1.174-4.265-3.96-4.265c-2.525,0-4.008,1.958-4.008,4.438
			V1843.362z"/>
		<path fill="#FFFFFF" d="M594.943,1843.144c0.391,2.349,2.265,4.046,5.008,4.046c3.656,0,5.703-1.827,5.703-5.963v-1.568
			c-0.873,1.395-2.874,2.745-5.966,2.745c-5.702,0-9.968-4.396-9.968-10.405c0-5.66,4.092-10.447,9.968-10.447
			c3.396,0,5.357,1.479,6.097,2.916v-2.525h5.572v19.111c0,5.875-3.18,11.232-11.232,11.232c-5.878,0-9.795-3.659-10.404-7.749
			L594.943,1843.144z M605.739,1832c0-3.308-2.262-5.396-5.048-5.396c-2.874,0-5.138,2.088-5.138,5.396
			c0,3.353,2.134,5.441,5.138,5.441C603.65,1837.44,605.739,1835.307,605.739,1832z"/>
		<path fill="#FFFFFF" d="M634.842,1837.223c-1.089,3.701-4.485,6.791-9.751,6.791c-5.878,0-11.059-4.222-11.059-11.447
			c0-6.837,5.051-11.275,10.535-11.275c6.618,0,10.581,4.223,10.581,11.099c0,0.827-0.088,1.698-0.088,1.786h-15.325
			c0.134,2.83,2.526,4.875,5.399,4.875c2.698,0,4.177-1.349,4.875-3.264L634.842,1837.223z M629.444,1830.213
			c-0.087-2.131-1.482-4.224-4.789-4.224c-3.004,0-4.657,2.266-4.787,4.224H629.444z"/>
		<path fill="#FFFFFF" d="M668.32,1843.362l-14.019-21.898v21.898h-6.009v-30.866h7.488l12.842,20.418v-20.418h6.009v30.866H668.32z
			"/>
		<path fill="#FFFFFF" d="M684.671,1831.042l5.27-0.783c1.219-0.176,1.609-0.785,1.609-1.524c0-1.522-1.176-2.786-3.614-2.786
			c-2.525,0-3.916,1.608-4.093,3.482l-5.136-1.087c0.349-3.354,3.439-7.052,9.187-7.052c6.791,0,9.316,3.83,9.316,8.139v10.535
			c0,1.132,0.13,2.656,0.261,3.396h-5.312c-0.13-0.566-0.218-1.743-0.218-2.568c-1.089,1.698-3.136,3.178-6.312,3.178
			c-4.572,0-7.358-3.092-7.358-6.443C678.271,1833.697,681.103,1831.563,684.671,1831.042z M691.55,1834.698v-0.958l-4.833,0.742
			c-1.479,0.216-2.655,1.043-2.655,2.699c0,1.262,0.915,2.479,2.787,2.479C689.285,1839.66,691.55,1838.488,691.55,1834.698z"/>
		<path fill="#FFFFFF" d="M706.918,1843.362h-5.791v-21.419h5.617v2.656c1.305-2.219,3.875-3.222,6.182-3.222
			c5.309,0,7.749,3.789,7.749,8.488v13.498h-5.791v-12.494c0-2.395-1.175-4.265-3.961-4.265c-2.526,0-4.005,1.958-4.005,4.438
			V1843.362z"/>
		<path fill="#FFFFFF" d="M745.743,1832.651c0,6.576-4.834,11.362-11.234,11.362c-6.398,0-11.232-4.786-11.232-11.362
			c0-6.616,4.834-11.36,11.232-11.36C740.908,1821.292,745.743,1826.036,745.743,1832.651z M739.951,1832.651
			c0-4.048-2.61-6.094-5.443-6.094c-2.828,0-5.441,2.046-5.441,6.094c0,4.008,2.613,6.097,5.441,6.097
			C737.341,1838.748,739.951,1836.702,739.951,1832.651z"/>
		<path fill="#FFFFFF" d="M751.373,1818.208c2.588,0,4.694,2.117,4.694,4.708c0,2.572-2.106,4.693-4.694,4.693
			c-2.59,0-4.67-2.121-4.67-4.693C746.703,1820.325,748.783,1818.208,751.373,1818.208z M751.373,1826.604
			c2.016,0,3.592-1.623,3.592-3.688c0-2.082-1.576-3.706-3.592-3.706c-2.018,0-3.591,1.624-3.591,3.706
			C747.782,1824.981,749.355,1826.604,751.373,1826.604z M751.258,1823.649h-0.366v1.765h-1.208v-5.075h2.006
			c0.976,0,1.738,0.737,1.738,1.65c0,0.671-0.394,1.218-0.978,1.47l1.015,1.956h-1.332L751.258,1823.649z M751.475,1822.66
			c0.457,0,0.735-0.253,0.735-0.659c0-0.417-0.278-0.673-0.735-0.673h-0.583v1.333H751.475z"/>
	</g>
	<g>
		<path fill="#FFFFFF" d="M-203.713,1811.845c8.401,0,15.889,6.135,15.889,16.106c0,9.926-7.488,16.062-15.889,16.062
			c-8.358,0-15.846-6.136-15.846-16.062C-219.56,1817.98-212.071,1811.845-203.713,1811.845z M-203.713,1838.18
			c4.788,0,9.666-3.308,9.666-10.273c0-6.963-4.878-10.274-9.666-10.274c-4.745,0-9.62,3.311-9.62,10.274
			C-213.333,1834.873-208.458,1838.18-203.713,1838.18z"/>
		<path fill="#FFFFFF" d="M-171.499,1827.688c-0.652-0.131-1.219-0.172-1.74-0.172c-2.962,0-5.53,1.437-5.53,6.051v9.795h-5.791
			v-21.419h5.618v3.178c1.307-2.83,4.265-3.351,6.094-3.351c0.479,0,0.916,0.043,1.349,0.086V1827.688z"/>
		<path fill="#FFFFFF" d="M-164.062,1831.042l5.267-0.783c1.219-0.176,1.61-0.785,1.61-1.524c0-1.522-1.173-2.786-3.611-2.786
			c-2.525,0-3.92,1.608-4.092,3.482l-5.139-1.087c0.348-3.354,3.44-7.052,9.186-7.052c6.791,0,9.316,3.83,9.316,8.139v10.535
			c0,1.132,0.13,2.656,0.261,3.396h-5.309c-0.133-0.566-0.218-1.743-0.218-2.568c-1.088,1.698-3.135,3.178-6.312,3.178
			c-4.572,0-7.357-3.092-7.357-6.443C-170.461,1833.697-167.632,1831.563-164.062,1831.042z M-157.185,1834.698v-0.958l-4.83,0.742
			c-1.482,0.216-2.655,1.043-2.655,2.699c0,1.262,0.912,2.479,2.786,2.479C-159.447,1839.66-157.185,1838.488-157.185,1834.698z"/>
		<path fill="#FFFFFF" d="M-141.818,1843.362h-5.788v-21.419h5.615v2.656c1.307-2.219,3.874-3.222,6.182-3.222
			c5.312,0,7.749,3.789,7.749,8.488v13.498h-5.79v-12.494c0-2.395-1.174-4.265-3.96-4.265c-2.525,0-4.008,1.958-4.008,4.438
			V1843.362z"/>
		<path fill="#FFFFFF" d="M-120.271,1843.144c0.391,2.349,2.265,4.046,5.008,4.046c3.656,0,5.703-1.827,5.703-5.963v-1.568
			c-0.873,1.395-2.874,2.745-5.966,2.745c-5.702,0-9.968-4.396-9.968-10.405c0-5.66,4.092-10.447,9.968-10.447
			c3.396,0,5.357,1.479,6.097,2.916v-2.525h5.572v19.111c0,5.875-3.18,11.232-11.232,11.232c-5.878,0-9.795-3.659-10.404-7.749
			L-120.271,1843.144z M-109.476,1832c0-3.308-2.262-5.396-5.048-5.396c-2.874,0-5.138,2.088-5.138,5.396
			c0,3.353,2.134,5.441,5.138,5.441C-111.564,1837.44-109.476,1835.307-109.476,1832z"/>
		<path fill="#FFFFFF" d="M-80.373,1837.223c-1.089,3.701-4.485,6.791-9.751,6.791c-5.878,0-11.059-4.222-11.059-11.447
			c0-6.837,5.051-11.275,10.535-11.275c6.618,0,10.581,4.223,10.581,11.099c0,0.827-0.088,1.698-0.088,1.786H-95.48
			c0.134,2.83,2.526,4.875,5.399,4.875c2.698,0,4.177-1.349,4.875-3.264L-80.373,1837.223z M-85.77,1830.213
			c-0.087-2.131-1.482-4.224-4.789-4.224c-3.004,0-4.657,2.266-4.787,4.224H-85.77z"/>
		<path fill="#FFFFFF" d="M-46.894,1843.362l-14.019-21.898v21.898h-6.009v-30.866h7.488l12.842,20.418v-20.418h6.009v30.866
			H-46.894z"/>
		<path fill="#FFFFFF" d="M-30.543,1831.042l5.27-0.783c1.219-0.176,1.609-0.785,1.609-1.524c0-1.522-1.176-2.786-3.614-2.786
			c-2.525,0-3.916,1.608-4.093,3.482l-5.136-1.087c0.349-3.354,3.439-7.052,9.187-7.052c6.791,0,9.316,3.83,9.316,8.139v10.535
			c0,1.132,0.13,2.656,0.261,3.396h-5.312c-0.13-0.566-0.218-1.743-0.218-2.568c-1.089,1.698-3.136,3.178-6.312,3.178
			c-4.572,0-7.358-3.092-7.358-6.443C-36.943,1833.697-34.112,1831.563-30.543,1831.042z M-23.665,1834.698v-0.958l-4.833,0.742
			c-1.479,0.216-2.655,1.043-2.655,2.699c0,1.262,0.915,2.479,2.787,2.479C-25.93,1839.66-23.665,1838.488-23.665,1834.698z"/>
		<path fill="#FFFFFF" d="M-8.296,1843.362h-5.791v-21.419h5.617v2.656c1.305-2.219,3.875-3.222,6.182-3.222
			c5.309,0,7.749,3.789,7.749,8.488v13.498H-0.33v-12.494c0-2.395-1.175-4.265-3.961-4.265c-2.526,0-4.005,1.958-4.005,4.438
			V1843.362z"/>
		<path fill="#FFFFFF" d="M30.528,1832.651c0,6.576-4.834,11.362-11.234,11.362c-6.398,0-11.232-4.786-11.232-11.362
			c0-6.616,4.834-11.36,11.232-11.36C25.694,1821.292,30.528,1826.036,30.528,1832.651z M24.737,1832.651
			c0-4.048-2.61-6.094-5.443-6.094c-2.828,0-5.441,2.046-5.441,6.094c0,4.008,2.613,6.097,5.441,6.097
			C22.126,1838.748,24.737,1836.702,24.737,1832.651z"/>
		<path fill="#FFFFFF" d="M36.159,1818.208c2.588,0,4.694,2.117,4.694,4.708c0,2.572-2.106,4.693-4.694,4.693
			c-2.59,0-4.67-2.121-4.67-4.693C31.489,1820.325,33.569,1818.208,36.159,1818.208z M36.159,1826.604
			c2.016,0,3.592-1.623,3.592-3.688c0-2.082-1.576-3.706-3.592-3.706c-2.018,0-3.591,1.624-3.591,3.706
			C32.568,1824.981,34.141,1826.604,36.159,1826.604z M36.043,1823.649h-0.366v1.765H34.47v-5.075h2.006
			c0.976,0,1.738,0.737,1.738,1.65c0,0.671-0.394,1.218-0.978,1.47l1.015,1.956h-1.332L36.043,1823.649z M36.26,1822.66
			c0.457,0,0.735-0.253,0.735-0.659c0-0.417-0.278-0.673-0.735-0.673h-0.583v1.333H36.26z"/>
	</g>
	<rect x="778.521" y="993.196" fill="none" width="731.708" height="551.103"/>
	<text transform="matrix(1 0 0 1 778.5205 1017.207)"><tspan x="0" y="0" fill="#231F20" font-family="'ProximaNova-Semibold'" font-size="36">Producten</tspan><tspan x="0" y="74.4" fill="#3B3A3C" font-family="'ProximaNova-Light'" font-size="26">anotechnologie stelt ons in staat om stoffen op moleculair niveau </tspan><tspan x="0" y="105.6" fill="#3B3A3C" font-family="'ProximaNova-Light'" font-size="26">te bewerken. Dit maakt het mogelijk om materialen bij</tspan><tspan x="0" y="160.8" fill="#3B3A3C" font-family="'ProximaNova-Regular'" font-size="20">Coatingproducten vormen één van de toepassingsgebieden van de </tspan><tspan x="0" y="184.8" fill="#3B3A3C" font-family="'ProximaNova-Regular'" font-size="20">Nanotechnologie. Met Nanocoatings kunnen materialen worden voorzien </tspan><tspan x="0" y="208.8" fill="#3B3A3C" font-family="'ProximaNova-Regular'" font-size="20">van een zeer dunne en onzichtbare beschermlaag die de ondergrond beschermt </tspan><tspan x="0" y="232.8" fill="#3B3A3C" font-family="'ProximaNova-Regular'" font-size="20">tegen invloeden van buitenaf  zoals het weer en chemicaliën.</tspan><tspan x="0" y="280.8" fill="#3B3A3C" font-family="'ProximaNova-Regular'" font-size="20">Nanocoatings besparen kosten. Enerzijds omdat de levensduur van het gecoate </tspan><tspan x="0" y="304.8" fill="#3B3A3C" font-family="'ProximaNova-Regular'" font-size="20">object met jaren wordt verlengd anderzijds omdat het  onderhoud ervan minder </tspan><tspan x="0" y="328.8" fill="#3B3A3C" font-family="'ProximaNova-Regular'" font-size="20">vaak hoeft plaats te vinden en tegelijkertijd eenvoudiger wordt. </tspan></text>
	<rect x="494.205" y="1571.231" fill="none" width="259.485" height="116.374"/>
	<text transform="matrix(1 0 0 1 524.0693 1584.5713)"><tspan x="0" y="0" fill="#3B3A3C" font-family="'ProximaNova-Bold'" font-size="20">Verlengen levensduur</tspan><tspan x="41.599" y="24" fill="#3B3A3C" font-family="'ProximaNova-Bold'" font-size="20">van objecten</tspan></text>
	<rect x="778.521" y="1571.231" fill="none" width="264.442" height="116.374"/>
	<text transform="matrix(1 0 0 1 879.1621 1584.5713)"><tspan x="0" y="0" fill="#3B3A3C" font-family="'ProximaNova-Bold'" font-size="20">Kosten </tspan><tspan x="-10.76" y="24" fill="#3B3A3C" font-family="'ProximaNova-Bold'" font-size="20">besparen</tspan></text>
	<rect x="1060.482" y="1571.231" fill="none" width="263.208" height="116.374"/>
	<text transform="matrix(1 0 0 1 1132.1172 1584.5713)"><tspan x="0" y="0" fill="#3B3A3C" font-family="'ProximaNova-Bold'" font-size="20">Grondstoffen </tspan><tspan x="29.02" y="24" fill="#3B3A3C" font-family="'ProximaNova-Bold'" font-size="20">sparen</tspan></text>
	<rect x="1348.948" y="1571.231" fill="none" width="262.062" height="116.374"/>
	<text transform="matrix(1 0 0 1 1416.3398 1584.5713)"><tspan x="0" y="0" fill="#3B3A3C" font-family="'ProximaNova-Bold'" font-size="20">Minimaliseren </tspan><tspan x="-5.47" y="24" fill="#3B3A3C" font-family="'ProximaNova-Bold'" font-size="20">milieubelasting</tspan></text>
	<text transform="matrix(1 0 0 1 492.208 1017.5391)" font-family="'ProximaNova-Semibold'" font-size="15">Concept - 3 - Producten</text>
	<text transform="matrix(1 0 0 1 492.208 698.165)" font-family="'ProximaNova-Semibold'" font-size="15">Home - 2 - Ons Concept</text>
	<rect x="778.69" y="675" fill="none" width="735" height="173.086"/>
	<text transform="matrix(1 0 0 1 778.6904 699.0117)"><tspan x="0" y="0" fill="#231F20" font-family="'ProximaNova-Semibold'" font-size="36">Orange Nanotech</tspan><tspan x="0" y="67.2" fill="#3B3A3C" font-family="'ProximaNova-Regular'" font-size="20">Geld en grondstoffen zijn schaars en het milieu staat onder druk. Wij bieden </tspan><tspan x="0" y="91.2" fill="#3B3A3C" font-family="'ProximaNova-Regular'" font-size="20">oplossingen die de levensduur van kapitaalgoederen verlengen en het gebruik van </tspan><tspan x="0" y="115.2" fill="#3B3A3C" font-family="'ProximaNova-Regular'" font-size="20">grondstoffen verlagen om zo het milieu en kosten te sparen.</tspan></text>
	<rect x="496.565" y="276.176" fill="none" width="1114.444" height="52.709"/>
	<text transform="matrix(1 0 0 1 837.6113 324.1992)" fill="#FFFFFF" font-family="'ProximaNova-Semibold'" font-size="72">Orange Nano</text>
	<path fill="none" stroke="#414042" stroke-miterlimit="10" d="M408.737,50.302"/>
	<path fill="none" stroke="#414042" stroke-miterlimit="10" d="M1691.54,50.302"/>
	<polyline fill="none" stroke="#FFFFFF" stroke-width="2" stroke-miterlimit="10" points="508.754,314.759 496.565,302.572 
		508.754,290.384 	"/>
	<polyline fill="none" stroke="#FFFFFF" stroke-width="2" stroke-miterlimit="10" points="1596.502,314.759 1608.69,302.572 
		1596.502,290.384 	"/>
	<rect x="408.737" y="-9.698" fill="#333333" width="1280" height="60"/>
	<g id="Over_Ons_18_">
		<g>
			<text transform="matrix(1 0 0 1 1570.6719 25.4727)" fill="#FFFFFF" font-family="'ProximaNova-Semibold'" font-size="15">Login</text>
		</g>
	</g>
	<g id="Diensten_15_">
		<g>
			<text transform="matrix(1 0 0 1 843.7441 25.4727)" fill="#FFFFFF" font-family="'ProximaNova-Regular'" font-size="20">Concept</text>
		</g>
	</g>
	<g id="Over_Ons_17_">
		<g>
			<text transform="matrix(1 0 0 1 1104.8633 25.4727)" fill="#FFFFFF" font-family="'ProximaNova-Regular'" font-size="20">Over Ons</text>
		</g>
	</g>
	<g id="Over_Ons_15_">
		<g>
			<text transform="matrix(1 0 0 1 1213.1597 25.4727)" fill="#FFFFFF" font-family="'ProximaNova-Regular'" font-size="20">Contact</text>
		</g>
	</g>
	<g id="Over_Ons_8_">
		<g>
			<text transform="matrix(1 0 0 1 937.6787 25.4727)" fill="#FFFFFF" font-family="'ProximaNova-Regular'" font-size="20">Nanotechnologie</text>
		</g>
	</g>
	<g id="Over_Ons_1_">
		<g>
			<text transform="matrix(1 0 0 1 588.6904 25.4727)" fill="#FFFFFF" font-family="'ProximaNova-Regular'" font-size="20">Toepassingen</text>
		</g>
	</g>
	<g id="Contact_2_">
		<g>
			<text transform="matrix(1 0 0 1 731.5176 25.4727)" fill="#FFFFFF" font-family="'ProximaNova-Regular'" font-size="20">Producten</text>
		</g>
	</g>
	<g>
		<polygon fill="#FFFFFF" points="517.332,20.852 511.919,12.247 508.764,12.247 508.764,25.254 511.296,25.254 511.296,16.026 
			517.203,25.254 519.863,25.254 519.863,12.247 517.332,12.247 		"/>
		<path fill="#FFFFFF" d="M514.314,0c-10.339,0-18.75,8.411-18.75,18.75c0,10.339,8.411,18.75,18.75,18.75
			c10.34,0,18.75-8.411,18.75-18.75C533.064,8.411,524.654,0,514.314,0z M514.314,32.766c-7.727,0-14.014-6.289-14.014-14.016
			c0-7.729,6.287-14.012,14.014-14.012s14.014,6.283,14.014,14.012C528.328,26.477,522.041,32.766,514.314,32.766z"/>
	</g>
	<g>
		<polygon fill="#FFFFFF" points="21.768,20.852 16.355,12.247 13.2,12.247 13.2,25.254 15.732,25.254 15.732,16.026 21.639,25.254 
			24.299,25.254 24.299,12.247 21.768,12.247 		"/>
		<path fill="#FFFFFF" d="M18.75,0C8.411,0,0,8.411,0,18.75C0,29.089,8.411,37.5,18.75,37.5c10.34,0,18.75-8.411,18.75-18.75
			C37.5,8.411,29.09,0,18.75,0z M18.75,32.766c-7.727,0-14.014-6.289-14.014-14.016c0-7.729,6.287-14.012,14.014-14.012
			s14.014,6.283,14.014,14.012C32.764,26.477,26.477,32.766,18.75,32.766z"/>
	</g>
	<linearGradient id="SVGID_1_" gradientUnits="userSpaceOnUse" x1="579.6914" y1="858.6748" x2="579.6914" y2="923.6748">
		<stop  offset="0" style="stop-color:#231F20"/>
		<stop  offset="0.5" style="stop-color:#414042"/>
	</linearGradient>
	<circle fill="url(#SVGID_1_)" stroke="#231F20" stroke-miterlimit="10" cx="579.691" cy="891.176" r="32.5"/>
	<polyline fill="none" stroke="#FFFFFF" stroke-width="2" stroke-miterlimit="10" points="591.879,888.742 579.692,900.931 
		567.504,888.742 	"/>
	<g id="Diensten_13_">
		<g>
			<text transform="matrix(1 0 0 1 495.6548 2019.1948)" fill="#FFFFFF" font-family="'ProximaNova-Semibold'" font-size="15">2014 Orange Nanotech B.V.</text>
		</g>
	</g>
	<g id="Diensten_18_">
		<g>
			<text transform="matrix(1 0 0 1 1460.6758 2019.1948)" fill="#FFFFFF" font-family="'ProximaNova-Regular'" font-size="20">Back to top</text>
		</g>
	</g>
	<line fill="none" stroke="#F1F2F2" stroke-miterlimit="10" x1="408.737" y1="1646.086" x2="1688.584" y2="1646.086"/>
	<rect x="1513.519" y="1872.759" fill="#F89C1C" width="95.172" height="39.02"/>
	<g id="Diensten_1_">
		<g>
			<text transform="matrix(1 0 0 1 1532.6855 1897.2715)" fill="#FFFFFF" font-family="'ProximaNova-Semibold'" font-size="15">Sign up</text>
		</g>
	</g>
	<g>
		<circle fill="none" stroke="#FFFFFF" stroke-width="2" stroke-miterlimit="10" cx="1593.69" cy="2012.394" r="15"/>
		<polyline fill="none" stroke="#FFFFFF" stroke-width="2" stroke-miterlimit="10" points="1599.315,2014.518 1593.69,2008.892 
			1588.065,2014.518 		"/>
	</g>
	<polyline fill="none" stroke="#FFFFFF" stroke-width="2" stroke-miterlimit="10" points="1590.878,1897.894 1596.504,1892.27 
		1590.878,1886.644 	"/>
	<linearGradient id="SVGID_2_" gradientUnits="userSpaceOnUse" x1="1048.8223" y1="1762.2695" x2="1048.8223" y2="1742.2695">
		<stop  offset="0.25" style="stop-color:#333333;stop-opacity:0.75"/>
		<stop  offset="1" style="stop-color:#231F20"/>
	</linearGradient>
	<rect x="408.898" y="1742.27" fill="url(#SVGID_2_)" width="1279.848" height="20"/>
	<g>
		<circle fill="#FFFFFF" cx="1022.963" cy="556.366" r="4.999"/>
		<g>
			<path fill="#FFFFFF" d="M1047.963,560.866c-1.202,0-2.332-0.468-3.182-1.318c-0.85-0.85-1.318-1.98-1.318-3.182
				s0.468-2.332,1.318-3.182c0.85-0.851,1.979-1.318,3.182-1.318s2.332,0.467,3.182,1.318c0.85,0.85,1.318,1.98,1.318,3.182
				c0,1.202-0.468,2.332-1.318,3.182C1050.295,560.397,1049.165,560.866,1047.963,560.866z"/>
			<path fill="#FFFFFF" d="M1047.963,552.366c1.068,0,2.073,0.416,2.829,1.171c0.755,0.755,1.171,1.76,1.171,2.829
				c0,1.068-0.416,2.072-1.172,2.828c-0.755,0.756-1.76,1.172-2.829,1.172c-1.068,0-2.073-0.416-2.828-1.171
				c-0.755-0.755-1.171-1.76-1.171-2.829c0-1.068,0.416-2.073,1.172-2.829C1045.891,552.782,1046.895,552.366,1047.963,552.366
				 M1047.963,551.366c-1.28,0-2.559,0.489-3.535,1.465c-1.953,1.952-1.953,5.118,0,7.071c0.977,0.976,2.256,1.464,3.535,1.464
				c1.28,0,2.56-0.488,3.536-1.465c1.953-1.953,1.953-5.119,0-7.07C1050.522,551.855,1049.243,551.366,1047.963,551.366
				L1047.963,551.366z"/>
		</g>
		<g>
			<path fill="#FFFFFF" d="M1072.125,560.866c-1.202,0-2.332-0.468-3.182-1.318c-0.85-0.85-1.318-1.98-1.318-3.182
				s0.468-2.332,1.318-3.182c0.85-0.851,1.979-1.318,3.182-1.318s2.332,0.467,3.182,1.318c0.85,0.85,1.318,1.98,1.318,3.182
				c0,1.202-0.468,2.332-1.318,3.182C1074.458,560.397,1073.327,560.866,1072.125,560.866z"/>
			<path fill="#FFFFFF" d="M1072.125,552.366c1.068,0,2.073,0.416,2.829,1.171c0.755,0.755,1.171,1.76,1.171,2.829
				c0,1.068-0.416,2.072-1.172,2.828c-0.755,0.756-1.76,1.172-2.829,1.172c-1.068,0-2.073-0.416-2.828-1.171
				c-0.755-0.755-1.171-1.76-1.171-2.829c0-1.068,0.416-2.073,1.172-2.829C1070.053,552.782,1071.057,552.366,1072.125,552.366
				 M1072.125,551.366c-1.28,0-2.559,0.489-3.535,1.465c-1.953,1.952-1.953,5.118,0,7.071c0.977,0.976,2.256,1.464,3.535,1.464
				c1.28,0,2.56-0.488,3.536-1.465c1.953-1.953,1.953-5.119,0-7.07C1074.685,551.855,1073.405,551.366,1072.125,551.366
				L1072.125,551.366z"/>
		</g>
	</g>
	<g>
		<g>
			<path fill="#414042" d="M1022.963,560.866c-1.202,0-2.332-0.468-3.182-1.318c-0.85-0.85-1.318-1.98-1.318-3.182
				s0.468-2.332,1.318-3.182c0.85-0.851,1.979-1.318,3.182-1.318s2.332,0.467,3.182,1.318c0.85,0.85,1.318,1.98,1.318,3.182
				c0,1.202-0.468,2.332-1.318,3.182C1025.295,560.397,1024.165,560.866,1022.963,560.866z"/>
			<path fill="#FFFFFF" d="M1022.963,552.366c1.068,0,2.073,0.416,2.829,1.171c0.755,0.755,1.171,1.76,1.171,2.829
				c0,1.068-0.416,2.072-1.172,2.828c-0.755,0.756-1.76,1.172-2.829,1.172c-1.068,0-2.073-0.416-2.828-1.171
				c-0.755-0.755-1.171-1.76-1.171-2.829c0-1.068,0.416-2.073,1.172-2.829C1020.891,552.782,1021.895,552.366,1022.963,552.366
				 M1022.963,551.366c-1.28,0-2.559,0.489-3.535,1.465c-1.953,1.952-1.953,5.118,0,7.071c0.977,0.976,2.256,1.464,3.535,1.464
				c1.28,0,2.56-0.488,3.536-1.465c1.953-1.953,1.953-5.119,0-7.07C1025.522,551.855,1024.243,551.366,1022.963,551.366
				L1022.963,551.366z"/>
		</g>
	</g>
	<g>
		<g>
			<g>
				<g>
					<path fill="#231F20" d="M909.025,1422.895c31.981,0,58,26.019,58,58s-26.019,58-58,58c-31.981,0-58-26.019-58-58
						S877.044,1422.895,909.025,1422.895 M909.025,1420.895c-33.087,0-60,26.919-60,60c0,33.086,26.913,60,60,60
						c33.088,0,60-26.913,60-60C969.026,1447.813,942.113,1420.895,909.025,1420.895L909.025,1420.895z"/>
				</g>
			</g>
		</g>
		<g>
			<path fill="none" stroke="#231F20" stroke-width="2" stroke-miterlimit="10" d="M927.954,1463.725
				c-4.729-5.278-11.569-8.624-19.187-8.624c-14.232,0-25.802,11.569-25.802,25.793c0,14.228,11.57,25.796,25.802,25.796
				c7.199,0,13.705-2.969,18.396-7.744"/>
		</g>
		<g>
			
				<line fill="none" stroke="#231F20" stroke-width="2" stroke-miterlimit="10" x1="879.019" y1="1475.033" x2="914.441" y2="1475.033"/>
			
				<line fill="none" stroke="#231F20" stroke-width="2" stroke-miterlimit="10" x1="879.019" y1="1486.759" x2="914.441" y2="1486.759"/>
		</g>
	</g>
	<g>
		<g>
			<g>
				<g>
					<path fill="#231F20" d="M623.69,1422.896c31.981,0,58,26.019,58,58s-26.019,58-58,58c-31.981,0-58-26.019-58-58
						S591.709,1422.896,623.69,1422.896 M623.69,1420.896c-33.087,0-60,26.919-60,60c0,33.08,26.913,60,60,60
						c33.088,0,60-26.919,60-60C683.69,1447.815,656.778,1420.896,623.69,1420.896L623.69,1420.896z"/>
				</g>
			</g>
		</g>
		<path fill="none" stroke="#231F20" stroke-width="2" stroke-miterlimit="10" d="M587.469,1489.199
			c3.786,16.514,18.57,28.875,36.221,28.875c17.651,0,32.435-12.362,36.222-28.875"/>
		<path fill="none" stroke="#231F20" stroke-width="2" stroke-miterlimit="10" d="M659.917,1472.599
			c-3.779-16.528-18.569-28.902-36.228-28.902c-17.657,0-32.448,12.375-36.227,28.902"/>
		<g>
			<polygon fill="#F8F9F9" points="585.761,1462.599 596.272,1467.948 586.383,1474.382 			"/>
			<path fill="#231F20" d="M586.851,1464.276l7.425,3.778l-6.986,4.544L586.851,1464.276 M584.671,1460.923l0.183,3.458l0.439,8.324
				l0.183,3.46l2.905-1.89l6.986-4.545l2.903-1.888l-3.087-1.571l-7.425-3.778L584.671,1460.923L584.671,1460.923z"/>
		</g>
		<g>
			<polygon fill="#F8F9F9" points="650.906,1493.869 660.787,1487.415 661.445,1499.188 			"/>
			<path fill="#231F20" d="M659.885,1489.199l0.465,8.317l-7.444-3.758L659.885,1489.199 M661.688,1485.632l-2.897,1.893
				l-6.979,4.559l-2.904,1.896l3.096,1.563l7.444,3.758l3.092,1.562l-0.193-3.458l-0.465-8.317L661.688,1485.632L661.688,1485.632z"
				/>
		</g>
	</g>
	<g>
		<g>
			<g>
				<g>
					<path fill="#231F20" d="M1193.826,1422.896c31.981,0,58,26.019,58,58c0,31.98-26.019,57.999-58,57.999
						c-31.981,0-58-26.018-58-57.999C1135.826,1448.914,1161.845,1422.896,1193.826,1422.896 M1193.826,1420.896
						c-33.087,0-60,26.919-60,60c0,33.08,26.913,59.999,60,59.999c33.088,0,60-26.918,60-59.999
						C1253.826,1447.814,1226.914,1420.896,1193.826,1420.896L1193.826,1420.896z"/>
				</g>
			</g>
		</g>
		<polygon fill="none" stroke="#231F20" stroke-width="2" stroke-linejoin="round" stroke-miterlimit="10" points="
			1233.726,1468.04 1193.826,1518.086 1154.319,1468.04 		"/>
		<polygon fill="none" stroke="#231F20" stroke-width="2" stroke-linejoin="round" stroke-miterlimit="10" points="
			1233.726,1468.04 1154.319,1468.04 1172.622,1443.703 1215.47,1443.703 		"/>
		<polyline fill="none" stroke="#231F20" stroke-width="2" stroke-linejoin="round" stroke-miterlimit="10" points="
			1193.826,1518.086 1177.126,1468.04 1185.477,1443.703 		"/>
		<polyline fill="none" stroke="#231F20" stroke-width="2" stroke-linejoin="round" stroke-miterlimit="10" points="
			1194.026,1518.086 1210.725,1468.04 1202.375,1443.703 		"/>
	</g>
	<g>
		<g>
			<g>
				<g>
					<path fill="#231F20" d="M1478.69,1422.895c31.981,0,58,26.019,58,58c0,31.981-26.019,58-58,58c-31.981,0-58-26.019-58-58
						C1420.69,1448.913,1446.709,1422.895,1478.69,1422.895 M1478.69,1420.895c-33.08,0-60,26.913-60,60c0,33.08,26.919,60,60,60
						c33.088,0,60-26.919,60-60C1538.69,1447.808,1511.778,1420.895,1478.69,1420.895L1478.69,1420.895z"/>
				</g>
			</g>
		</g>
		<g>
			<g>
				<path fill="none" stroke="#231F20" stroke-width="2" stroke-miterlimit="10" d="M1478.69,1443.703
					c20.513,0,37.193,16.68,37.193,37.191c0,20.505-16.68,37.192-37.193,37.192c-20.505,0-37.192-16.687-37.192-37.192
					C1441.498,1460.383,1458.185,1443.703,1478.69,1443.703"/>
			</g>
		</g>
		<g>
			<g>
				<path fill="none" stroke="#231F20" stroke-width="2" stroke-miterlimit="10" d="M1478.69,1443.703
					c8.205,0,14.876,16.68,14.876,37.191c0,20.505-6.672,37.192-14.876,37.192c-8.203,0-14.876-16.687-14.876-37.192
					C1463.813,1460.383,1470.487,1443.703,1478.69,1443.703"/>
			</g>
		</g>
		
			<line fill="none" stroke="#231F20" stroke-width="2" stroke-miterlimit="10" x1="1444.479" y1="1468.493" x2="1513.174" y2="1468.493"/>
		
			<line fill="none" stroke="#231F20" stroke-width="2" stroke-miterlimit="10" x1="1444.479" y1="1493.29" x2="1513.174" y2="1493.29"/>
	</g>
</g>
<g id="Icons" display="none">
	<rect x="408.737" y="1363.38" display="inline" fill="#F8F9F9" width="1279.848" height="324.226"/>
	<rect x="494.205" y="1591.244" display="inline" fill="none" width="259.485" height="116.374"/>
	<text transform="matrix(1 0 0 1 524.0693 1604.584)" display="inline"><tspan x="0" y="0" fill="#3B3A3C" font-family="'ProximaNova-Bold'" font-size="20">Verlengen levensduur</tspan><tspan x="41.599" y="24" fill="#3B3A3C" font-family="'ProximaNova-Bold'" font-size="20">van objecten</tspan></text>
	<rect x="778.521" y="1591.244" display="inline" fill="none" width="264.442" height="116.374"/>
	<text transform="matrix(1 0 0 1 879.1621 1604.584)" display="inline"><tspan x="0" y="0" fill="#3B3A3C" font-family="'ProximaNova-Bold'" font-size="20">Kosten </tspan><tspan x="-10.76" y="24" fill="#3B3A3C" font-family="'ProximaNova-Bold'" font-size="20">besparen</tspan></text>
	<rect x="1060.482" y="1591.244" display="inline" fill="none" width="263.208" height="116.374"/>
	<text transform="matrix(1 0 0 1 1132.1172 1604.584)" display="inline"><tspan x="0" y="0" fill="#3B3A3C" font-family="'ProximaNova-Bold'" font-size="20">Grondstoffen </tspan><tspan x="29.02" y="24" fill="#3B3A3C" font-family="'ProximaNova-Bold'" font-size="20">sparen</tspan></text>
	<rect x="1348.948" y="1591.244" display="inline" fill="none" width="262.062" height="116.374"/>
	<text transform="matrix(1 0 0 1 1416.3398 1604.584)" display="inline"><tspan x="0" y="0" fill="#3B3A3C" font-family="'ProximaNova-Bold'" font-size="20">Minimaliseren </tspan><tspan x="-5.47" y="24" fill="#3B3A3C" font-family="'ProximaNova-Bold'" font-size="20">milieubelasting</tspan></text>
	
		<rect x="849.026" y="1420.894" transform="matrix(0.7071 -0.7071 0.7071 0.7071 -780.9047 1076.5317)" display="inline" fill="#F89C1C" width="119.999" height="120"/>
	
		<rect x="564.59" y="1420.894" transform="matrix(0.7071 -0.7071 0.7071 0.7071 -864.2153 875.4037)" display="inline" fill="#F89C1C" width="119.999" height="120"/>
	
		<rect x="1134.026" y="1420.894" transform="matrix(0.7071 -0.7071 0.7071 0.7071 -697.429 1278.0583)" display="inline" fill="#F89C1C" width="119.999" height="120"/>
	
		<rect x="1419.979" y="1420.894" transform="matrix(0.7071 -0.7071 0.7071 0.7071 -613.6741 1480.2589)" display="inline" fill="#F89C1C" width="119.999" height="120"/>
	<g display="inline">
		<g>
			<g>
				<g>
					<path fill="#FFFFFF" d="M909.026,1437.895c23.71,0,43,19.29,43,43s-19.29,43-43,43s-43-19.29-43-43
						S885.315,1437.895,909.026,1437.895 M909.026,1435.895c-24.815,0-45,20.189-45,45c0,24.816,20.185,45,45,45s45-20.184,45-45
						C954.026,1456.084,933.841,1435.895,909.026,1435.895L909.026,1435.895z"/>
				</g>
			</g>
		</g>
		<g>
			<path fill="none" stroke="#FFFFFF" stroke-width="2" stroke-miterlimit="10" d="M923.222,1468.017
				c-3.547-3.958-8.677-6.468-14.39-6.468c-10.674,0-19.352,8.677-19.352,19.345c0,10.671,8.678,19.347,19.352,19.347
				c5.399,0,10.279-2.227,13.797-5.808"/>
		</g>
		<g>
			
				<line fill="none" stroke="#FFFFFF" stroke-width="2" stroke-miterlimit="10" x1="886.521" y1="1476.499" x2="913.087" y2="1476.499"/>
			
				<line fill="none" stroke="#FFFFFF" stroke-width="2" stroke-miterlimit="10" x1="886.521" y1="1485.292" x2="913.087" y2="1485.292"/>
		</g>
	</g>
	<g display="inline">
		<g>
			<g>
				<g>
					<path fill="#FFFFFF" d="M623.69,1437.896c23.71,0,43,19.29,43,43s-19.29,43-43,43c-23.71,0-43-19.29-43-43
						S599.98,1437.896,623.69,1437.896 M623.69,1435.896c-24.815,0-45,20.189-45,45c0,24.81,20.185,45,45,45
						c24.816,0,45-20.19,45-45C668.69,1456.085,648.506,1435.896,623.69,1435.896L623.69,1435.896z"/>
				</g>
			</g>
		</g>
		<path fill="none" stroke="#FFFFFF" stroke-width="2" stroke-miterlimit="10" d="M596.524,1487.123
			c2.84,12.385,13.928,21.656,27.166,21.656c13.239,0,24.326-9.271,27.167-21.656"/>
		<path fill="none" stroke="#FFFFFF" stroke-width="2" stroke-miterlimit="10" d="M650.861,1474.673
			c-2.834-12.396-13.927-21.677-27.171-21.677c-13.243,0-24.336,9.281-27.17,21.677"/>
		<g>
			<polygon fill="#F8F9F9" points="594.971,1466.754 603.626,1471.158 595.483,1476.456 			"/>
			<path fill="#FFFFFF" d="M596.061,1468.431l5.569,2.834l-5.239,3.408L596.061,1468.431 M593.881,1465.078l0.183,3.458l0.33,6.242
				l0.183,3.461l2.905-1.89l5.239-3.409l2.903-1.889l-3.087-1.57l-5.568-2.833L593.881,1465.078L593.881,1465.078z"/>
		</g>
		<g>
			<polygon fill="#F8F9F9" points="643.603,1490.653 651.738,1485.34 652.28,1495.033 			"/>
			<path fill="#FFFFFF" d="M650.836,1487.123l0.349,6.237l-5.583-2.819L650.836,1487.123 M652.64,1483.556l-2.897,1.893
				l-5.235,3.419l-2.904,1.896l3.096,1.563l5.583,2.818l3.091,1.562l-0.193-3.458l-0.349-6.238L652.64,1483.556L652.64,1483.556z"/>
		</g>
	</g>
	<g display="inline">
		<g>
			<g>
				<g>
					<path fill="#FFFFFF" d="M1193.69,1437.896c23.71,0,43,19.29,43,43c0,23.709-19.29,42.999-43,42.999
						c-23.71,0-43-19.289-43-42.999C1150.69,1457.186,1169.98,1437.896,1193.69,1437.896 M1193.69,1435.896
						c-24.815,0-45,20.189-45,45c0,24.81,20.184,44.999,45,44.999c24.816,0,45-20.189,45-44.999
						C1238.69,1456.084,1218.506,1435.896,1193.69,1435.896L1193.69,1435.896z"/>
				</g>
			</g>
		</g>
		<polygon fill="none" stroke="#FFFFFF" stroke-width="2" stroke-linejoin="round" stroke-miterlimit="10" points="
			1223.615,1471.254 1193.69,1508.788 1164.06,1471.254 		"/>
		<polygon fill="none" stroke="#FFFFFF" stroke-width="2" stroke-linejoin="round" stroke-miterlimit="10" points="
			1223.615,1471.254 1164.06,1471.254 1177.787,1453 1209.923,1453 		"/>
		<polyline fill="none" stroke="#FFFFFF" stroke-width="2" stroke-linejoin="round" stroke-miterlimit="10" points="
			1193.69,1508.788 1181.166,1471.254 1187.428,1453 		"/>
		<polyline fill="none" stroke="#FFFFFF" stroke-width="2" stroke-linejoin="round" stroke-miterlimit="10" points="
			1193.84,1508.788 1206.364,1471.254 1200.102,1453 		"/>
	</g>
	<g display="inline">
		<g>
			<g>
				<g>
					<path fill="#FFFFFF" d="M1479.978,1437.895c23.71,0,43,19.29,43,43s-19.29,43-43,43c-23.71,0-43-19.29-43-43
						S1456.268,1437.895,1479.978,1437.895 M1479.978,1435.895c-24.81,0-45,20.185-45,45c0,24.811,20.189,45,45,45
						c24.816,0,45-20.189,45-45C1524.979,1456.079,1504.794,1435.895,1479.978,1435.895L1479.978,1435.895z"/>
				</g>
			</g>
		</g>
		<g>
			<g>
				<path fill="none" stroke="#FFFFFF" stroke-width="2" stroke-miterlimit="10" d="M1479.978,1453
					c15.385,0,27.895,12.51,27.895,27.894c0,15.379-12.51,27.894-27.895,27.894c-15.379,0-27.894-12.515-27.894-27.894
					C1452.084,1465.511,1464.599,1453,1479.978,1453"/>
			</g>
		</g>
		<g>
			<g>
				<path fill="none" stroke="#FFFFFF" stroke-width="2" stroke-miterlimit="10" d="M1479.978,1453
					c6.153,0,11.157,12.51,11.157,27.894c0,15.379-5.004,27.894-11.157,27.894c-6.152,0-11.157-12.515-11.157-27.894
					C1468.821,1465.511,1473.826,1453,1479.978,1453"/>
			</g>
		</g>
		
			<line fill="none" stroke="#FFFFFF" stroke-width="2" stroke-miterlimit="10" x1="1454.32" y1="1471.593" x2="1505.841" y2="1471.593"/>
		
			<line fill="none" stroke="#FFFFFF" stroke-width="2" stroke-miterlimit="10" x1="1454.32" y1="1490.19" x2="1505.841" y2="1490.19"/>
	</g>
</g>
<g id="_x31_2_GRID__x2B__MARGIN">
</g>
</svg>
