<?xml version="1.0" encoding="utf-8"?>
<!-- Generator: Adobe Illustrator 16.0.0, SVG Export Plug-In . SVG Version: 6.00 Build 0)  -->
<!DOCTYPE svg PUBLIC "-//W3C//DTD SVG 1.1//EN" "http://www.w3.org/Graphics/SVG/1.1/DTD/svg11.dtd">
<svg version="1.1" xmlns="http://www.w3.org/2000/svg" xmlns:xlink="http://www.w3.org/1999/xlink" x="0px" y="0px"
	 width="260.412px" height="40.442px" viewBox="0 0 260.412 40.442" enable-background="new 0 0 260.412 40.442"
	 xml:space="preserve">
<g id="background">
</g>
<g id="_x33__ONS_CONCEPT">
	<rect x="630.628" y="-1823.896" fill="#F7941E" width="1277.516" height="602.353"/>
	<text transform="matrix(1 0 0 1 -390.9146 -67.4839)" font-family="'ProximaNova-Semibold'" font-size="12" letter-spacing="32">	</text>
	<g>
	</g>
	<text transform="matrix(1 0 0 1 630.75 -1992.4351)"><tspan x="0" y="0" font-family="'MyriadPro-Regular'" font-size="50">laptop m</tspan><tspan x="0" y="60" font-family="'MyriadPro-Regular'" font-size="50">± 1280 px</tspan></text>
	<path fill="none" d="M11346.912-1109.932"/>
	<path fill="none" d="M-5036.088-1109.932"/>
	<rect x="628.296" y="-1221.543" fill="#FFFFFF" width="1280" height="300"/>
	<rect x="628.296" y="-69.576" fill="#333333" width="1280" height="300"/>
	<rect x="628.296" y="-921.543" fill="#F8F9F9" width="1279.848" height="851.905"/>
	<rect x="628.296" y="170.424" width="1280" height="60"/>
	<g id="Diensten_28_">
		<g>
			<text transform="matrix(1 0 0 1 715.2144 75.8613)"><tspan x="0" y="0" fill="#FFFFFF" font-family="'ProximaNova-Regular'" font-size="20">Vennewatersweg 2b</tspan><tspan x="0" y="24" fill="#FFFFFF" font-family="'ProximaNova-Regular'" font-size="20">1852 PT Heiloo Nederland</tspan></text>
		</g>
	</g>
	<g id="Diensten_27_">
		<g>
			<text transform="matrix(1 0 0 1 999.9458 75.8613)"><tspan x="0" y="0" fill="#FFFFFF" font-family="'ProximaNova-Regular'" font-size="20">+31 88 4720180</tspan><tspan x="0" y="24" fill="#FFFFFF" font-family="'ProximaNova-Regular'" font-size="20">info@orangenano.com</tspan></text>
		</g>
	</g>
	<g id="Diensten_25_">
		<g>
			<text transform="matrix(1 0 0 1 1473.25 26.6914)" fill="#FFFFFF" font-family="'ProximaNova-Semibold'" font-size="15">Volg ons:</text>
		</g>
	</g>
	<rect x="1473.25" y="60.914" fill="#FFFFFF" width="355" height="39.02"/>
	<g id="Diensten_19_">
		<text transform="matrix(1 0 0 1 1493.2627 86.4268)" fill="#333333" font-family="'ProximaNova-Regular'" font-size="20">Nieuwsbrief</text>
	</g>
	<g>
		<circle fill="#FFFFFF" cx="1623.25" cy="22.663" r="15"/>
		<path fill="#333333" d="M1630.885,23.474c-0.163,0.869-0.662,2.19-2.114,3.643c-2.528,2.53-6.159,3.082-7.453,3.082
			c-1.291,0-5.476-0.191-8.364-4.147c0,0,3.787,3.385,7.59-0.189c-1.797,0.219-1.912-1.393-0.671-1.597
			c-1.824-0.076-2.13-0.684-2.357-1.216c-0.228-0.533,0.59-0.554,1.236-0.627c-1.246-0.434-2.266-1.203-2.149-2.003
			c0.076-0.313,1.14-0.034,1.066-0.262c-0.078-0.229-1.979-1.063-1.6-2.585c1.712,0.875,4.603,1.369,6.751,3.632
			c0.664-1.884,1.765-4.325,2.948-4.847c1.179-0.525,2.165-0.418,2.434,0.112c0.265,0.533-1.636,0.953-1.636,0.953
			c2.254-0.218,3.831,1.823,4.263,3.739c1.024,0.602,2.355,0.025,2.355,0.025s-0.288,1.026-2.018,1.176
			c-0.227,0.078,0.952,0.307,2.169,0.173C1632.703,23.378,1631.524,23.484,1630.885,23.474z"/>
	</g>
	<g>
		<circle fill="#FFFFFF" cx="1583.25" cy="22.663" r="15"/>
		<g id="facebook_3_">
			<path id="facebook_4_" fill="#333333" d="M1587.378,37.928V26.72h3.364v-3.362h-3.364l0.007-1.873
				c0-1.011,0.338-1.487,1.788-1.487h1.57v-4.483h-3.364c-3.723,0-4.483,1.326-4.483,4.483v3.36h-2.241v3.362h2.241v11.208H1587.378
				z"/>
		</g>
	</g>
	<g>
		<path fill="#FFFFFF" d="M731.061,0c8.401,0,15.889,6.135,15.889,16.106c0,9.926-7.488,16.062-15.889,16.062
			c-8.358,0-15.846-6.136-15.846-16.062C715.214,6.135,722.703,0,731.061,0z M731.061,26.335c4.788,0,9.666-3.308,9.666-10.273
			c0-6.963-4.878-10.274-9.666-10.274c-4.745,0-9.62,3.311-9.62,10.274C721.441,23.027,726.316,26.335,731.061,26.335z"/>
		<path fill="#FFFFFF" d="M763.275,15.843c-0.652-0.131-1.219-0.172-1.74-0.172c-2.962,0-5.53,1.437-5.53,6.051v9.795h-5.791V10.098
			h5.618v3.178c1.307-2.83,4.265-3.351,6.094-3.351c0.479,0,0.916,0.043,1.349,0.086V15.843z"/>
		<path fill="#FFFFFF" d="M770.712,19.196l5.267-0.783c1.219-0.176,1.61-0.785,1.61-1.524c0-1.522-1.173-2.786-3.611-2.786
			c-2.525,0-3.92,1.608-4.092,3.482l-5.139-1.087c0.348-3.354,3.44-7.052,9.186-7.052c6.791,0,9.316,3.83,9.316,8.139v10.535
			c0,1.132,0.13,2.656,0.261,3.396h-5.309c-0.133-0.566-0.218-1.743-0.218-2.568c-1.088,1.698-3.135,3.178-6.312,3.178
			c-4.572,0-7.357-3.092-7.357-6.443C764.313,21.852,767.142,19.718,770.712,19.196z M777.589,22.853v-0.958l-4.83,0.742
			c-1.482,0.216-2.655,1.043-2.655,2.699c0,1.262,0.912,2.479,2.786,2.479C775.327,27.814,777.589,26.643,777.589,22.853z"/>
		<path fill="#FFFFFF" d="M792.956,31.517h-5.788V10.098h5.615v2.656c1.307-2.219,3.874-3.222,6.182-3.222
			c5.312,0,7.749,3.789,7.749,8.488v13.498h-5.79V19.023c0-2.395-1.174-4.265-3.96-4.265c-2.525,0-4.008,1.958-4.008,4.438V31.517z"
			/>
		<path fill="#FFFFFF" d="M814.502,31.299c0.391,2.349,2.265,4.046,5.008,4.046c3.656,0,5.703-1.827,5.703-5.963v-1.568
			c-0.873,1.395-2.874,2.745-5.966,2.745c-5.702,0-9.968-4.396-9.968-10.405c0-5.66,4.092-10.447,9.968-10.447
			c3.396,0,5.357,1.479,6.097,2.916v-2.525h5.572v19.111c0,5.875-3.18,11.232-11.232,11.232c-5.878,0-9.795-3.659-10.404-7.749
			L814.502,31.299z M825.298,20.154c0-3.308-2.262-5.396-5.048-5.396c-2.874,0-5.138,2.088-5.138,5.396
			c0,3.353,2.134,5.441,5.138,5.441C823.209,25.595,825.298,23.462,825.298,20.154z"/>
		<path fill="#FFFFFF" d="M854.401,25.378c-1.089,3.701-4.485,6.791-9.751,6.791c-5.878,0-11.059-4.222-11.059-11.447
			c0-6.837,5.051-11.275,10.535-11.275c6.618,0,10.581,4.223,10.581,11.099c0,0.827-0.088,1.698-0.088,1.786h-15.325
			c0.134,2.83,2.526,4.875,5.399,4.875c2.698,0,4.177-1.349,4.875-3.264L854.401,25.378z M849.004,18.368
			c-0.087-2.131-1.482-4.224-4.789-4.224c-3.004,0-4.657,2.266-4.787,4.224H849.004z"/>
		<path fill="#FFFFFF" d="M887.88,31.517L873.861,9.619v21.898h-6.009V0.651h7.488l12.842,20.418V0.651h6.009v30.866H887.88z"/>
		<path fill="#FFFFFF" d="M904.23,19.196l5.27-0.783c1.219-0.176,1.609-0.785,1.609-1.524c0-1.522-1.176-2.786-3.614-2.786
			c-2.525,0-3.916,1.608-4.093,3.482l-5.136-1.087c0.349-3.354,3.439-7.052,9.187-7.052c6.791,0,9.316,3.83,9.316,8.139v10.535
			c0,1.132,0.13,2.656,0.261,3.396h-5.312c-0.13-0.566-0.218-1.743-0.218-2.568c-1.089,1.698-3.136,3.178-6.312,3.178
			c-4.572,0-7.358-3.092-7.358-6.443C897.831,21.852,900.662,19.718,904.23,19.196z M911.109,22.853v-0.958l-4.833,0.742
			c-1.479,0.216-2.655,1.043-2.655,2.699c0,1.262,0.915,2.479,2.787,2.479C908.844,27.814,911.109,26.643,911.109,22.853z"/>
		<path fill="#FFFFFF" d="M926.478,31.517h-5.791V10.098h5.617v2.656c1.305-2.219,3.875-3.222,6.182-3.222
			c5.309,0,7.749,3.789,7.749,8.488v13.498h-5.791V19.023c0-2.395-1.175-4.265-3.961-4.265c-2.526,0-4.005,1.958-4.005,4.438V31.517
			z"/>
		<path fill="#FFFFFF" d="M965.302,20.806c0,6.576-4.834,11.362-11.234,11.362c-6.398,0-11.232-4.786-11.232-11.362
			c0-6.616,4.834-11.36,11.232-11.36C960.468,9.446,965.302,14.19,965.302,20.806z M959.511,20.806c0-4.048-2.61-6.094-5.443-6.094
			c-2.828,0-5.441,2.046-5.441,6.094c0,4.008,2.613,6.097,5.441,6.097C956.9,26.903,959.511,24.856,959.511,20.806z"/>
		<path fill="#FFFFFF" d="M970.933,6.363c2.588,0,4.694,2.117,4.694,4.708c0,2.572-2.106,4.693-4.694,4.693
			c-2.59,0-4.67-2.121-4.67-4.693C966.263,8.48,968.343,6.363,970.933,6.363z M970.933,14.759c2.016,0,3.592-1.623,3.592-3.688
			c0-2.082-1.576-3.706-3.592-3.706c-2.018,0-3.591,1.624-3.591,3.706C967.342,13.136,968.915,14.759,970.933,14.759z
			 M970.817,11.804h-0.366v1.765h-1.208V8.494h2.006c0.976,0,1.738,0.737,1.738,1.65c0,0.671-0.394,1.218-0.978,1.47l1.015,1.956
			h-1.332L970.817,11.804z M971.034,10.815c0.457,0,0.735-0.253,0.735-0.659c0-0.417-0.278-0.673-0.735-0.673h-0.583v1.333H971.034z
			"/>
	</g>
	<g>
		<path fill="#FFFFFF" d="M15.846,0c8.401,0,15.889,6.135,15.889,16.106c0,9.926-7.488,16.062-15.889,16.062
			C7.488,32.168,0,26.033,0,16.106C0,6.135,7.488,0,15.846,0z M15.846,26.335c4.788,0,9.666-3.308,9.666-10.273
			c0-6.963-4.878-10.274-9.666-10.274c-4.745,0-9.62,3.311-9.62,10.274C6.227,23.027,11.102,26.335,15.846,26.335z"/>
		<path fill="#FFFFFF" d="M48.061,15.843c-0.652-0.131-1.219-0.172-1.74-0.172c-2.962,0-5.53,1.437-5.53,6.051v9.795H35V10.098
			h5.618v3.178c1.307-2.83,4.265-3.351,6.094-3.351c0.479,0,0.916,0.043,1.349,0.086V15.843z"/>
		<path fill="#FFFFFF" d="M55.498,19.196l5.267-0.783c1.219-0.176,1.61-0.785,1.61-1.524c0-1.522-1.173-2.786-3.611-2.786
			c-2.525,0-3.92,1.608-4.092,3.482l-5.139-1.087c0.348-3.354,3.44-7.052,9.186-7.052c6.791,0,9.316,3.83,9.316,8.139v10.535
			c0,1.132,0.13,2.656,0.261,3.396h-5.309c-0.133-0.566-0.218-1.743-0.218-2.568c-1.088,1.698-3.135,3.178-6.312,3.178
			c-4.572,0-7.357-3.092-7.357-6.443C49.099,21.852,51.927,19.718,55.498,19.196z M62.375,22.853v-0.958l-4.83,0.742
			c-1.482,0.216-2.655,1.043-2.655,2.699c0,1.262,0.912,2.479,2.786,2.479C60.113,27.814,62.375,26.643,62.375,22.853z"/>
		<path fill="#FFFFFF" d="M77.742,31.517h-5.788V10.098h5.615v2.656c1.307-2.219,3.874-3.222,6.182-3.222
			c5.312,0,7.749,3.789,7.749,8.488v13.498h-5.79V19.023c0-2.395-1.174-4.265-3.96-4.265c-2.525,0-4.008,1.958-4.008,4.438V31.517z"
			/>
		<path fill="#FFFFFF" d="M99.288,31.299c0.391,2.349,2.265,4.046,5.008,4.046c3.656,0,5.703-1.827,5.703-5.963v-1.568
			c-0.873,1.395-2.874,2.745-5.966,2.745c-5.702,0-9.968-4.396-9.968-10.405c0-5.66,4.092-10.447,9.968-10.447
			c3.396,0,5.357,1.479,6.097,2.916v-2.525h5.572v19.111c0,5.875-3.18,11.232-11.232,11.232c-5.878,0-9.795-3.659-10.404-7.749
			L99.288,31.299z M110.084,20.154c0-3.308-2.262-5.396-5.048-5.396c-2.874,0-5.138,2.088-5.138,5.396
			c0,3.353,2.134,5.441,5.138,5.441C107.995,25.595,110.084,23.462,110.084,20.154z"/>
		<path fill="#FFFFFF" d="M139.187,25.378c-1.089,3.701-4.485,6.791-9.751,6.791c-5.878,0-11.059-4.222-11.059-11.447
			c0-6.837,5.051-11.275,10.535-11.275c6.618,0,10.581,4.223,10.581,11.099c0,0.827-0.088,1.698-0.088,1.786H124.08
			c0.134,2.83,2.526,4.875,5.399,4.875c2.698,0,4.177-1.349,4.875-3.264L139.187,25.378z M133.79,18.368
			c-0.087-2.131-1.482-4.224-4.789-4.224c-3.004,0-4.657,2.266-4.787,4.224H133.79z"/>
		<path fill="#FFFFFF" d="M172.666,31.517L158.647,9.619v21.898h-6.009V0.651h7.488l12.842,20.418V0.651h6.009v30.866H172.666z"/>
		<path fill="#FFFFFF" d="M189.016,19.196l5.27-0.783c1.219-0.176,1.609-0.785,1.609-1.524c0-1.522-1.176-2.786-3.614-2.786
			c-2.525,0-3.916,1.608-4.093,3.482l-5.136-1.087c0.349-3.354,3.439-7.052,9.187-7.052c6.791,0,9.316,3.83,9.316,8.139v10.535
			c0,1.132,0.13,2.656,0.261,3.396h-5.312c-0.13-0.566-0.218-1.743-0.218-2.568c-1.089,1.698-3.136,3.178-6.312,3.178
			c-4.572,0-7.358-3.092-7.358-6.443C182.617,21.852,185.448,19.718,189.016,19.196z M195.895,22.853v-0.958l-4.833,0.742
			c-1.479,0.216-2.655,1.043-2.655,2.699c0,1.262,0.915,2.479,2.787,2.479C193.63,27.814,195.895,26.643,195.895,22.853z"/>
		<path fill="#FFFFFF" d="M211.263,31.517h-5.791V10.098h5.617v2.656c1.305-2.219,3.875-3.222,6.182-3.222
			c5.309,0,7.749,3.789,7.749,8.488v13.498h-5.791V19.023c0-2.395-1.175-4.265-3.961-4.265c-2.526,0-4.005,1.958-4.005,4.438V31.517
			z"/>
		<path fill="#FFFFFF" d="M250.088,20.806c0,6.576-4.834,11.362-11.234,11.362c-6.398,0-11.232-4.786-11.232-11.362
			c0-6.616,4.834-11.36,11.232-11.36C245.253,9.446,250.088,14.19,250.088,20.806z M244.296,20.806c0-4.048-2.61-6.094-5.443-6.094
			c-2.828,0-5.441,2.046-5.441,6.094c0,4.008,2.613,6.097,5.441,6.097C241.686,26.903,244.296,24.856,244.296,20.806z"/>
		<path fill="#FFFFFF" d="M255.718,6.363c2.588,0,4.694,2.117,4.694,4.708c0,2.572-2.106,4.693-4.694,4.693
			c-2.59,0-4.67-2.121-4.67-4.693C251.048,8.48,253.128,6.363,255.718,6.363z M255.718,14.759c2.016,0,3.592-1.623,3.592-3.688
			c0-2.082-1.576-3.706-3.592-3.706c-2.018,0-3.591,1.624-3.591,3.706C252.127,13.136,253.701,14.759,255.718,14.759z
			 M255.603,11.804h-0.366v1.765h-1.208V8.494h2.006c0.976,0,1.738,0.737,1.738,1.65c0,0.671-0.394,1.218-0.978,1.47l1.015,1.956
			h-1.332L255.603,11.804z M255.82,10.815c0.457,0,0.735-0.253,0.735-0.659c0-0.417-0.278-0.673-0.735-0.673h-0.583v1.333H255.82z"
			/>
	</g>
	<rect x="998.08" y="-818.649" fill="none" width="731.708" height="551.103"/>
	<text transform="matrix(1 0 0 1 998.0801 -794.6382)"><tspan x="0" y="0" fill="#231F20" font-family="'ProximaNova-Semibold'" font-size="36">Producten</tspan><tspan x="0" y="74.4" fill="#3B3A3C" font-family="'ProximaNova-Light'" font-size="26">anotechnologie stelt ons in staat om stoffen op moleculair niveau </tspan><tspan x="0" y="105.6" fill="#3B3A3C" font-family="'ProximaNova-Light'" font-size="26">te bewerken. Dit maakt het mogelijk om materialen bij</tspan><tspan x="0" y="160.8" fill="#3B3A3C" font-family="'ProximaNova-Regular'" font-size="20">Coatingproducten vormen één van de toepassingsgebieden van de </tspan><tspan x="0" y="184.8" fill="#3B3A3C" font-family="'ProximaNova-Regular'" font-size="20">Nanotechnologie. Met Nanocoatings kunnen materialen worden voorzien </tspan><tspan x="0" y="208.8" fill="#3B3A3C" font-family="'ProximaNova-Regular'" font-size="20">van een zeer dunne en onzichtbare beschermlaag die de ondergrond beschermt </tspan><tspan x="0" y="232.8" fill="#3B3A3C" font-family="'ProximaNova-Regular'" font-size="20">tegen invloeden van buitenaf  zoals het weer en chemicaliën.</tspan><tspan x="0" y="280.8" fill="#3B3A3C" font-family="'ProximaNova-Regular'" font-size="20">Nanocoatings besparen kosten. Enerzijds omdat de levensduur van het gecoate </tspan><tspan x="0" y="304.8" fill="#3B3A3C" font-family="'ProximaNova-Regular'" font-size="20">object met jaren wordt verlengd anderzijds omdat het  onderhoud ervan minder </tspan><tspan x="0" y="328.8" fill="#3B3A3C" font-family="'ProximaNova-Regular'" font-size="20">vaak hoeft plaats te vinden en tegelijkertijd eenvoudiger wordt. </tspan></text>
	<rect x="713.765" y="-240.614" fill="none" width="259.485" height="116.374"/>
	<text transform="matrix(1 0 0 1 743.6289 -227.2739)"><tspan x="0" y="0" fill="#3B3A3C" font-family="'ProximaNova-Bold'" font-size="20">Verlengen levensduur</tspan><tspan x="41.599" y="24" fill="#3B3A3C" font-family="'ProximaNova-Bold'" font-size="20">van objecten</tspan></text>
	<rect x="998.08" y="-240.614" fill="none" width="264.442" height="116.374"/>
	<text transform="matrix(1 0 0 1 1098.7217 -227.2739)"><tspan x="0" y="0" fill="#3B3A3C" font-family="'ProximaNova-Bold'" font-size="20">Kosten </tspan><tspan x="-10.76" y="24" fill="#3B3A3C" font-family="'ProximaNova-Bold'" font-size="20">besparen</tspan></text>
	<rect x="1280.042" y="-240.614" fill="none" width="263.208" height="116.374"/>
	<text transform="matrix(1 0 0 1 1351.6768 -227.2739)"><tspan x="0" y="0" fill="#3B3A3C" font-family="'ProximaNova-Bold'" font-size="20">Grondstoffen </tspan><tspan x="29.02" y="24" fill="#3B3A3C" font-family="'ProximaNova-Bold'" font-size="20">sparen</tspan></text>
	<rect x="1568.507" y="-240.614" fill="none" width="262.062" height="116.374"/>
	<text transform="matrix(1 0 0 1 1635.8994 -227.2739)"><tspan x="0" y="0" fill="#3B3A3C" font-family="'ProximaNova-Bold'" font-size="20">Minimaliseren </tspan><tspan x="-5.47" y="24" fill="#3B3A3C" font-family="'ProximaNova-Bold'" font-size="20">milieubelasting</tspan></text>
	<text transform="matrix(1 0 0 1 711.7676 -794.3062)" font-family="'ProximaNova-Semibold'" font-size="15">Concept - 3 - Producten</text>
	<text transform="matrix(1 0 0 1 711.7676 -1113.6802)" font-family="'ProximaNova-Semibold'" font-size="15">Home - 2 - Ons Concept</text>
	<rect x="998.25" y="-1136.845" fill="none" width="735" height="173.086"/>
	<text transform="matrix(1 0 0 1 998.25 -1112.8335)"><tspan x="0" y="0" fill="#231F20" font-family="'ProximaNova-Semibold'" font-size="36">Orange Nanotech</tspan><tspan x="0" y="67.2" fill="#3B3A3C" font-family="'ProximaNova-Regular'" font-size="20">Geld en grondstoffen zijn schaars en het milieu staat onder druk. Wij bieden </tspan><tspan x="0" y="91.2" fill="#3B3A3C" font-family="'ProximaNova-Regular'" font-size="20">oplossingen die de levensduur van kapitaalgoederen verlengen en het gebruik van </tspan><tspan x="0" y="115.2" fill="#3B3A3C" font-family="'ProximaNova-Regular'" font-size="20">grondstoffen verlagen om zo het milieu en kosten te sparen.</tspan></text>
	<rect x="716.125" y="-1535.67" fill="none" width="1114.444" height="52.709"/>
	<text transform="matrix(1 0 0 1 1057.1709 -1487.646)" fill="#FFFFFF" font-family="'ProximaNova-Semibold'" font-size="72">Orange Nano</text>
	<path fill="none" stroke="#414042" stroke-miterlimit="10" d="M628.296-1761.543"/>
	<path fill="none" stroke="#414042" stroke-miterlimit="10" d="M1911.1-1761.543"/>
	<polyline fill="none" stroke="#FFFFFF" stroke-width="2" stroke-miterlimit="10" points="728.313,-1497.086 716.125,-1509.273 
		728.313,-1521.461 	"/>
	<polyline fill="none" stroke="#FFFFFF" stroke-width="2" stroke-miterlimit="10" points="1816.062,-1497.086 1828.25,-1509.273 
		1816.062,-1521.461 	"/>
	<rect x="628.296" y="-1821.543" fill="#333333" width="1280" height="60"/>
	<g id="Over_Ons_18_">
		<g>
			<text transform="matrix(1 0 0 1 1790.2314 -1786.3726)" fill="#FFFFFF" font-family="'ProximaNova-Semibold'" font-size="15">Login</text>
		</g>
	</g>
	<g id="Diensten_15_">
		<g>
			<text transform="matrix(1 0 0 1 1063.3037 -1786.3726)" fill="#FFFFFF" font-family="'ProximaNova-Regular'" font-size="20">Concept</text>
		</g>
	</g>
	<g id="Over_Ons_17_">
		<g>
			<text transform="matrix(1 0 0 1 1324.4229 -1786.3726)" fill="#FFFFFF" font-family="'ProximaNova-Regular'" font-size="20">Over Ons</text>
		</g>
	</g>
	<g id="Over_Ons_15_">
		<g>
			<text transform="matrix(1 0 0 1 1432.7192 -1786.3726)" fill="#FFFFFF" font-family="'ProximaNova-Regular'" font-size="20">Contact</text>
		</g>
	</g>
	<g id="Over_Ons_8_">
		<g>
			<text transform="matrix(1 0 0 1 1157.2383 -1786.3726)" fill="#FFFFFF" font-family="'ProximaNova-Regular'" font-size="20">Nanotechnologie</text>
		</g>
	</g>
	<g id="Over_Ons_1_">
		<g>
			<text transform="matrix(1 0 0 1 808.25 -1786.3726)" fill="#FFFFFF" font-family="'ProximaNova-Regular'" font-size="20">Toepassingen</text>
		</g>
	</g>
	<g id="Contact_2_">
		<g>
			<text transform="matrix(1 0 0 1 951.0771 -1786.3726)" fill="#FFFFFF" font-family="'ProximaNova-Regular'" font-size="20">Producten</text>
		</g>
	</g>
	<g>
		<polygon fill="#FFFFFF" points="736.891,-1790.994 731.479,-1799.598 728.323,-1799.598 728.323,-1786.591 730.856,-1786.591 
			730.856,-1795.819 736.762,-1786.591 739.422,-1786.591 739.422,-1799.598 736.891,-1799.598 		"/>
		<path fill="#FFFFFF" d="M733.874-1811.845c-10.339,0-18.75,8.411-18.75,18.75c0,10.339,8.411,18.75,18.75,18.75
			c10.34,0,18.75-8.411,18.75-18.75C752.624-1803.435,744.214-1811.845,733.874-1811.845z M733.874-1779.08
			c-7.727,0-14.014-6.289-14.014-14.016c0-7.729,6.287-14.012,14.014-14.012s14.014,6.283,14.014,14.012
			C747.888-1785.368,741.601-1779.08,733.874-1779.08z"/>
	</g>
	<linearGradient id="SVGID_1_" gradientUnits="userSpaceOnUse" x1="799.251" y1="-953.1704" x2="799.251" y2="-888.1704">
		<stop  offset="0" style="stop-color:#231F20"/>
		<stop  offset="0.5" style="stop-color:#414042"/>
	</linearGradient>
	<circle fill="url(#SVGID_1_)" stroke="#231F20" stroke-miterlimit="10" cx="799.251" cy="-920.67" r="32.5"/>
	<polyline fill="none" stroke="#FFFFFF" stroke-width="2" stroke-miterlimit="10" points="811.438,-923.103 799.252,-910.914 
		787.063,-923.103 	"/>
	<g id="Diensten_13_">
		<g>
			<text transform="matrix(1 0 0 1 715.2144 207.3496)" fill="#FFFFFF" font-family="'ProximaNova-Semibold'" font-size="15">2014 Orange Nanotech B.V.</text>
		</g>
	</g>
	<g id="Diensten_18_">
		<g>
			<text transform="matrix(1 0 0 1 1680.2354 207.3496)" fill="#FFFFFF" font-family="'ProximaNova-Regular'" font-size="20">Back to top</text>
		</g>
	</g>
	<line fill="none" stroke="#F1F2F2" stroke-miterlimit="10" x1="628.296" y1="-165.759" x2="1908.144" y2="-165.759"/>
	<rect x="1733.078" y="60.914" fill="#F89C1C" width="95.172" height="39.02"/>
	<g id="Diensten_1_">
		<g>
			<text transform="matrix(1 0 0 1 1752.2451 85.4263)" fill="#FFFFFF" font-family="'ProximaNova-Semibold'" font-size="15">Sign up</text>
		</g>
	</g>
	<g>
		<circle fill="none" stroke="#FFFFFF" stroke-width="2" stroke-miterlimit="10" cx="1813.25" cy="200.549" r="15"/>
		<polyline fill="none" stroke="#FFFFFF" stroke-width="2" stroke-miterlimit="10" points="1818.875,202.672 1813.25,197.046 
			1807.625,202.672 		"/>
	</g>
	<polyline fill="none" stroke="#FFFFFF" stroke-width="2" stroke-miterlimit="10" points="1810.438,86.049 1816.064,80.424 
		1810.438,74.799 	"/>
	<linearGradient id="SVGID_2_" gradientUnits="userSpaceOnUse" x1="1268.3818" y1="-49.5757" x2="1268.3818" y2="-69.5757">
		<stop  offset="0.25" style="stop-color:#333333;stop-opacity:0.75"/>
		<stop  offset="1" style="stop-color:#231F20"/>
	</linearGradient>
	<rect x="628.458" y="-69.576" fill="url(#SVGID_2_)" width="1279.848" height="20"/>
	<g>
		<circle fill="#FFFFFF" cx="1242.523" cy="-1255.479" r="4.999"/>
		<g>
			<path fill="#FFFFFF" d="M1267.522-1250.979c-1.202,0-2.332-0.468-3.182-1.318c-0.85-0.85-1.318-1.98-1.318-3.182
				s0.468-2.332,1.318-3.182c0.85-0.851,1.979-1.318,3.182-1.318s2.332,0.467,3.182,1.318c0.85,0.85,1.318,1.98,1.318,3.182
				c0,1.202-0.468,2.332-1.318,3.182C1269.855-1251.448,1268.725-1250.979,1267.522-1250.979z"/>
			<path fill="#FFFFFF" d="M1267.523-1259.479c1.068,0,2.073,0.416,2.829,1.171c0.755,0.755,1.171,1.76,1.171,2.829
				c0,1.068-0.416,2.072-1.172,2.828c-0.755,0.756-1.76,1.172-2.829,1.172c-1.068,0-2.073-0.416-2.828-1.171
				c-0.755-0.755-1.171-1.76-1.171-2.829c0-1.068,0.416-2.073,1.172-2.829C1265.45-1259.063,1266.455-1259.479,1267.523-1259.479
				 M1267.523-1260.479c-1.28,0-2.559,0.489-3.535,1.465c-1.953,1.952-1.953,5.118,0,7.071c0.977,0.976,2.256,1.464,3.535,1.464
				c1.28,0,2.56-0.488,3.536-1.465c1.953-1.953,1.953-5.119,0-7.07C1270.082-1259.99,1268.803-1260.479,1267.523-1260.479
				L1267.523-1260.479z"/>
		</g>
		<g>
			<path fill="#FFFFFF" d="M1291.685-1250.979c-1.202,0-2.332-0.468-3.182-1.318c-0.85-0.85-1.318-1.98-1.318-3.182
				s0.468-2.332,1.318-3.182c0.85-0.851,1.979-1.318,3.182-1.318s2.332,0.467,3.182,1.318c0.85,0.85,1.318,1.98,1.318,3.182
				c0,1.202-0.468,2.332-1.318,3.182C1294.017-1251.448,1292.887-1250.979,1291.685-1250.979z"/>
			<path fill="#FFFFFF" d="M1291.685-1259.479c1.068,0,2.073,0.416,2.829,1.171c0.755,0.755,1.171,1.76,1.171,2.829
				c0,1.068-0.416,2.072-1.172,2.828c-0.755,0.756-1.76,1.172-2.829,1.172c-1.068,0-2.073-0.416-2.828-1.171
				c-0.755-0.755-1.171-1.76-1.171-2.829c0-1.068,0.416-2.073,1.172-2.829C1289.612-1259.063,1290.617-1259.479,1291.685-1259.479
				 M1291.685-1260.479c-1.28,0-2.559,0.489-3.535,1.465c-1.953,1.952-1.953,5.118,0,7.071c0.977,0.976,2.256,1.464,3.535,1.464
				c1.28,0,2.56-0.488,3.536-1.465c1.953-1.953,1.953-5.119,0-7.07C1294.244-1259.99,1292.965-1260.479,1291.685-1260.479
				L1291.685-1260.479z"/>
		</g>
	</g>
	<g>
		<g>
			<path fill="#414042" d="M1242.522-1250.979c-1.202,0-2.332-0.468-3.182-1.318c-0.85-0.85-1.318-1.98-1.318-3.182
				s0.468-2.332,1.318-3.182c0.85-0.851,1.979-1.318,3.182-1.318s2.332,0.467,3.182,1.318c0.85,0.85,1.318,1.98,1.318,3.182
				c0,1.202-0.468,2.332-1.318,3.182C1244.855-1251.448,1243.725-1250.979,1242.522-1250.979z"/>
			<path fill="#FFFFFF" d="M1242.523-1259.479c1.068,0,2.073,0.416,2.829,1.171c0.755,0.755,1.171,1.76,1.171,2.829
				c0,1.068-0.416,2.072-1.172,2.828c-0.755,0.756-1.76,1.172-2.829,1.172c-1.068,0-2.073-0.416-2.828-1.171
				c-0.755-0.755-1.171-1.76-1.171-2.829c0-1.068,0.416-2.073,1.172-2.829C1240.45-1259.063,1241.455-1259.479,1242.523-1259.479
				 M1242.523-1260.479c-1.28,0-2.559,0.489-3.535,1.465c-1.953,1.952-1.953,5.118,0,7.071c0.977,0.976,2.256,1.464,3.535,1.464
				c1.28,0,2.56-0.488,3.536-1.465c1.953-1.953,1.953-5.119,0-7.07C1245.082-1259.99,1243.803-1260.479,1242.523-1260.479
				L1242.523-1260.479z"/>
		</g>
	</g>
	<g>
		<g>
			<g>
				<g>
					<path fill="#231F20" d="M1128.585-388.951c31.981,0,58,26.019,58,58s-26.019,58-58,58c-31.981,0-58-26.019-58-58
						S1096.604-388.951,1128.585-388.951 M1128.585-390.951c-33.087,0-60,26.919-60,60c0,33.086,26.913,60,60,60
						c33.088,0,60-26.913,60-60C1188.585-364.032,1161.673-390.951,1128.585-390.951L1128.585-390.951z"/>
				</g>
			</g>
		</g>
		<g>
			<path fill="none" stroke="#231F20" stroke-width="2" stroke-miterlimit="10" d="M1147.513-348.121
				c-4.729-5.278-11.569-8.624-19.187-8.624c-14.232,0-25.802,11.569-25.802,25.793c0,14.228,11.57,25.796,25.802,25.796
				c7.199,0,13.705-2.969,18.396-7.744"/>
		</g>
		<g>
			
				<line fill="none" stroke="#231F20" stroke-width="2" stroke-miterlimit="10" x1="1098.579" y1="-336.812" x2="1134" y2="-336.812"/>
			
				<line fill="none" stroke="#231F20" stroke-width="2" stroke-miterlimit="10" x1="1098.579" y1="-325.086" x2="1134" y2="-325.086"/>
		</g>
	</g>
	<g>
		<g>
			<g>
				<g>
					<path fill="#231F20" d="M843.25-388.949c31.981,0,58,26.019,58,58s-26.019,58-58,58c-31.981,0-58-26.019-58-58
						S811.269-388.949,843.25-388.949 M843.25-390.949c-33.087,0-60,26.919-60,60c0,33.08,26.913,60,60,60c33.088,0,60-26.919,60-60
						C903.25-364.03,876.337-390.949,843.25-390.949L843.25-390.949z"/>
				</g>
			</g>
		</g>
		<path fill="none" stroke="#231F20" stroke-width="2" stroke-miterlimit="10" d="M807.029-322.646
			c3.786,16.514,18.57,28.875,36.221,28.875c17.651,0,32.435-12.362,36.222-28.875"/>
		<path fill="none" stroke="#231F20" stroke-width="2" stroke-miterlimit="10" d="M879.477-339.246
			c-3.779-16.528-18.569-28.902-36.228-28.902c-17.657,0-32.448,12.375-36.227,28.902"/>
		<g>
			<polygon fill="#F8F9F9" points="805.32,-349.246 815.832,-343.897 805.942,-337.463 			"/>
			<path fill="#231F20" d="M806.41-347.569l7.425,3.778l-6.986,4.544L806.41-347.569 M804.23-350.922l0.183,3.458l0.439,8.324
				l0.183,3.46l2.905-1.89l6.986-4.545l2.903-1.888l-3.087-1.571l-7.425-3.778L804.23-350.922L804.23-350.922z"/>
		</g>
		<g>
			<polygon fill="#F8F9F9" points="870.466,-317.976 880.346,-324.43 881.004,-312.657 			"/>
			<path fill="#231F20" d="M879.444-322.646l0.465,8.317l-7.444-3.758L879.444-322.646 M881.248-326.213l-2.897,1.893l-6.979,4.559
				l-2.904,1.896l3.096,1.563l7.444,3.758l3.092,1.562l-0.193-3.458l-0.465-8.317L881.248-326.213L881.248-326.213z"/>
		</g>
	</g>
	<g>
		<g>
			<g>
				<g>
					<path fill="#231F20" d="M1413.385-388.95c31.981,0,58,26.019,58,58c0,31.98-26.019,57.999-58,57.999
						c-31.981,0-58-26.018-58-57.999C1355.386-362.931,1381.404-388.95,1413.385-388.95 M1413.385-390.95c-33.087,0-60,26.919-60,60
						c0,33.08,26.913,59.999,60,59.999c33.088,0,60-26.918,60-59.999C1473.386-364.031,1446.473-390.95,1413.385-390.95
						L1413.385-390.95z"/>
				</g>
			</g>
		</g>
		<polygon fill="none" stroke="#231F20" stroke-width="2" stroke-linejoin="round" stroke-miterlimit="10" points="
			1453.285,-343.806 1413.385,-293.759 1373.878,-343.806 		"/>
		<polygon fill="none" stroke="#231F20" stroke-width="2" stroke-linejoin="round" stroke-miterlimit="10" points="
			1453.285,-343.806 1373.878,-343.806 1392.181,-368.142 1435.029,-368.142 		"/>
		<polyline fill="none" stroke="#231F20" stroke-width="2" stroke-linejoin="round" stroke-miterlimit="10" points="
			1413.385,-293.759 1396.686,-343.806 1405.036,-368.142 		"/>
		<polyline fill="none" stroke="#231F20" stroke-width="2" stroke-linejoin="round" stroke-miterlimit="10" points="
			1413.585,-293.759 1430.285,-343.806 1421.935,-368.142 		"/>
	</g>
	<g>
		<g>
			<g>
				<g>
					<path fill="#231F20" d="M1698.25-388.951c31.981,0,58,26.019,58,58c0,31.981-26.019,58-58,58c-31.981,0-58-26.019-58-58
						C1640.25-362.932,1666.269-388.951,1698.25-388.951 M1698.25-390.951c-33.08,0-60,26.913-60,60c0,33.08,26.919,60,60,60
						c33.088,0,60-26.919,60-60C1758.25-364.038,1731.337-390.951,1698.25-390.951L1698.25-390.951z"/>
				</g>
			</g>
		</g>
		<g>
			<g>
				<path fill="none" stroke="#231F20" stroke-width="2" stroke-miterlimit="10" d="M1698.25-368.142
					c20.513,0,37.193,16.68,37.193,37.191c0,20.505-16.68,37.192-37.193,37.192c-20.505,0-37.192-16.687-37.192-37.192
					C1661.058-351.462,1677.744-368.142,1698.25-368.142"/>
			</g>
		</g>
		<g>
			<g>
				<path fill="none" stroke="#231F20" stroke-width="2" stroke-miterlimit="10" d="M1698.25-368.142
					c8.205,0,14.876,16.68,14.876,37.191c0,20.505-6.672,37.192-14.876,37.192c-8.203,0-14.876-16.687-14.876-37.192
					C1683.373-351.462,1690.046-368.142,1698.25-368.142"/>
			</g>
		</g>
		
			<line fill="none" stroke="#231F20" stroke-width="2" stroke-miterlimit="10" x1="1664.038" y1="-343.352" x2="1732.733" y2="-343.352"/>
		
			<line fill="none" stroke="#231F20" stroke-width="2" stroke-miterlimit="10" x1="1664.038" y1="-318.556" x2="1732.733" y2="-318.556"/>
	</g>
</g>
<g id="Icons" display="none">
	<rect x="628.296" y="-448.465" display="inline" fill="#F8F9F9" width="1279.848" height="324.226"/>
	<rect x="713.765" y="-220.601" display="inline" fill="none" width="259.485" height="116.374"/>
	<text transform="matrix(1 0 0 1 743.6289 -207.2612)" display="inline"><tspan x="0" y="0" fill="#3B3A3C" font-family="'ProximaNova-Bold'" font-size="20">Verlengen levensduur</tspan><tspan x="41.599" y="24" fill="#3B3A3C" font-family="'ProximaNova-Bold'" font-size="20">van objecten</tspan></text>
	<rect x="998.08" y="-220.601" display="inline" fill="none" width="264.442" height="116.374"/>
	<text transform="matrix(1 0 0 1 1098.7217 -207.2612)" display="inline"><tspan x="0" y="0" fill="#3B3A3C" font-family="'ProximaNova-Bold'" font-size="20">Kosten </tspan><tspan x="-10.76" y="24" fill="#3B3A3C" font-family="'ProximaNova-Bold'" font-size="20">besparen</tspan></text>
	<rect x="1280.042" y="-220.601" display="inline" fill="none" width="263.208" height="116.374"/>
	<text transform="matrix(1 0 0 1 1351.6768 -207.2612)" display="inline"><tspan x="0" y="0" fill="#3B3A3C" font-family="'ProximaNova-Bold'" font-size="20">Grondstoffen </tspan><tspan x="29.02" y="24" fill="#3B3A3C" font-family="'ProximaNova-Bold'" font-size="20">sparen</tspan></text>
	<rect x="1568.507" y="-220.601" display="inline" fill="none" width="262.062" height="116.374"/>
	<text transform="matrix(1 0 0 1 1635.8994 -207.2612)" display="inline"><tspan x="0" y="0" fill="#3B3A3C" font-family="'ProximaNova-Bold'" font-size="20">Minimaliseren </tspan><tspan x="-5.47" y="24" fill="#3B3A3C" font-family="'ProximaNova-Bold'" font-size="20">milieubelasting</tspan></text>
	
		<rect x="1068.586" y="-390.951" transform="matrix(0.7071 -0.7071 0.7071 0.7071 564.5791 701.1001)" display="inline" fill="#F89C1C" width="119.999" height="120"/>
	
		<rect x="784.149" y="-390.951" transform="matrix(0.7071 -0.7071 0.7071 0.7071 481.2684 499.972)" display="inline" fill="#F89C1C" width="119.999" height="120"/>
	
		<rect x="1353.586" y="-390.951" transform="matrix(0.7071 -0.7071 0.7071 0.7071 648.0548 902.6267)" display="inline" fill="#F89C1C" width="119.999" height="120"/>
	
		<rect x="1639.539" y="-390.951" transform="matrix(0.7071 -0.7071 0.7071 0.7071 731.8098 1104.8273)" display="inline" fill="#F89C1C" width="119.999" height="120"/>
	<g display="inline">
		<g>
			<g>
				<g>
					<path fill="#FFFFFF" d="M1128.585-373.951c23.71,0,43,19.29,43,43s-19.29,43-43,43s-43-19.29-43-43
						S1104.875-373.951,1128.585-373.951 M1128.585-375.951c-24.815,0-45,20.189-45,45c0,24.816,20.185,45,45,45s45-20.184,45-45
						C1173.585-355.761,1153.401-375.951,1128.585-375.951L1128.585-375.951z"/>
				</g>
			</g>
		</g>
		<g>
			<path fill="none" stroke="#FFFFFF" stroke-width="2" stroke-miterlimit="10" d="M1142.781-343.829
				c-3.547-3.958-8.677-6.468-14.39-6.468c-10.674,0-19.352,8.677-19.352,19.345c0,10.671,8.678,19.347,19.352,19.347
				c5.399,0,10.279-2.227,13.797-5.808"/>
		</g>
		<g>
			
				<line fill="none" stroke="#FFFFFF" stroke-width="2" stroke-miterlimit="10" x1="1106.081" y1="-335.346" x2="1132.647" y2="-335.346"/>
			
				<line fill="none" stroke="#FFFFFF" stroke-width="2" stroke-miterlimit="10" x1="1106.081" y1="-326.553" x2="1132.647" y2="-326.553"/>
		</g>
	</g>
	<g display="inline">
		<g>
			<g>
				<g>
					<path fill="#FFFFFF" d="M843.25-373.95c23.71,0,43,19.29,43,43s-19.29,43-43,43c-23.71,0-43-19.29-43-43
						S819.54-373.95,843.25-373.95 M843.25-375.95c-24.815,0-45,20.189-45,45c0,24.81,20.185,45,45,45c24.816,0,45-20.19,45-45
						C888.25-355.76,868.065-375.95,843.25-375.95L843.25-375.95z"/>
				</g>
			</g>
		</g>
		<path fill="none" stroke="#FFFFFF" stroke-width="2" stroke-miterlimit="10" d="M816.084-324.722
			c2.84,12.385,13.928,21.656,27.166,21.656c13.239,0,24.326-9.271,27.167-21.656"/>
		<path fill="none" stroke="#FFFFFF" stroke-width="2" stroke-miterlimit="10" d="M870.42-337.172
			c-2.834-12.396-13.927-21.677-27.171-21.677c-13.243,0-24.336,9.281-27.17,21.677"/>
		<g>
			<polygon fill="#F8F9F9" points="814.53,-345.091 823.186,-340.687 815.042,-335.389 			"/>
			<path fill="#FFFFFF" d="M815.62-343.415l5.569,2.834l-5.239,3.408L815.62-343.415 M813.44-346.768l0.183,3.458l0.33,6.242
				l0.183,3.461l2.905-1.89l5.239-3.409l2.903-1.889l-3.087-1.57l-5.568-2.833L813.44-346.768L813.44-346.768z"/>
		</g>
		<g>
			<polygon fill="#F8F9F9" points="863.162,-321.192 871.298,-326.505 871.84,-316.812 			"/>
			<path fill="#FFFFFF" d="M870.396-324.722l0.349,6.237l-5.583-2.819L870.396-324.722 M872.2-328.29l-2.897,1.893l-5.235,3.419
				l-2.904,1.896l3.096,1.563l5.583,2.818l3.091,1.562l-0.193-3.458l-0.349-6.238L872.2-328.29L872.2-328.29z"/>
		</g>
	</g>
	<g display="inline">
		<g>
			<g>
				<g>
					<path fill="#FFFFFF" d="M1413.25-373.95c23.71,0,43,19.29,43,43c0,23.709-19.29,42.999-43,42.999c-23.71,0-43-19.289-43-42.999
						C1370.25-354.66,1389.54-373.95,1413.25-373.95 M1413.25-375.95c-24.815,0-45,20.189-45,45c0,24.81,20.184,44.999,45,44.999
						c24.816,0,45-20.189,45-44.999C1458.25-355.761,1438.065-375.95,1413.25-375.95L1413.25-375.95z"/>
				</g>
			</g>
		</g>
		<polygon fill="none" stroke="#FFFFFF" stroke-width="2" stroke-linejoin="round" stroke-miterlimit="10" points="
			1443.174,-340.591 1413.25,-303.057 1383.619,-340.591 		"/>
		<polygon fill="none" stroke="#FFFFFF" stroke-width="2" stroke-linejoin="round" stroke-miterlimit="10" points="
			1443.174,-340.591 1383.619,-340.591 1397.346,-358.845 1429.482,-358.845 		"/>
		<polyline fill="none" stroke="#FFFFFF" stroke-width="2" stroke-linejoin="round" stroke-miterlimit="10" points="
			1413.25,-303.057 1400.725,-340.591 1406.987,-358.845 		"/>
		<polyline fill="none" stroke="#FFFFFF" stroke-width="2" stroke-linejoin="round" stroke-miterlimit="10" points="
			1413.399,-303.057 1425.924,-340.591 1419.661,-358.845 		"/>
	</g>
	<g display="inline">
		<g>
			<g>
				<g>
					<path fill="#FFFFFF" d="M1699.538-373.951c23.71,0,43,19.29,43,43s-19.29,43-43,43c-23.71,0-43-19.29-43-43
						S1675.828-373.951,1699.538-373.951 M1699.538-375.951c-24.81,0-45,20.185-45,45c0,24.811,20.189,45,45,45
						c24.816,0,45-20.189,45-45C1744.538-355.766,1724.354-375.951,1699.538-375.951L1699.538-375.951z"/>
				</g>
			</g>
		</g>
		<g>
			<g>
				<path fill="none" stroke="#FFFFFF" stroke-width="2" stroke-miterlimit="10" d="M1699.538-358.845
					c15.385,0,27.895,12.51,27.895,27.894c0,15.379-12.51,27.894-27.895,27.894c-15.379,0-27.894-12.515-27.894-27.894
					C1671.644-346.334,1684.159-358.845,1699.538-358.845"/>
			</g>
		</g>
		<g>
			<g>
				<path fill="none" stroke="#FFFFFF" stroke-width="2" stroke-miterlimit="10" d="M1699.538-358.845
					c6.153,0,11.157,12.51,11.157,27.894c0,15.379-5.004,27.894-11.157,27.894c-6.152,0-11.157-12.515-11.157-27.894
					C1688.38-346.334,1693.385-358.845,1699.538-358.845"/>
			</g>
		</g>
		
			<line fill="none" stroke="#FFFFFF" stroke-width="2" stroke-miterlimit="10" x1="1673.879" y1="-340.252" x2="1725.401" y2="-340.252"/>
		
			<line fill="none" stroke="#FFFFFF" stroke-width="2" stroke-miterlimit="10" x1="1673.879" y1="-321.655" x2="1725.401" y2="-321.655"/>
	</g>
</g>
<g id="_x31_2_GRID__x2B__MARGIN">
</g>
</svg>
