<?xml version="1.0" encoding="utf-8"?>
<!-- Generator: Adobe Illustrator 15.0.0, SVG Export Plug-In . SVG Version: 6.00 Build 0)  -->
<!DOCTYPE svg PUBLIC "-//W3C//DTD SVG 1.1//EN" "http://www.w3.org/Graphics/SVG/1.1/DTD/svg11.dtd">
<svg version="1.1" id="Layer_1" xmlns="http://www.w3.org/2000/svg" xmlns:xlink="http://www.w3.org/1999/xlink" x="0px" y="0px"
	 width="1440px" height="900px" viewBox="0 0 1440 900" enable-background="new 0 0 1440 900" xml:space="preserve">
<path fill="#333333" d="M544.917,478.918c0.666,0.166,16.167-23.168,16.167-38.834c0-8.469-6.865-15.334-15.334-15.334
	s-15.334,6.865-15.334,15.334c0,0.219,0.023,0.432,0.032,0.648l-0.025-0.068C530.423,456.33,544.25,479.084,544.917,478.918"/>
<g>
	<polygon fill="#F89C1C" points="547.601,441.758 544.28,436.481 542.346,436.481 542.346,444.459 543.898,444.459 543.898,438.798 
		547.522,444.459 549.153,444.459 549.153,436.481 547.601,436.481 	"/>
	<path fill="#F89C1C" d="M545.75,428.969c-6.341,0-11.5,5.159-11.5,11.5c0,6.341,5.159,11.5,11.5,11.5c6.342,0,11.5-5.159,11.5-11.5
		C557.25,434.128,552.092,428.969,545.75,428.969z M545.75,449.065c-4.74,0-8.596-3.857-8.596-8.596
		c0-4.741,3.856-8.594,8.596-8.594c4.739,0,8.595,3.854,8.595,8.594C554.345,445.208,550.489,449.065,545.75,449.065z"/>
</g>
<path fill="#333333" d="M593.917,478.918c0.666,0.166,16.167-23.168,16.167-38.834c0-8.469-6.865-15.334-15.334-15.334
	s-15.334,6.865-15.334,15.334c0,0.219,0.023,0.432,0.032,0.648l-0.025-0.068C579.423,456.33,593.25,479.084,593.917,478.918"/>
<g>
	<polygon fill="#FFFFFF" points="596.931,441.988 593.019,435.77 590.739,435.77 590.739,445.17 592.568,445.17 592.568,438.5 
		596.838,445.17 598.76,445.17 598.76,435.77 596.931,435.77 	"/>
	<path fill="#FFFFFF" d="M594.75,426.919c-7.471,0-13.55,6.079-13.55,13.55c0,7.471,6.079,13.55,13.55,13.55
		c7.473,0,13.55-6.079,13.55-13.55C608.3,432.998,602.223,426.919,594.75,426.919z M594.75,450.598
		c-5.584,0-10.128-4.544-10.128-10.128c0-5.585,4.543-10.126,10.128-10.126c5.584,0,10.127,4.541,10.127,10.126
		C604.877,446.053,600.334,450.598,594.75,450.598z"/>
</g>
<path fill="#F89C1C" d="M500.167,478.918c0.666,0.166,16.167-23.168,16.167-38.834c0-8.469-6.865-15.334-15.334-15.334
	s-15.334,6.865-15.334,15.334c0,0.219,0.023,0.432,0.032,0.648l-0.025-0.068C485.673,456.33,499.5,479.084,500.167,478.918"/>
<g>
	<polygon fill="#333333" points="503.181,441.988 499.269,435.77 496.989,435.77 496.989,445.17 498.818,445.17 498.818,438.5 
		503.088,445.17 505.01,445.17 505.01,435.77 503.181,435.77 	"/>
	<path fill="#333333" d="M501,426.919c-7.471,0-13.55,6.079-13.55,13.55c0,7.471,6.079,13.55,13.55,13.55
		c7.473,0,13.55-6.079,13.55-13.55C514.55,432.998,508.473,426.919,501,426.919z M501,450.598c-5.584,0-10.128-4.544-10.128-10.128
		c0-5.585,4.543-10.126,10.128-10.126c5.584,0,10.127,4.541,10.127,10.126C511.127,446.053,506.584,450.598,501,450.598z"/>
</g>
<path fill="#F89C1C" d="M456.667,478.918c0.666,0.166,16.167-23.168,16.167-38.834c0-8.469-6.865-15.334-15.334-15.334
	s-15.334,6.865-15.334,15.334c0,0.219,0.023,0.432,0.032,0.648l-0.025-0.068C442.173,456.33,456,479.084,456.667,478.918"/>
<g>
	<polygon fill="#FFFFFF" points="459.681,441.988 455.769,435.77 453.489,435.77 453.489,445.17 455.318,445.17 455.318,438.5 
		459.588,445.17 461.51,445.17 461.51,435.77 459.681,435.77 	"/>
	<path fill="#FFFFFF" d="M457.5,426.919c-7.471,0-13.55,6.079-13.55,13.55c0,7.471,6.079,13.55,13.55,13.55
		c7.473,0,13.55-6.079,13.55-13.55C471.05,432.998,464.973,426.919,457.5,426.919z M457.5,450.598
		c-5.584,0-10.128-4.544-10.128-10.128c0-5.585,4.543-10.126,10.128-10.126c5.584,0,10.127,4.541,10.127,10.126
		C467.627,446.053,463.084,450.598,457.5,450.598z"/>
</g>
</svg>
