<?xml version="1.0" encoding="utf-8"?>
<!-- Generator: Adobe Illustrator 15.0.0, SVG Export Plug-In . SVG Version: 6.00 Build 0)  -->
<!DOCTYPE svg PUBLIC "-//W3C//DTD SVG 1.1//EN" "http://www.w3.org/Graphics/SVG/1.1/DTD/svg11.dtd">
<svg version="1.1" id="Layer_1" xmlns="http://www.w3.org/2000/svg" xmlns:xlink="http://www.w3.org/1999/xlink" x="0px" y="0px"
	 width="34px" height="58.25px" viewBox="0 0 34 58.25" enable-background="new 0 0 34 58.25" xml:space="preserve">
<path fill="#333333" d="M16.417,56.168C17.083,56.334,32.584,33,32.584,17.334C32.584,8.865,25.719,2,17.25,2
	S1.916,8.865,1.916,17.334c0,0.219,0.023,0.432,0.032,0.648l-0.025-0.068C1.923,33.58,15.75,56.334,16.417,56.168"/>
<g>
	<polygon fill="#F89C1C" points="19.431,19.238 15.519,13.02 13.239,13.02 13.239,22.42 15.068,22.42 15.068,15.75 19.338,22.42 
		21.26,22.42 21.26,13.02 19.431,13.02 	"/>
	<path fill="#F89C1C" d="M17.25,4.169c-7.471,0-13.55,6.079-13.55,13.55c0,7.471,6.079,13.55,13.55,13.55
		c7.473,0,13.55-6.079,13.55-13.55C30.8,10.248,24.723,4.169,17.25,4.169z M17.25,27.848c-5.584,0-10.128-4.544-10.128-10.128
		c0-5.585,4.543-10.126,10.128-10.126c5.584,0,10.127,4.541,10.127,10.126C27.377,23.303,22.834,27.848,17.25,27.848z"/>
</g>
<path fill="#333333" d="M65.417,56.168C66.083,56.334,81.584,33,81.584,17.334C81.584,8.865,74.719,2,66.25,2
	S50.916,8.865,50.916,17.334c0,0.219,0.023,0.432,0.032,0.648l-0.025-0.068C50.923,33.58,64.75,56.334,65.417,56.168"/>
<g>
	<polygon fill="#FFFFFF" points="68.431,19.238 64.519,13.02 62.239,13.02 62.239,22.42 64.068,22.42 64.068,15.75 68.338,22.42 
		70.26,22.42 70.26,13.02 68.431,13.02 	"/>
	<path fill="#FFFFFF" d="M66.25,4.169c-7.471,0-13.55,6.079-13.55,13.55c0,7.471,6.079,13.55,13.55,13.55
		c7.473,0,13.55-6.079,13.55-13.55C79.8,10.248,73.723,4.169,66.25,4.169z M66.25,27.848c-5.584,0-10.128-4.544-10.128-10.128
		c0-5.585,4.543-10.126,10.128-10.126c5.584,0,10.127,4.541,10.127,10.126C76.377,23.303,71.834,27.848,66.25,27.848z"/>
</g>
<path fill="#F89C1C" d="M-28.333,56.168C-27.667,56.334-12.166,33-12.166,17.334C-12.166,8.865-19.031,2-27.5,2
	s-15.334,6.865-15.334,15.334c0,0.219,0.023,0.432,0.032,0.648l-0.025-0.068C-42.827,33.58-29,56.334-28.333,56.168"/>
<g>
	<polygon fill="#333333" points="-25.319,19.238 -29.231,13.02 -31.511,13.02 -31.511,22.42 -29.682,22.42 -29.682,15.75 
		-25.412,22.42 -23.49,22.42 -23.49,13.02 -25.319,13.02 	"/>
	<path fill="#333333" d="M-27.5,4.169c-7.471,0-13.55,6.079-13.55,13.55c0,7.471,6.079,13.55,13.55,13.55
		c7.473,0,13.55-6.079,13.55-13.55C-13.95,10.248-20.027,4.169-27.5,4.169z M-27.5,27.848c-5.584,0-10.128-4.544-10.128-10.128
		c0-5.585,4.543-10.126,10.128-10.126c5.584,0,10.127,4.541,10.127,10.126C-17.373,23.303-21.916,27.848-27.5,27.848z"/>
</g>
<path fill="#F89C1C" d="M-71.833,56.168C-71.167,56.334-55.666,33-55.666,17.334C-55.666,8.865-62.531,2-71,2
	s-15.334,6.865-15.334,15.334c0,0.219,0.023,0.432,0.032,0.648l-0.025-0.068C-86.327,33.58-72.5,56.334-71.833,56.168"/>
<g>
	<polygon fill="#FFFFFF" points="-68.819,19.238 -72.731,13.02 -75.011,13.02 -75.011,22.42 -73.182,22.42 -73.182,15.75 
		-68.912,22.42 -66.99,22.42 -66.99,13.02 -68.819,13.02 	"/>
	<path fill="#FFFFFF" d="M-71,4.169c-7.471,0-13.55,6.079-13.55,13.55c0,7.471,6.079,13.55,13.55,13.55
		c7.473,0,13.55-6.079,13.55-13.55C-57.45,10.248-63.527,4.169-71,4.169z M-71,27.848c-5.584,0-10.128-4.544-10.128-10.128
		c0-5.585,4.543-10.126,10.128-10.126c5.584,0,10.127,4.541,10.127,10.126C-60.873,23.303-65.416,27.848-71,27.848z"/>
</g>
</svg>
