<?xml version="1.0" encoding="utf-8"?>
<!-- Generator: Adobe Illustrator 16.0.0, SVG Export Plug-In . SVG Version: 6.00 Build 0)  -->
<!DOCTYPE svg PUBLIC "-//W3C//DTD SVG 1.1//EN" "http://www.w3.org/Graphics/SVG/1.1/DTD/svg11.dtd">
<svg version="1.1" xmlns="http://www.w3.org/2000/svg" xmlns:xlink="http://www.w3.org/1999/xlink" x="0px" y="0px" width="66px"
	 height="66px" viewBox="0 0 66 66" enable-background="new 0 0 66 66" xml:space="preserve">
<g id="background">
</g>
<g id="_x33__ONS_CONCEPT">
	<text transform="matrix(1 0 0 1 -776.4155 906.4365)" font-family="'ProximaNova-Semibold'" font-size="12" letter-spacing="32">	</text>
	<g>
	</g>
	<text transform="matrix(1 0 0 1 245.249 -1018.5146)"><tspan x="0" y="0" font-family="'MyriadPro-Regular'" font-size="50">laptop m</tspan><tspan x="0" y="60" font-family="'MyriadPro-Regular'" font-size="50">± 1280 px</tspan></text>
	<path fill="none" d="M10961.411-136.012"/>
	<path fill="none" d="M-5421.589-136.012"/>
	<rect x="242.795" y="-247.623" fill="#FFFFFF" width="1280" height="300"/>
	<rect x="242.795" y="904.345" fill="#333333" width="1280" height="300"/>
	<rect x="242.795" y="52.377" fill="#F8F9F9" width="1279.848" height="851.905"/>
	<rect x="242.795" y="1144.345" width="1280" height="60"/>
	<g id="Diensten_28_">
		<g>
			<text transform="matrix(1 0 0 1 329.7134 1049.7817)"><tspan x="0" y="0" fill="#FFFFFF" font-family="'ProximaNova-Regular'" font-size="20">Vennewatersweg 2b</tspan><tspan x="0" y="24" fill="#FFFFFF" font-family="'ProximaNova-Regular'" font-size="20">1852 PT Heiloo Nederland</tspan></text>
		</g>
	</g>
	<g id="Diensten_27_">
		<g>
			<text transform="matrix(1 0 0 1 614.4448 1049.7817)"><tspan x="0" y="0" fill="#FFFFFF" font-family="'ProximaNova-Regular'" font-size="20">+31 88 4720180</tspan><tspan x="0" y="24" fill="#FFFFFF" font-family="'ProximaNova-Regular'" font-size="20">info@orangenano.com</tspan></text>
		</g>
	</g>
	<g id="Diensten_25_">
		<g>
			<text transform="matrix(1 0 0 1 1087.749 1000.6118)" fill="#FFFFFF" font-family="'ProximaNova-Semibold'" font-size="15">Volg ons:</text>
		</g>
	</g>
	<rect x="1087.749" y="1034.834" fill="#FFFFFF" width="355" height="39.02"/>
	<g id="Diensten_19_">
		<text transform="matrix(1 0 0 1 1107.7617 1060.3472)" fill="#333333" font-family="'ProximaNova-Regular'" font-size="20">Nieuwsbrief</text>
	</g>
	<g>
		<circle fill="#FFFFFF" cx="1237.749" cy="996.583" r="15"/>
		<path fill="#333333" d="M1245.384,997.395c-0.163,0.869-0.662,2.19-2.114,3.643c-2.528,2.53-6.159,3.082-7.453,3.082
			c-1.291,0-5.476-0.191-8.364-4.147c0,0,3.787,3.385,7.59-0.189c-1.797,0.219-1.912-1.393-0.671-1.597
			c-1.824-0.076-2.13-0.684-2.357-1.216c-0.228-0.533,0.59-0.554,1.236-0.627c-1.246-0.434-2.266-1.203-2.149-2.003
			c0.076-0.313,1.14-0.034,1.066-0.262c-0.078-0.229-1.979-1.063-1.6-2.585c1.712,0.875,4.603,1.369,6.751,3.632
			c0.664-1.884,1.765-4.325,2.948-4.847c1.179-0.525,2.165-0.418,2.434,0.112c0.265,0.533-1.636,0.953-1.636,0.953
			c2.254-0.218,3.831,1.823,4.263,3.739c1.024,0.602,2.355,0.025,2.355,0.025s-0.288,1.026-2.018,1.176
			c-0.227,0.078,0.952,0.307,2.169,0.173C1247.202,997.298,1246.023,997.405,1245.384,997.395z"/>
	</g>
	<g>
		<circle fill="#FFFFFF" cx="1197.749" cy="996.583" r="15"/>
		<g id="facebook_3_">
			<path id="facebook_4_" fill="#333333" d="M1201.877,1011.849v-11.208h3.364v-3.362h-3.364l0.007-1.873
				c0-1.011,0.338-1.487,1.788-1.487h1.57v-4.483h-3.364c-3.723,0-4.483,1.326-4.483,4.483v3.36h-2.241v3.362h2.241v11.208H1201.877
				z"/>
		</g>
	</g>
	<g>
		<path fill="#FFFFFF" d="M345.56,973.92c8.401,0,15.889,6.135,15.889,16.106c0,9.926-7.488,16.062-15.889,16.062
			c-8.358,0-15.846-6.136-15.846-16.062C329.713,980.056,337.202,973.92,345.56,973.92z M345.56,1000.255
			c4.788,0,9.666-3.308,9.666-10.273c0-6.963-4.878-10.274-9.666-10.274c-4.745,0-9.62,3.311-9.62,10.274
			C335.94,996.948,340.815,1000.255,345.56,1000.255z"/>
		<path fill="#FFFFFF" d="M377.774,989.763c-0.652-0.131-1.219-0.172-1.74-0.172c-2.962,0-5.53,1.437-5.53,6.051v9.795h-5.791
			v-21.419h5.618v3.178c1.307-2.83,4.265-3.351,6.094-3.351c0.479,0,0.916,0.043,1.349,0.086V989.763z"/>
		<path fill="#FFFFFF" d="M385.211,993.117l5.267-0.783c1.219-0.176,1.61-0.785,1.61-1.524c0-1.522-1.173-2.786-3.611-2.786
			c-2.525,0-3.92,1.608-4.092,3.482l-5.139-1.087c0.348-3.354,3.44-7.052,9.186-7.052c6.791,0,9.316,3.83,9.316,8.139v10.535
			c0,1.132,0.13,2.656,0.261,3.396H392.7c-0.133-0.566-0.218-1.743-0.218-2.568c-1.088,1.698-3.135,3.178-6.312,3.178
			c-4.572,0-7.357-3.092-7.357-6.443C378.812,995.772,381.641,993.639,385.211,993.117z M392.088,996.773v-0.958l-4.83,0.742
			c-1.482,0.216-2.655,1.043-2.655,2.699c0,1.262,0.912,2.479,2.786,2.479C389.826,1001.735,392.088,1000.563,392.088,996.773z"/>
		<path fill="#FFFFFF" d="M407.455,1005.438h-5.788v-21.419h5.615v2.656c1.307-2.219,3.874-3.222,6.182-3.222
			c5.312,0,7.749,3.789,7.749,8.488v13.498h-5.79v-12.494c0-2.395-1.174-4.265-3.96-4.265c-2.525,0-4.008,1.958-4.008,4.438
			V1005.438z"/>
		<path fill="#FFFFFF" d="M429.001,1005.219c0.391,2.349,2.265,4.046,5.008,4.046c3.656,0,5.703-1.827,5.703-5.963v-1.568
			c-0.873,1.395-2.874,2.745-5.966,2.745c-5.702,0-9.968-4.396-9.968-10.405c0-5.66,4.092-10.447,9.968-10.447
			c3.396,0,5.357,1.479,6.097,2.916v-2.525h5.572v19.111c0,5.875-3.18,11.232-11.232,11.232c-5.878,0-9.795-3.659-10.404-7.749
			L429.001,1005.219z M439.797,994.075c0-3.308-2.262-5.396-5.048-5.396c-2.874,0-5.138,2.088-5.138,5.396
			c0,3.353,2.134,5.441,5.138,5.441C437.708,999.516,439.797,997.382,439.797,994.075z"/>
		<path fill="#FFFFFF" d="M468.9,999.298c-1.089,3.701-4.485,6.791-9.751,6.791c-5.878,0-11.059-4.222-11.059-11.447
			c0-6.837,5.051-11.275,10.535-11.275c6.618,0,10.581,4.223,10.581,11.099c0,0.827-0.088,1.698-0.088,1.786h-15.325
			c0.134,2.83,2.526,4.875,5.399,4.875c2.698,0,4.177-1.349,4.875-3.264L468.9,999.298z M463.503,992.289
			c-0.087-2.131-1.482-4.224-4.789-4.224c-3.004,0-4.657,2.266-4.787,4.224H463.503z"/>
		<path fill="#FFFFFF" d="M502.379,1005.438l-14.019-21.898v21.898h-6.009v-30.866h7.488l12.842,20.418v-20.418h6.009v30.866
			H502.379z"/>
		<path fill="#FFFFFF" d="M518.729,993.117l5.27-0.783c1.219-0.176,1.609-0.785,1.609-1.524c0-1.522-1.176-2.786-3.614-2.786
			c-2.525,0-3.916,1.608-4.093,3.482l-5.136-1.087c0.349-3.354,3.439-7.052,9.187-7.052c6.791,0,9.316,3.83,9.316,8.139v10.535
			c0,1.132,0.13,2.656,0.261,3.396h-5.312c-0.13-0.566-0.218-1.743-0.218-2.568c-1.089,1.698-3.136,3.178-6.312,3.178
			c-4.572,0-7.358-3.092-7.358-6.443C512.33,995.772,515.161,993.639,518.729,993.117z M525.608,996.773v-0.958l-4.833,0.742
			c-1.479,0.216-2.655,1.043-2.655,2.699c0,1.262,0.915,2.479,2.787,2.479C523.343,1001.735,525.608,1000.563,525.608,996.773z"/>
		<path fill="#FFFFFF" d="M540.977,1005.438h-5.791v-21.419h5.617v2.656c1.305-2.219,3.875-3.222,6.182-3.222
			c5.309,0,7.749,3.789,7.749,8.488v13.498h-5.791v-12.494c0-2.395-1.175-4.265-3.961-4.265c-2.526,0-4.005,1.958-4.005,4.438
			V1005.438z"/>
		<path fill="#FFFFFF" d="M579.801,994.727c0,6.576-4.834,11.362-11.234,11.362c-6.398,0-11.232-4.786-11.232-11.362
			c0-6.616,4.834-11.36,11.232-11.36C574.967,983.367,579.801,988.111,579.801,994.727z M574.01,994.727
			c0-4.048-2.61-6.094-5.443-6.094c-2.828,0-5.441,2.046-5.441,6.094c0,4.008,2.613,6.097,5.441,6.097
			C571.399,1000.823,574.01,998.777,574.01,994.727z"/>
		<path fill="#FFFFFF" d="M585.432,980.283c2.588,0,4.694,2.117,4.694,4.708c0,2.572-2.106,4.693-4.694,4.693
			c-2.59,0-4.67-2.121-4.67-4.693C580.762,982.4,582.842,980.283,585.432,980.283z M585.432,988.68c2.016,0,3.592-1.623,3.592-3.688
			c0-2.082-1.576-3.706-3.592-3.706c-2.018,0-3.591,1.624-3.591,3.706C581.841,987.057,583.414,988.68,585.432,988.68z
			 M585.316,985.725h-0.366v1.765h-1.208v-5.075h2.006c0.976,0,1.738,0.737,1.738,1.65c0,0.671-0.394,1.218-0.978,1.47l1.015,1.956
			h-1.332L585.316,985.725z M585.533,984.735c0.457,0,0.735-0.253,0.735-0.659c0-0.417-0.278-0.673-0.735-0.673h-0.583v1.333
			H585.533z"/>
	</g>
	<rect x="612.579" y="155.271" fill="none" width="731.708" height="551.103"/>
	<text transform="matrix(1 0 0 1 612.5791 179.2822)"><tspan x="0" y="0" fill="#231F20" font-family="'ProximaNova-Semibold'" font-size="36">Producten</tspan><tspan x="0" y="74.4" fill="#3B3A3C" font-family="'ProximaNova-Light'" font-size="26">anotechnologie stelt ons in staat om stoffen op moleculair niveau </tspan><tspan x="0" y="105.6" fill="#3B3A3C" font-family="'ProximaNova-Light'" font-size="26">te bewerken. Dit maakt het mogelijk om materialen bij</tspan><tspan x="0" y="160.8" fill="#3B3A3C" font-family="'ProximaNova-Regular'" font-size="20">Coatingproducten vormen één van de toepassingsgebieden van de </tspan><tspan x="0" y="184.8" fill="#3B3A3C" font-family="'ProximaNova-Regular'" font-size="20">Nanotechnologie. Met Nanocoatings kunnen materialen worden voorzien </tspan><tspan x="0" y="208.8" fill="#3B3A3C" font-family="'ProximaNova-Regular'" font-size="20">van een zeer dunne en onzichtbare beschermlaag die de ondergrond beschermt </tspan><tspan x="0" y="232.8" fill="#3B3A3C" font-family="'ProximaNova-Regular'" font-size="20">tegen invloeden van buitenaf  zoals het weer en chemicaliën.</tspan><tspan x="0" y="280.8" fill="#3B3A3C" font-family="'ProximaNova-Regular'" font-size="20">Nanocoatings besparen kosten. Enerzijds omdat de levensduur van het gecoate </tspan><tspan x="0" y="304.8" fill="#3B3A3C" font-family="'ProximaNova-Regular'" font-size="20">object met jaren wordt verlengd anderzijds omdat het  onderhoud ervan minder </tspan><tspan x="0" y="328.8" fill="#3B3A3C" font-family="'ProximaNova-Regular'" font-size="20">vaak hoeft plaats te vinden en tegelijkertijd eenvoudiger wordt. </tspan></text>
	<rect x="328.264" y="733.307" fill="none" width="259.485" height="116.374"/>
	<text transform="matrix(1 0 0 1 358.1279 746.6465)"><tspan x="0" y="0" fill="#3B3A3C" font-family="'ProximaNova-Bold'" font-size="20">Verlengen levensduur</tspan><tspan x="41.599" y="24" fill="#3B3A3C" font-family="'ProximaNova-Bold'" font-size="20">van objecten</tspan></text>
	<rect x="612.579" y="733.307" fill="none" width="264.442" height="116.374"/>
	<text transform="matrix(1 0 0 1 713.2207 746.6465)"><tspan x="0" y="0" fill="#3B3A3C" font-family="'ProximaNova-Bold'" font-size="20">Kosten </tspan><tspan x="-10.76" y="24" fill="#3B3A3C" font-family="'ProximaNova-Bold'" font-size="20">besparen</tspan></text>
	<rect x="894.541" y="733.307" fill="none" width="263.208" height="116.374"/>
	<text transform="matrix(1 0 0 1 966.1758 746.6465)"><tspan x="0" y="0" fill="#3B3A3C" font-family="'ProximaNova-Bold'" font-size="20">Grondstoffen </tspan><tspan x="29.02" y="24" fill="#3B3A3C" font-family="'ProximaNova-Bold'" font-size="20">sparen</tspan></text>
	<rect x="1183.006" y="733.307" fill="none" width="262.062" height="116.374"/>
	<text transform="matrix(1 0 0 1 1250.3984 746.6465)"><tspan x="0" y="0" fill="#3B3A3C" font-family="'ProximaNova-Bold'" font-size="20">Minimaliseren </tspan><tspan x="-5.47" y="24" fill="#3B3A3C" font-family="'ProximaNova-Bold'" font-size="20">milieubelasting</tspan></text>
	<text transform="matrix(1 0 0 1 326.2666 179.6143)" font-family="'ProximaNova-Semibold'" font-size="15">Concept - 3 - Producten</text>
	<text transform="matrix(1 0 0 1 326.2666 -139.7598)" font-family="'ProximaNova-Semibold'" font-size="15">Home - 2 - Ons Concept</text>
	<rect x="612.749" y="-162.925" fill="none" width="735" height="173.086"/>
	<text transform="matrix(1 0 0 1 612.749 -138.9131)"><tspan x="0" y="0" fill="#231F20" font-family="'ProximaNova-Semibold'" font-size="36">Orange Nanotech</tspan><tspan x="0" y="67.2" fill="#3B3A3C" font-family="'ProximaNova-Regular'" font-size="20">Geld en grondstoffen zijn schaars en het milieu staat onder druk. Wij bieden </tspan><tspan x="0" y="91.2" fill="#3B3A3C" font-family="'ProximaNova-Regular'" font-size="20">oplossingen die de levensduur van kapitaalgoederen verlengen en het gebruik van </tspan><tspan x="0" y="115.2" fill="#3B3A3C" font-family="'ProximaNova-Regular'" font-size="20">grondstoffen verlagen om zo het milieu en kosten te sparen.</tspan></text>
	<rect x="330.624" y="-561.749" fill="none" width="1114.444" height="52.709"/>
	<text transform="matrix(1 0 0 1 671.6699 -513.7256)" fill="#FFFFFF" font-family="'ProximaNova-Semibold'" font-size="72">Orange Nano</text>
	<path fill="none" stroke="#414042" stroke-miterlimit="10" d="M242.795-787.623"/>
	<path fill="none" stroke="#414042" stroke-miterlimit="10" d="M1525.599-787.623"/>
	<polyline fill="none" stroke="#FFFFFF" stroke-width="2" stroke-miterlimit="10" points="342.812,-523.166 330.624,-535.353 
		342.812,-547.541 	"/>
	<polyline fill="none" stroke="#FFFFFF" stroke-width="2" stroke-miterlimit="10" points="1430.561,-523.166 1442.749,-535.353 
		1430.561,-547.541 	"/>
	<rect x="242.795" y="-847.623" fill="#333333" width="1280" height="60"/>
	<g id="Over_Ons_18_">
		<g>
			<text transform="matrix(1 0 0 1 1404.7305 -812.4521)" fill="#FFFFFF" font-family="'ProximaNova-Semibold'" font-size="15">Login</text>
		</g>
	</g>
	<g id="Diensten_15_">
		<g>
			<text transform="matrix(1 0 0 1 677.8027 -812.4521)" fill="#FFFFFF" font-family="'ProximaNova-Regular'" font-size="20">Concept</text>
		</g>
	</g>
	<g id="Over_Ons_17_">
		<g>
			<text transform="matrix(1 0 0 1 938.9219 -812.4521)" fill="#FFFFFF" font-family="'ProximaNova-Regular'" font-size="20">Over Ons</text>
		</g>
	</g>
	<g id="Over_Ons_15_">
		<g>
			<text transform="matrix(1 0 0 1 1047.2183 -812.4521)" fill="#FFFFFF" font-family="'ProximaNova-Regular'" font-size="20">Contact</text>
		</g>
	</g>
	<g id="Over_Ons_8_">
		<g>
			<text transform="matrix(1 0 0 1 771.7373 -812.4521)" fill="#FFFFFF" font-family="'ProximaNova-Regular'" font-size="20">Nanotechnologie</text>
		</g>
	</g>
	<g id="Over_Ons_1_">
		<g>
			<text transform="matrix(1 0 0 1 422.749 -812.4521)" fill="#FFFFFF" font-family="'ProximaNova-Regular'" font-size="20">Toepassingen</text>
		</g>
	</g>
	<g id="Contact_2_">
		<g>
			<text transform="matrix(1 0 0 1 565.5762 -812.4521)" fill="#FFFFFF" font-family="'ProximaNova-Regular'" font-size="20">Producten</text>
		</g>
	</g>
	<g>
		<polygon fill="#FFFFFF" points="351.39,-817.073 345.978,-825.678 342.822,-825.678 342.822,-812.671 345.355,-812.671 
			345.355,-821.898 351.261,-812.671 353.921,-812.671 353.921,-825.678 351.39,-825.678 		"/>
		<path fill="#FFFFFF" d="M348.373-837.925c-10.339,0-18.75,8.411-18.75,18.75c0,10.339,8.411,18.75,18.75,18.75
			c10.34,0,18.75-8.411,18.75-18.75C367.123-829.514,358.713-837.925,348.373-837.925z M348.373-805.159
			c-7.727,0-14.014-6.289-14.014-14.016c0-7.729,6.287-14.012,14.014-14.012s14.014,6.283,14.014,14.012
			C362.387-811.448,356.1-805.159,348.373-805.159z"/>
	</g>
	<linearGradient id="SVGID_1_" gradientUnits="userSpaceOnUse" x1="33" y1="0.5" x2="33" y2="65.5">
		<stop  offset="0" style="stop-color:#231F20"/>
		<stop  offset="0.5" style="stop-color:#414042"/>
	</linearGradient>
	<circle fill="url(#SVGID_1_)" stroke="#231F20" stroke-miterlimit="10" cx="33" cy="33.001" r="32.5"/>
	<polyline fill="none" stroke="#FFFFFF" stroke-width="2" stroke-miterlimit="10" points="45.188,30.567 33.001,42.756 
		20.812,30.567 	"/>
	<g id="Diensten_13_">
		<g>
			<text transform="matrix(1 0 0 1 329.7134 1181.27)" fill="#FFFFFF" font-family="'ProximaNova-Semibold'" font-size="15">2014 Orange Nanotech B.V.</text>
		</g>
	</g>
	<g id="Diensten_18_">
		<g>
			<text transform="matrix(1 0 0 1 1294.7344 1181.27)" fill="#FFFFFF" font-family="'ProximaNova-Regular'" font-size="20">Back to top</text>
		</g>
	</g>
	<line fill="none" stroke="#F1F2F2" stroke-miterlimit="10" x1="242.795" y1="808.162" x2="1522.643" y2="808.162"/>
	<rect x="1347.577" y="1034.834" fill="#F89C1C" width="95.172" height="39.02"/>
	<g id="Diensten_1_">
		<g>
			<text transform="matrix(1 0 0 1 1366.7441 1059.3467)" fill="#FFFFFF" font-family="'ProximaNova-Semibold'" font-size="15">Sign up</text>
		</g>
	</g>
	<g>
		<circle fill="none" stroke="#FFFFFF" stroke-width="2" stroke-miterlimit="10" cx="1427.749" cy="1174.469" r="15"/>
		<polyline fill="none" stroke="#FFFFFF" stroke-width="2" stroke-miterlimit="10" points="1433.374,1176.593 1427.749,1170.967 
			1422.124,1176.593 		"/>
	</g>
	<polyline fill="none" stroke="#FFFFFF" stroke-width="2" stroke-miterlimit="10" points="1424.937,1059.969 1430.563,1054.345 
		1424.937,1048.719 	"/>
	<linearGradient id="SVGID_2_" gradientUnits="userSpaceOnUse" x1="882.8809" y1="924.3447" x2="882.8809" y2="904.3447">
		<stop  offset="0.25" style="stop-color:#333333;stop-opacity:0.75"/>
		<stop  offset="1" style="stop-color:#231F20"/>
	</linearGradient>
	<rect x="242.957" y="904.345" fill="url(#SVGID_2_)" width="1279.848" height="20"/>
	<g>
		<circle fill="#FFFFFF" cx="857.022" cy="-281.559" r="4.999"/>
		<g>
			<path fill="#FFFFFF" d="M882.021-277.059c-1.202,0-2.332-0.468-3.182-1.318c-0.85-0.85-1.318-1.98-1.318-3.182
				s0.468-2.332,1.318-3.182c0.85-0.851,1.979-1.318,3.182-1.318s2.332,0.467,3.182,1.318c0.85,0.85,1.318,1.98,1.318,3.182
				c0,1.202-0.468,2.332-1.318,3.182C884.354-277.527,883.224-277.059,882.021-277.059z"/>
			<path fill="#FFFFFF" d="M882.022-285.559c1.068,0,2.073,0.416,2.829,1.171c0.755,0.755,1.171,1.76,1.171,2.829
				c0,1.068-0.416,2.072-1.172,2.828c-0.755,0.756-1.76,1.172-2.829,1.172c-1.068,0-2.073-0.416-2.828-1.171
				c-0.755-0.755-1.171-1.76-1.171-2.829c0-1.068,0.416-2.073,1.172-2.829C879.949-285.143,880.954-285.559,882.022-285.559
				 M882.022-286.559c-1.28,0-2.559,0.489-3.535,1.465c-1.953,1.952-1.953,5.118,0,7.071c0.977,0.976,2.256,1.464,3.535,1.464
				c1.28,0,2.56-0.488,3.536-1.465c1.953-1.953,1.953-5.119,0-7.07C884.581-286.07,883.302-286.559,882.022-286.559L882.022-286.559
				z"/>
		</g>
		<g>
			<path fill="#FFFFFF" d="M906.184-277.059c-1.202,0-2.332-0.468-3.182-1.318c-0.85-0.85-1.318-1.98-1.318-3.182
				s0.468-2.332,1.318-3.182c0.85-0.851,1.979-1.318,3.182-1.318s2.332,0.467,3.182,1.318c0.85,0.85,1.318,1.98,1.318,3.182
				c0,1.202-0.468,2.332-1.318,3.182C908.516-277.527,907.386-277.059,906.184-277.059z"/>
			<path fill="#FFFFFF" d="M906.184-285.559c1.068,0,2.073,0.416,2.829,1.171c0.755,0.755,1.171,1.76,1.171,2.829
				c0,1.068-0.416,2.072-1.172,2.828c-0.755,0.756-1.76,1.172-2.829,1.172c-1.068,0-2.073-0.416-2.828-1.171
				c-0.755-0.755-1.171-1.76-1.171-2.829c0-1.068,0.416-2.073,1.172-2.829C904.111-285.143,905.116-285.559,906.184-285.559
				 M906.184-286.559c-1.28,0-2.559,0.489-3.535,1.465c-1.953,1.952-1.953,5.118,0,7.071c0.977,0.976,2.256,1.464,3.535,1.464
				c1.28,0,2.56-0.488,3.536-1.465c1.953-1.953,1.953-5.119,0-7.07C908.743-286.07,907.464-286.559,906.184-286.559L906.184-286.559
				z"/>
		</g>
	</g>
	<g>
		<g>
			<path fill="#414042" d="M857.021-277.059c-1.202,0-2.332-0.468-3.182-1.318c-0.85-0.85-1.318-1.98-1.318-3.182
				s0.468-2.332,1.318-3.182c0.85-0.851,1.979-1.318,3.182-1.318s2.332,0.467,3.182,1.318c0.85,0.85,1.318,1.98,1.318,3.182
				c0,1.202-0.468,2.332-1.318,3.182C859.354-277.527,858.224-277.059,857.021-277.059z"/>
			<path fill="#FFFFFF" d="M857.022-285.559c1.068,0,2.073,0.416,2.829,1.171c0.755,0.755,1.171,1.76,1.171,2.829
				c0,1.068-0.416,2.072-1.172,2.828c-0.755,0.756-1.76,1.172-2.829,1.172c-1.068,0-2.073-0.416-2.828-1.171
				c-0.755-0.755-1.171-1.76-1.171-2.829c0-1.068,0.416-2.073,1.172-2.829C854.949-285.143,855.954-285.559,857.022-285.559
				 M857.022-286.559c-1.28,0-2.559,0.489-3.535,1.465c-1.953,1.952-1.953,5.118,0,7.071c0.977,0.976,2.256,1.464,3.535,1.464
				c1.28,0,2.56-0.488,3.536-1.465c1.953-1.953,1.953-5.119,0-7.07C859.581-286.07,858.302-286.559,857.022-286.559L857.022-286.559
				z"/>
		</g>
	</g>
	<g>
		<g>
			<g>
				<g>
					<path fill="#231F20" d="M743.084,584.97c31.981,0,58,26.019,58,58s-26.019,58-58,58c-31.981,0-58-26.019-58-58
						S711.103,584.97,743.084,584.97 M743.084,582.97c-33.087,0-60,26.919-60,60c0,33.086,26.913,60,60,60c33.088,0,60-26.913,60-60
						C803.084,609.889,776.172,582.97,743.084,582.97L743.084,582.97z"/>
				</g>
			</g>
		</g>
		<g>
			<path fill="none" stroke="#231F20" stroke-width="2" stroke-miterlimit="10" d="M762.012,625.8
				c-4.729-5.278-11.569-8.624-19.187-8.624c-14.232,0-25.802,11.569-25.802,25.793c0,14.228,11.57,25.796,25.802,25.796
				c7.199,0,13.705-2.969,18.396-7.744"/>
		</g>
		<g>
			
				<line fill="none" stroke="#231F20" stroke-width="2" stroke-miterlimit="10" x1="713.078" y1="637.108" x2="748.5" y2="637.108"/>
			
				<line fill="none" stroke="#231F20" stroke-width="2" stroke-miterlimit="10" x1="713.078" y1="648.834" x2="748.5" y2="648.834"/>
		</g>
	</g>
	<g>
		<g>
			<g>
				<g>
					<path fill="#231F20" d="M457.749,584.971c31.981,0,58,26.019,58,58s-26.019,58-58,58c-31.981,0-58-26.019-58-58
						S425.768,584.971,457.749,584.971 M457.749,582.971c-33.087,0-60,26.919-60,60c0,33.08,26.913,60,60,60
						c33.088,0,60-26.919,60-60C517.749,609.891,490.836,582.971,457.749,582.971L457.749,582.971z"/>
				</g>
			</g>
		</g>
		<path fill="none" stroke="#231F20" stroke-width="2" stroke-miterlimit="10" d="M421.528,651.274
			c3.786,16.514,18.57,28.875,36.221,28.875c17.651,0,32.435-12.362,36.222-28.875"/>
		<path fill="none" stroke="#231F20" stroke-width="2" stroke-miterlimit="10" d="M493.976,634.674
			c-3.779-16.528-18.569-28.902-36.228-28.902c-17.657,0-32.448,12.375-36.227,28.902"/>
		<g>
			<polygon fill="#F8F9F9" points="419.819,624.674 430.331,630.023 420.441,636.458 			"/>
			<path fill="#231F20" d="M420.909,626.352l7.425,3.778l-6.986,4.544L420.909,626.352 M418.729,622.998l0.183,3.458l0.439,8.324
				l0.183,3.46l2.905-1.89l6.986-4.545l2.903-1.888l-3.087-1.571l-7.425-3.778L418.729,622.998L418.729,622.998z"/>
		</g>
		<g>
			<polygon fill="#F8F9F9" points="484.965,655.944 494.845,649.49 495.503,661.264 			"/>
			<path fill="#231F20" d="M493.943,651.274l0.465,8.317l-7.444-3.758L493.943,651.274 M495.747,647.707l-2.897,1.893l-6.979,4.559
				l-2.904,1.896l3.096,1.563l7.444,3.758l3.092,1.562l-0.193-3.458l-0.465-8.317L495.747,647.707L495.747,647.707z"/>
		</g>
	</g>
	<g>
		<g>
			<g>
				<g>
					<path fill="#231F20" d="M1027.884,584.971c31.981,0,58,26.019,58,58c0,31.98-26.019,57.999-58,57.999
						c-31.981,0-58-26.018-58-57.999C969.885,610.989,995.903,584.971,1027.884,584.971 M1027.884,582.971
						c-33.087,0-60,26.919-60,60c0,33.08,26.913,59.999,60,59.999c33.088,0,60-26.918,60-59.999
						C1087.885,609.89,1060.972,582.971,1027.884,582.971L1027.884,582.971z"/>
				</g>
			</g>
		</g>
		<polygon fill="none" stroke="#231F20" stroke-width="2" stroke-linejoin="round" stroke-miterlimit="10" points="
			1067.784,630.115 1027.884,680.162 988.377,630.115 		"/>
		<polygon fill="none" stroke="#231F20" stroke-width="2" stroke-linejoin="round" stroke-miterlimit="10" points="
			1067.784,630.115 988.377,630.115 1006.68,605.778 1049.528,605.778 		"/>
		<polyline fill="none" stroke="#231F20" stroke-width="2" stroke-linejoin="round" stroke-miterlimit="10" points="
			1027.884,680.162 1011.185,630.115 1019.535,605.778 		"/>
		<polyline fill="none" stroke="#231F20" stroke-width="2" stroke-linejoin="round" stroke-miterlimit="10" points="
			1028.084,680.162 1044.784,630.115 1036.434,605.778 		"/>
	</g>
	<g>
		<g>
			<g>
				<g>
					<path fill="#231F20" d="M1312.749,584.97c31.981,0,58,26.019,58,58c0,31.981-26.019,58-58,58c-31.981,0-58-26.019-58-58
						C1254.749,610.988,1280.768,584.97,1312.749,584.97 M1312.749,582.97c-33.08,0-60,26.913-60,60c0,33.08,26.919,60,60,60
						c33.088,0,60-26.919,60-60C1372.749,609.883,1345.836,582.97,1312.749,582.97L1312.749,582.97z"/>
				</g>
			</g>
		</g>
		<g>
			<g>
				<path fill="none" stroke="#231F20" stroke-width="2" stroke-miterlimit="10" d="M1312.749,605.778
					c20.513,0,37.193,16.68,37.193,37.191c0,20.505-16.68,37.192-37.193,37.192c-20.505,0-37.192-16.687-37.192-37.192
					C1275.557,622.458,1292.243,605.778,1312.749,605.778"/>
			</g>
		</g>
		<g>
			<g>
				<path fill="none" stroke="#231F20" stroke-width="2" stroke-miterlimit="10" d="M1312.749,605.778
					c8.205,0,14.876,16.68,14.876,37.191c0,20.505-6.672,37.192-14.876,37.192c-8.203,0-14.876-16.687-14.876-37.192
					C1297.872,622.458,1304.545,605.778,1312.749,605.778"/>
			</g>
		</g>
		
			<line fill="none" stroke="#231F20" stroke-width="2" stroke-miterlimit="10" x1="1278.537" y1="630.568" x2="1347.232" y2="630.568"/>
		
			<line fill="none" stroke="#231F20" stroke-width="2" stroke-miterlimit="10" x1="1278.537" y1="655.365" x2="1347.232" y2="655.365"/>
	</g>
</g>
<g id="Icons">
	<rect x="242.795" y="525.455" fill="#F8F9F9" width="1279.848" height="324.226"/>
	<rect x="328.264" y="753.319" fill="none" width="259.485" height="116.374"/>
	<text transform="matrix(1 0 0 1 358.1279 766.6592)"><tspan x="0" y="0" fill="#3B3A3C" font-family="'ProximaNova-Bold'" font-size="20">Verlengen levensduur</tspan><tspan x="41.599" y="24" fill="#3B3A3C" font-family="'ProximaNova-Bold'" font-size="20">van objecten</tspan></text>
	<rect x="612.579" y="753.319" fill="none" width="264.442" height="116.374"/>
	<text transform="matrix(1 0 0 1 713.2207 766.6592)"><tspan x="0" y="0" fill="#3B3A3C" font-family="'ProximaNova-Bold'" font-size="20">Kosten </tspan><tspan x="-10.76" y="24" fill="#3B3A3C" font-family="'ProximaNova-Bold'" font-size="20">besparen</tspan></text>
	<rect x="894.541" y="753.319" fill="none" width="263.208" height="116.374"/>
	<text transform="matrix(1 0 0 1 966.1758 766.6592)"><tspan x="0" y="0" fill="#3B3A3C" font-family="'ProximaNova-Bold'" font-size="20">Grondstoffen </tspan><tspan x="29.02" y="24" fill="#3B3A3C" font-family="'ProximaNova-Bold'" font-size="20">sparen</tspan></text>
	<rect x="1183.006" y="753.319" fill="none" width="262.062" height="116.374"/>
	<text transform="matrix(1 0 0 1 1250.3984 766.6592)"><tspan x="0" y="0" fill="#3B3A3C" font-family="'ProximaNova-Bold'" font-size="20">Minimaliseren </tspan><tspan x="-5.47" y="24" fill="#3B3A3C" font-family="'ProximaNova-Bold'" font-size="20">milieubelasting</tspan></text>
	
		<rect x="683.085" y="582.969" transform="matrix(0.7071 -0.7071 0.7071 0.7071 -237.0027 713.7668)" fill="#F89C1C" width="119.999" height="120"/>
	
		<rect x="398.648" y="582.969" transform="matrix(0.7071 -0.7071 0.7071 0.7071 -320.3134 512.6387)" fill="#F89C1C" width="119.999" height="120"/>
	
		<rect x="968.085" y="582.969" transform="matrix(0.7071 -0.7071 0.7071 0.7071 -153.527 915.2935)" fill="#F89C1C" width="119.999" height="120"/>
	
		<rect x="1254.038" y="582.969" transform="matrix(0.7071 -0.7071 0.7071 0.7071 -69.7721 1117.494)" fill="#F89C1C" width="119.999" height="120"/>
	<g>
		<g>
			<g>
				<g>
					<path fill="#FFFFFF" d="M743.084,599.97c23.71,0,43,19.29,43,43s-19.29,43-43,43s-43-19.29-43-43
						S719.374,599.97,743.084,599.97 M743.084,597.97c-24.815,0-45,20.189-45,45c0,24.816,20.185,45,45,45s45-20.184,45-45
						C788.084,618.159,767.9,597.97,743.084,597.97L743.084,597.97z"/>
				</g>
			</g>
		</g>
		<g>
			<path fill="none" stroke="#FFFFFF" stroke-width="2" stroke-miterlimit="10" d="M757.28,630.092
				c-3.547-3.958-8.677-6.468-14.39-6.468c-10.674,0-19.352,8.677-19.352,19.345c0,10.671,8.678,19.347,19.352,19.347
				c5.399,0,10.279-2.227,13.797-5.808"/>
		</g>
		<g>
			
				<line fill="none" stroke="#FFFFFF" stroke-width="2" stroke-miterlimit="10" x1="720.58" y1="638.574" x2="747.146" y2="638.574"/>
			
				<line fill="none" stroke="#FFFFFF" stroke-width="2" stroke-miterlimit="10" x1="720.58" y1="647.368" x2="747.146" y2="647.368"/>
		</g>
	</g>
	<g>
		<g>
			<g>
				<g>
					<path fill="#FFFFFF" d="M457.749,599.971c23.71,0,43,19.29,43,43s-19.29,43-43,43c-23.71,0-43-19.29-43-43
						S434.039,599.971,457.749,599.971 M457.749,597.971c-24.815,0-45,20.189-45,45c0,24.81,20.185,45,45,45
						c24.816,0,45-20.19,45-45C502.749,618.16,482.564,597.971,457.749,597.971L457.749,597.971z"/>
				</g>
			</g>
		</g>
		<path fill="none" stroke="#FFFFFF" stroke-width="2" stroke-miterlimit="10" d="M430.583,649.198
			c2.84,12.385,13.928,21.656,27.166,21.656c13.239,0,24.326-9.271,27.167-21.656"/>
		<path fill="none" stroke="#FFFFFF" stroke-width="2" stroke-miterlimit="10" d="M484.919,636.748
			c-2.834-12.396-13.927-21.677-27.171-21.677c-13.243,0-24.336,9.281-27.17,21.677"/>
		<g>
			<polygon fill="#F8F9F9" points="429.029,628.829 437.685,633.233 429.542,638.531 			"/>
			<path fill="#FFFFFF" d="M430.119,630.506l5.569,2.834l-5.239,3.408L430.119,630.506 M427.939,627.153l0.183,3.458l0.33,6.242
				l0.183,3.461l2.905-1.89l5.239-3.409l2.903-1.889l-3.087-1.57l-5.568-2.833L427.939,627.153L427.939,627.153z"/>
		</g>
		<g>
			<polygon fill="#F8F9F9" points="477.661,652.728 485.797,647.415 486.339,657.108 			"/>
			<path fill="#FFFFFF" d="M484.895,649.198l0.349,6.237l-5.583-2.819L484.895,649.198 M486.699,645.631l-2.897,1.893l-5.235,3.419
				l-2.904,1.896l3.096,1.563l5.583,2.818l3.091,1.562l-0.193-3.458l-0.349-6.238L486.699,645.631L486.699,645.631z"/>
		</g>
	</g>
	<g>
		<g>
			<g>
				<g>
					<path fill="#FFFFFF" d="M1027.749,599.971c23.71,0,43,19.29,43,43c0,23.709-19.29,42.999-43,42.999
						c-23.71,0-43-19.289-43-42.999C984.749,619.261,1004.039,599.971,1027.749,599.971 M1027.749,597.971
						c-24.815,0-45,20.189-45,45c0,24.81,20.184,44.999,45,44.999c24.816,0,45-20.189,45-44.999
						C1072.749,618.16,1052.564,597.971,1027.749,597.971L1027.749,597.971z"/>
				</g>
			</g>
		</g>
		<polygon fill="none" stroke="#FFFFFF" stroke-width="2" stroke-linejoin="round" stroke-miterlimit="10" points="
			1057.673,633.329 1027.749,670.863 998.118,633.329 		"/>
		<polygon fill="none" stroke="#FFFFFF" stroke-width="2" stroke-linejoin="round" stroke-miterlimit="10" points="
			1057.673,633.329 998.118,633.329 1011.845,615.076 1043.981,615.076 		"/>
		<polyline fill="none" stroke="#FFFFFF" stroke-width="2" stroke-linejoin="round" stroke-miterlimit="10" points="
			1027.749,670.863 1015.224,633.329 1021.486,615.076 		"/>
		<polyline fill="none" stroke="#FFFFFF" stroke-width="2" stroke-linejoin="round" stroke-miterlimit="10" points="
			1027.898,670.863 1040.423,633.329 1034.16,615.076 		"/>
	</g>
	<g>
		<g>
			<g>
				<g>
					<path fill="#FFFFFF" d="M1314.037,599.97c23.71,0,43,19.29,43,43s-19.29,43-43,43c-23.71,0-43-19.29-43-43
						S1290.327,599.97,1314.037,599.97 M1314.037,597.97c-24.81,0-45,20.185-45,45c0,24.811,20.189,45,45,45
						c24.816,0,45-20.189,45-45C1359.037,618.154,1338.853,597.97,1314.037,597.97L1314.037,597.97z"/>
				</g>
			</g>
		</g>
		<g>
			<g>
				<path fill="none" stroke="#FFFFFF" stroke-width="2" stroke-miterlimit="10" d="M1314.037,615.076
					c15.385,0,27.895,12.51,27.895,27.894c0,15.379-12.51,27.894-27.895,27.894c-15.379,0-27.894-12.515-27.894-27.894
					C1286.143,627.586,1298.658,615.076,1314.037,615.076"/>
			</g>
		</g>
		<g>
			<g>
				<path fill="none" stroke="#FFFFFF" stroke-width="2" stroke-miterlimit="10" d="M1314.037,615.076
					c6.153,0,11.157,12.51,11.157,27.894c0,15.379-5.004,27.894-11.157,27.894c-6.152,0-11.157-12.515-11.157-27.894
					C1302.879,627.586,1307.884,615.076,1314.037,615.076"/>
			</g>
		</g>
		
			<line fill="none" stroke="#FFFFFF" stroke-width="2" stroke-miterlimit="10" x1="1288.378" y1="633.668" x2="1339.9" y2="633.668"/>
		
			<line fill="none" stroke="#FFFFFF" stroke-width="2" stroke-miterlimit="10" x1="1288.378" y1="652.266" x2="1339.9" y2="652.266"/>
	</g>
</g>
<g id="_x31_2_GRID__x2B__MARGIN">
</g>
</svg>
